<?xml version="1.0" encoding="UTF-8" standalone="no"?>
<!DOCTYPE svg PUBLIC "-//W3C//DTD SVG 1.1//EN"
 "http://www.w3.org/Graphics/SVG/1.1/DTD/svg11.dtd">
<!-- Generated by graphviz version 12.1.2 (20240928.0832)
 -->
<!-- Title: TF_QUICK_ACTIONS Pages: 1 -->
<svg width="708pt" height="1239pt"
 viewBox="0.00 0.00 707.57 1238.80" xmlns="http://www.w3.org/2000/svg" xmlns:xlink="http://www.w3.org/1999/xlink">
<g id="graph0" class="graph" transform="scale(1 1) rotate(0) translate(4 1234.8)">
<title>TF_QUICK_ACTIONS</title>
<polygon fill="white" stroke="none" points="-4,4 -4,-1234.8 703.57,-1234.8 703.57,4 -4,4"/>
<!-- TF_QUICK_ACTIONS -->
<g id="node1" class="node">
<title>TF_QUICK_ACTIONS</title>
<polygon fill="#efefef" stroke="none" points="46.32,-569.8 46.32,-615.8 653.25,-615.8 653.25,-569.8 46.32,-569.8"/>
<polygon fill="none" stroke="black" points="46.32,-569.8 46.32,-615.8 653.25,-615.8 653.25,-569.8 46.32,-569.8"/>
<text text-anchor="start" x="198.21" y="-593.6" font-family="Arial Bold" font-size="18.00">TF_QUICK_ACTIONS</text>
<text text-anchor="start" x="372.21" y="-593.6" font-family="Arial" font-size="14.00">    </text>
<text text-anchor="start" x="403.33" y="-593.6" font-family="Arial" font-size="14.00" fill="#666666">[BASIC TABLE]</text>
<text text-anchor="start" x="259.53" y="-579.2" font-family="Arial" font-size="14.00" fill="#333333">Quick actions &#45; Quick actions</text>
<polygon fill="none" stroke="black" points="46.32,-539 46.32,-569.8 653.25,-569.8 653.25,-539 46.32,-539"/>
<text text-anchor="start" x="53.32" y="-551.2" font-family="Arial" font-size="14.00">ID </text>
<text text-anchor="start" x="71.21" y="-551.2" font-family="Arial" font-size="14.00" fill="#666666">[char]</text>
<text text-anchor="start" x="106.22" y="-551.2" font-family="Arial" font-size="14.00"> Indicates the unique identifier</text>
<polygon fill="none" stroke="black" points="46.32,-508.2 46.32,-539 653.25,-539 653.25,-508.2 46.32,-508.2"/>
<text text-anchor="start" x="53.32" y="-520.4" font-family="Arial" font-size="14.00">NAME_TEXT_ID </text>
<text text-anchor="start" x="163.01" y="-520.4" font-family="Arial" font-size="14.00" fill="#666666">[bigint]</text>
<text text-anchor="start" x="204.25" y="-520.4" font-family="Arial" font-size="14.00"> Name Text Identifier</text>
<polygon fill="none" stroke="black" points="46.32,-477.4 46.32,-508.2 653.25,-508.2 653.25,-477.4 46.32,-477.4"/>
<text text-anchor="start" x="53.32" y="-489.6" font-family="Arial" font-size="14.00">PAGE_ID </text>
<text text-anchor="start" x="117.9" y="-489.6" font-family="Arial" font-size="14.00" fill="#666666">[bigint]</text>
<text text-anchor="start" x="159.14" y="-489.6" font-family="Arial" font-size="14.00"> Page ID</text>
<polygon fill="none" stroke="black" points="46.32,-446.6 46.32,-477.4 653.25,-477.4 653.25,-446.6 46.32,-446.6"/>
<text text-anchor="start" x="53.32" y="-458.8" font-family="Arial" font-size="14.00">ICON </text>
<text text-anchor="start" x="92.21" y="-458.8" font-family="Arial" font-size="14.00" fill="#666666">[nvarchar(100)]</text>
<text text-anchor="start" x="187.14" y="-458.8" font-family="Arial" font-size="14.00"> Icon</text>
<polygon fill="none" stroke="black" points="46.32,-415.8 46.32,-446.6 653.25,-446.6 653.25,-415.8 46.32,-415.8"/>
<text text-anchor="start" x="53.32" y="-428" font-family="Arial" font-size="14.00">IS_EXTERNAL </text>
<text text-anchor="start" x="152.13" y="-428" font-family="Arial" font-size="14.00" fill="#666666">[smallint]</text>
<text text-anchor="start" x="207.37" y="-428" font-family="Arial" font-size="14.00"> External</text>
<polygon fill="none" stroke="black" points="46.32,-385 46.32,-415.8 653.25,-415.8 653.25,-385 46.32,-385"/>
<text text-anchor="start" x="53.32" y="-397.2" font-family="Arial" font-size="14.00">IS_ENABLED </text>
<text text-anchor="start" x="143.58" y="-397.2" font-family="Arial" font-size="14.00" fill="#666666">[smallint]</text>
<text text-anchor="start" x="198.81" y="-397.2" font-family="Arial" font-size="14.00"> Enabled</text>
<polygon fill="none" stroke="black" points="46.32,-354.2 46.32,-385 653.25,-385 653.25,-354.2 46.32,-354.2"/>
<text text-anchor="start" x="53.32" y="-366.4" font-family="Arial" font-size="14.00">URITO </text>
<text text-anchor="start" x="100.76" y="-366.4" font-family="Arial" font-size="14.00" fill="#666666">[nvarchar(MAX)]</text>
<text text-anchor="start" x="202.67" y="-366.4" font-family="Arial" font-size="14.00"> URI</text>
<polygon fill="none" stroke="black" points="46.32,-323.4 46.32,-354.2 653.25,-354.2 653.25,-323.4 46.32,-323.4"/>
<text text-anchor="start" x="53.32" y="-335.6" font-family="Arial" font-size="14.00">PARAMETERS </text>
<text text-anchor="start" x="153.67" y="-335.6" font-family="Arial" font-size="14.00" fill="#666666">[nvarchar(MAX)]</text>
<text text-anchor="start" x="255.58" y="-335.6" font-family="Arial" font-size="14.00"> Parameters</text>
<polygon fill="none" stroke="black" points="46.32,-292.6 46.32,-323.4 653.25,-323.4 653.25,-292.6 46.32,-292.6"/>
<text text-anchor="start" x="53.32" y="-304.8" font-family="Arial" font-size="14.00">IS_CUSTOM </text>
<text text-anchor="start" x="138.88" y="-304.8" font-family="Arial" font-size="14.00" fill="#666666">[smallint]</text>
<text text-anchor="start" x="194.12" y="-304.8" font-family="Arial" font-size="14.00"> Custom</text>
<polygon fill="none" stroke="black" points="46.32,-261.8 46.32,-292.6 653.25,-292.6 653.25,-261.8 46.32,-261.8"/>
<text text-anchor="start" x="53.32" y="-274" font-family="Arial" font-size="14.00">FACTORY_ID </text>
<text text-anchor="start" x="145.88" y="-274" font-family="Arial" font-size="14.00" fill="#666666">[char]</text>
<polygon fill="none" stroke="black" points="46.32,-231 46.32,-261.8 653.25,-261.8 653.25,-231 46.32,-231"/>
<text text-anchor="start" x="53.32" y="-243.2" font-family="Arial" font-size="14.00">INSERT_TIME </text>
<text text-anchor="start" x="149.77" y="-243.2" font-family="Arial" font-size="14.00" fill="#666666">[datetime2]</text>
<text text-anchor="start" x="219.03" y="-243.2" font-family="Arial" font-size="14.00"> Indicates the date and time of creation</text>
<polygon fill="none" stroke="black" points="46.32,-200.2 46.32,-231 653.25,-231 653.25,-200.2 46.32,-200.2"/>
<text text-anchor="start" x="53.32" y="-212.4" font-family="Arial" font-size="14.00">INSERT_USER </text>
<text text-anchor="start" x="155.23" y="-212.4" font-family="Arial" font-size="14.00" fill="#666666">[nvarchar(100)]</text>
<text text-anchor="start" x="250.16" y="-212.4" font-family="Arial" font-size="14.00"> Indicates the user who has created it</text>
<polygon fill="none" stroke="black" points="46.32,-169.4 46.32,-200.2 653.25,-200.2 653.25,-169.4 46.32,-169.4"/>
<text text-anchor="start" x="53.32" y="-181.6" font-family="Arial" font-size="14.00">INSERT_CLIENT </text>
<text text-anchor="start" x="166.12" y="-181.6" font-family="Arial" font-size="14.00" fill="#666666">[nvarchar(50)]</text>
<text text-anchor="start" x="253.26" y="-181.6" font-family="Arial" font-size="14.00"> Indicates the IP address from which it was created</text>
<polygon fill="none" stroke="black" points="46.32,-138.6 46.32,-169.4 653.25,-169.4 653.25,-138.6 46.32,-138.6"/>
<text text-anchor="start" x="53.32" y="-150.8" font-family="Arial" font-size="14.00">UPDATE_TIME </text>
<text text-anchor="start" x="155.22" y="-150.8" font-family="Arial" font-size="14.00" fill="#666666">[datetime2]</text>
<text text-anchor="start" x="224.48" y="-150.8" font-family="Arial" font-size="14.00"> Indicates the date and time of last update operation</text>
<polygon fill="none" stroke="black" points="46.32,-107.8 46.32,-138.6 653.25,-138.6 653.25,-107.8 46.32,-107.8"/>
<text text-anchor="start" x="53.32" y="-120" font-family="Arial" font-size="14.00">UPDATE_USER </text>
<text text-anchor="start" x="160.68" y="-120" font-family="Arial" font-size="14.00" fill="#666666">[nvarchar(100)]</text>
<text text-anchor="start" x="255.61" y="-120" font-family="Arial" font-size="14.00"> Indicates the user who has executed last update</text>
<polygon fill="none" stroke="black" points="46.32,-77 46.32,-107.8 653.25,-107.8 653.25,-77 46.32,-77"/>
<text text-anchor="start" x="53.32" y="-89.2" font-family="Arial" font-size="14.00">UPDATE_CLIENT </text>
<text text-anchor="start" x="171.57" y="-89.2" font-family="Arial" font-size="14.00" fill="#666666">[nvarchar(50)]</text>
<text text-anchor="start" x="258.71" y="-89.2" font-family="Arial" font-size="14.00"> Indicates the IP address from which was executed last update</text>
<polygon fill="none" stroke="black" points="46.32,-46.2 46.32,-77 653.25,-77 653.25,-46.2 46.32,-46.2"/>
<text text-anchor="start" x="53.32" y="-58.4" font-family="Arial" font-size="14.00">UPDATE_COUNT </text>
<text text-anchor="start" x="171.55" y="-58.4" font-family="Arial" font-size="14.00" fill="#666666">[int]</text>
<text text-anchor="start" x="194.12" y="-58.4" font-family="Arial" font-size="14.00"> Indicates how many update was executed since its creation</text>
<polygon fill="none" stroke="black" stroke-width="3" points="44.82,-44.7 44.82,-617.3 654.75,-617.3 654.75,-44.7 44.82,-44.7"/>
</g>
<!-- TF_NAV_PRO_CFGS_QUI_ACTIONS -->
<g id="node2" class="node">
<title>TF_NAV_PRO_CFGS_QUI_ACTIONS</title>
<polygon fill="#efefef" stroke="none" points="43.2,-1141.6 43.2,-1187.6 656.37,-1187.6 656.37,-1141.6 43.2,-1141.6"/>
<polygon fill="none" stroke="black" points="43.2,-1141.6 43.2,-1187.6 656.37,-1187.6 656.37,-1141.6 43.2,-1141.6"/>
<text text-anchor="start" x="137.69" y="-1165.4" font-family="Arial Bold" font-size="18.00">TF_NAV_PRO_CFGS_QUI_ACTIONS</text>
<text text-anchor="start" x="432.73" y="-1165.4" font-family="Arial" font-size="14.00">    </text>
<text text-anchor="start" x="463.85" y="-1165.4" font-family="Arial" font-size="14.00" fill="#666666">[BASIC TABLE]</text>
<text text-anchor="start" x="50.2" y="-1151" font-family="Arial" font-size="14.00" fill="#333333">Navigation Profile Configurations Quick Actions &#45; Navigation Profile Configurations Quick Actions</text>
<polygon fill="none" stroke="black" points="43.2,-1110.8 43.2,-1141.6 656.37,-1141.6 656.37,-1110.8 43.2,-1110.8"/>
<text text-anchor="start" x="50.2" y="-1123" font-family="Arial" font-size="14.00">ID </text>
<text text-anchor="start" x="68.09" y="-1123" font-family="Arial" font-size="14.00" fill="#666666">[char]</text>
<text text-anchor="start" x="103.1" y="-1123" font-family="Arial" font-size="14.00"> Indicates the unique identifier</text>
<polygon fill="none" stroke="black" points="43.2,-1080 43.2,-1110.8 656.37,-1110.8 656.37,-1080 43.2,-1080"/>
<text text-anchor="start" x="50.2" y="-1092.2" font-family="Arial" font-size="14.00">NAV_PROFILE_CFGS_ID </text>
<text text-anchor="start" x="219.03" y="-1092.2" font-family="Arial" font-size="14.00" fill="#666666">[char]</text>
<polygon fill="none" stroke="black" points="43.2,-1049.2 43.2,-1080 656.37,-1080 656.37,-1049.2 43.2,-1049.2"/>
<text text-anchor="start" x="50.2" y="-1061.4" font-family="Arial" font-size="14.00">QUICK_ACTIONS_ID </text>
<text text-anchor="start" x="190.23" y="-1061.4" font-family="Arial" font-size="14.00" fill="#666666">[char]</text>
<polygon fill="none" stroke="black" points="43.2,-1018.4 43.2,-1049.2 656.37,-1049.2 656.37,-1018.4 43.2,-1018.4"/>
<text text-anchor="start" x="50.2" y="-1030.6" font-family="Arial" font-size="14.00">RANKING </text>
<text text-anchor="start" x="117.88" y="-1030.6" font-family="Arial" font-size="14.00" fill="#666666">[int]</text>
<text text-anchor="start" x="140.44" y="-1030.6" font-family="Arial" font-size="14.00"> Quick action ranking</text>
<polygon fill="none" stroke="black" points="43.2,-987.6 43.2,-1018.4 656.37,-1018.4 656.37,-987.6 43.2,-987.6"/>
<text text-anchor="start" x="50.2" y="-999.8" font-family="Arial" font-size="14.00">IS_CUSTOM </text>
<text text-anchor="start" x="135.77" y="-999.8" font-family="Arial" font-size="14.00" fill="#666666">[smallint]</text>
<polygon fill="none" stroke="black" points="43.2,-956.8 43.2,-987.6 656.37,-987.6 656.37,-956.8 43.2,-956.8"/>
<text text-anchor="start" x="50.2" y="-969" font-family="Arial" font-size="14.00">FACTORY_ID </text>
<text text-anchor="start" x="142.77" y="-969" font-family="Arial" font-size="14.00" fill="#666666">[char]</text>
<polygon fill="none" stroke="black" points="43.2,-926 43.2,-956.8 656.37,-956.8 656.37,-926 43.2,-926"/>
<text text-anchor="start" x="50.2" y="-938.2" font-family="Arial" font-size="14.00">INSERT_TIME </text>
<text text-anchor="start" x="146.66" y="-938.2" font-family="Arial" font-size="14.00" fill="#666666">[datetime2]</text>
<text text-anchor="start" x="215.92" y="-938.2" font-family="Arial" font-size="14.00"> Indicates the date and time of creation</text>
<polygon fill="none" stroke="black" points="43.2,-895.2 43.2,-926 656.37,-926 656.37,-895.2 43.2,-895.2"/>
<text text-anchor="start" x="50.2" y="-907.4" font-family="Arial" font-size="14.00">INSERT_USER </text>
<text text-anchor="start" x="152.11" y="-907.4" font-family="Arial" font-size="14.00" fill="#666666">[nvarchar(100)]</text>
<text text-anchor="start" x="247.04" y="-907.4" font-family="Arial" font-size="14.00"> Indicates the user who has created it</text>
<polygon fill="none" stroke="black" points="43.2,-864.4 43.2,-895.2 656.37,-895.2 656.37,-864.4 43.2,-864.4"/>
<text text-anchor="start" x="50.2" y="-876.6" font-family="Arial" font-size="14.00">INSERT_CLIENT </text>
<text text-anchor="start" x="163" y="-876.6" font-family="Arial" font-size="14.00" fill="#666666">[nvarchar(50)]</text>
<text text-anchor="start" x="250.14" y="-876.6" font-family="Arial" font-size="14.00"> Indicates the IP address from which it was created</text>
<polygon fill="none" stroke="black" points="43.2,-833.6 43.2,-864.4 656.37,-864.4 656.37,-833.6 43.2,-833.6"/>
<text text-anchor="start" x="50.2" y="-845.8" font-family="Arial" font-size="14.00">UPDATE_TIME </text>
<text text-anchor="start" x="152.1" y="-845.8" font-family="Arial" font-size="14.00" fill="#666666">[datetime2]</text>
<text text-anchor="start" x="221.37" y="-845.8" font-family="Arial" font-size="14.00"> Indicates the date and time of last update operation</text>
<polygon fill="none" stroke="black" points="43.2,-802.8 43.2,-833.6 656.37,-833.6 656.37,-802.8 43.2,-802.8"/>
<text text-anchor="start" x="50.2" y="-815" font-family="Arial" font-size="14.00">UPDATE_USER </text>
<text text-anchor="start" x="157.56" y="-815" font-family="Arial" font-size="14.00" fill="#666666">[nvarchar(100)]</text>
<text text-anchor="start" x="252.49" y="-815" font-family="Arial" font-size="14.00"> Indicates the user who has executed last update</text>
<polygon fill="none" stroke="black" points="43.2,-772 43.2,-802.8 656.37,-802.8 656.37,-772 43.2,-772"/>
<text text-anchor="start" x="50.2" y="-784.2" font-family="Arial" font-size="14.00">UPDATE_CLIENT </text>
<text text-anchor="start" x="168.45" y="-784.2" font-family="Arial" font-size="14.00" fill="#666666">[nvarchar(50)]</text>
<text text-anchor="start" x="255.59" y="-784.2" font-family="Arial" font-size="14.00"> Indicates the IP address from which was executed last update</text>
<polygon fill="none" stroke="black" points="43.2,-741.2 43.2,-772 656.37,-772 656.37,-741.2 43.2,-741.2"/>
<text text-anchor="start" x="50.2" y="-753.4" font-family="Arial" font-size="14.00">UPDATE_COUNT </text>
<text text-anchor="start" x="168.43" y="-753.4" font-family="Arial" font-size="14.00" fill="#666666">[int]</text>
<text text-anchor="start" x="191" y="-753.4" font-family="Arial" font-size="14.00"> Indicates how many update was executed since its creation</text>
</g>
<!-- TF_NAV_PRO_CFGS_QUI_ACTIONS&#45;&gt;TF_QUICK_ACTIONS -->
<g id="edge1" class="edge">
<title>TF_NAV_PRO_CFGS_QUI_ACTIONS:QUICK_ACTIONS_ID&#45;&gt;TF_QUICK_ACTIONS:ID</title>
<path fill="none" stroke="black" d="M666.43,-1059.88C713.53,-1008.44 707.73,-554.4 654.25,-554.4"/>
<polygon fill="black" stroke="black" points="666.53,-1059.82 655.59,-1060.46 661.8,-1062.29 657.96,-1064.29 657.96,-1064.29 657.96,-1064.29 661.8,-1062.29 659.75,-1068.44 666.53,-1059.82"/>
</g>
</g>
</svg>
