<?xml version="1.0" encoding="UTF-8" standalone="no"?>
<!DOCTYPE svg PUBLIC "-//W3C//DTD SVG 1.1//EN"
 "http://www.w3.org/Graphics/SVG/1.1/DTD/svg11.dtd">
<!-- Generated by graphviz version 12.1.2 (20240928.0832)
 -->
<!-- Title: TF_SDL_CHUNKS Pages: 1 -->
<svg width="718pt" height="1793pt"
 viewBox="0.00 0.00 717.77 1793.20" xmlns="http://www.w3.org/2000/svg" xmlns:xlink="http://www.w3.org/1999/xlink">
<g id="graph0" class="graph" transform="scale(1 1) rotate(0) translate(4 1789.2)">
<title>TF_SDL_CHUNKS</title>
<polygon fill="white" stroke="none" points="-4,4 -4,-1789.2 713.77,-1789.2 713.77,4 -4,4"/>
<!-- TF_SDL_CHUNKS -->
<g id="node1" class="node">
<title>TF_SDL_CHUNKS</title>
<polygon fill="#efefef" stroke="none" points="46.2,-1693 46.2,-1739 653.14,-1739 653.14,-1693 46.2,-1693"/>
<polygon fill="none" stroke="black" points="46.2,-1693 46.2,-1739 653.14,-1739 653.14,-1693 46.2,-1693"/>
<text text-anchor="start" x="211.58" y="-1716.8" font-family="Arial Bold" font-size="18.00">TF_SDL_CHUNKS</text>
<text text-anchor="start" x="358.6" y="-1716.8" font-family="Arial" font-size="14.00">    </text>
<text text-anchor="start" x="389.72" y="-1716.8" font-family="Arial" font-size="14.00" fill="#666666">[BASIC TABLE]</text>
<text text-anchor="start" x="252.79" y="-1702.4" font-family="Arial" font-size="14.00" fill="#333333">SDL Chunks &#45; The chunk detail</text>
<polygon fill="none" stroke="black" points="46.2,-1662.2 46.2,-1693 653.14,-1693 653.14,-1662.2 46.2,-1662.2"/>
<text text-anchor="start" x="53.2" y="-1674.4" font-family="Arial" font-size="14.00">ID </text>
<text text-anchor="start" x="71.09" y="-1674.4" font-family="Arial" font-size="14.00" fill="#666666">[bigint]</text>
<text text-anchor="start" x="112.34" y="-1674.4" font-family="Arial" font-size="14.00"> Indicates the unique identifier</text>
<polygon fill="none" stroke="black" points="46.2,-1631.4 46.2,-1662.2 653.14,-1662.2 653.14,-1631.4 46.2,-1631.4"/>
<text text-anchor="start" x="53.2" y="-1643.6" font-family="Arial" font-size="14.00">SDL_EXECUTION_ID </text>
<text text-anchor="start" x="195.57" y="-1643.6" font-family="Arial" font-size="14.00" fill="#666666">[bigint]</text>
<polygon fill="none" stroke="black" points="46.2,-1600.6 46.2,-1631.4 653.14,-1631.4 653.14,-1600.6 46.2,-1600.6"/>
<text text-anchor="start" x="53.2" y="-1612.8" font-family="Arial" font-size="14.00">CHUNK_NUMBER </text>
<text text-anchor="start" x="175.32" y="-1612.8" font-family="Arial" font-size="14.00" fill="#666666">[int]</text>
<polygon fill="none" stroke="black" points="46.2,-1569.8 46.2,-1600.6 653.14,-1600.6 653.14,-1569.8 46.2,-1569.8"/>
<text text-anchor="start" x="53.2" y="-1582" font-family="Arial" font-size="14.00">DESCRIPTION </text>
<text text-anchor="start" x="152.77" y="-1582" font-family="Arial" font-size="14.00" fill="#666666">[nvarchar(2000)]</text>
<polygon fill="none" stroke="black" points="46.2,-1539 46.2,-1569.8 653.14,-1569.8 653.14,-1539 46.2,-1539"/>
<text text-anchor="start" x="53.2" y="-1551.2" font-family="Arial" font-size="14.00">ROW_INDEX </text>
<text text-anchor="start" x="141.88" y="-1551.2" font-family="Arial" font-size="14.00" fill="#666666">[int]</text>
<polygon fill="none" stroke="black" points="46.2,-1508.2 46.2,-1539 653.14,-1539 653.14,-1508.2 46.2,-1508.2"/>
<text text-anchor="start" x="53.2" y="-1520.4" font-family="Arial" font-size="14.00">CHUNK_ROWS </text>
<text text-anchor="start" x="158.21" y="-1520.4" font-family="Arial" font-size="14.00" fill="#666666">[int]</text>
<polygon fill="none" stroke="black" points="46.2,-1477.4 46.2,-1508.2 653.14,-1508.2 653.14,-1477.4 46.2,-1477.4"/>
<text text-anchor="start" x="53.2" y="-1489.6" font-family="Arial" font-size="14.00">PROCESS_DATE </text>
<text text-anchor="start" x="170.68" y="-1489.6" font-family="Arial" font-size="14.00" fill="#666666">[datetime]</text>
<polygon fill="none" stroke="black" points="46.2,-1446.6 46.2,-1477.4 653.14,-1477.4 653.14,-1446.6 46.2,-1446.6"/>
<text text-anchor="start" x="53.2" y="-1458.8" font-family="Arial" font-size="14.00">PROCESS_STATE </text>
<text text-anchor="start" x="178.45" y="-1458.8" font-family="Arial" font-size="14.00" fill="#666666">[int]</text>
<polygon fill="none" stroke="black" points="46.2,-1415.8 46.2,-1446.6 653.14,-1446.6 653.14,-1415.8 46.2,-1415.8"/>
<text text-anchor="start" x="53.2" y="-1428" font-family="Arial" font-size="14.00">CHUNK </text>
<text text-anchor="start" x="106.87" y="-1428" font-family="Arial" font-size="14.00" fill="#666666">[varbinary(MAX)]</text>
<polygon fill="none" stroke="black" points="46.2,-1385 46.2,-1415.8 653.14,-1415.8 653.14,-1385 46.2,-1385"/>
<text text-anchor="start" x="53.2" y="-1397.2" font-family="Arial" font-size="14.00">CHUNK </text>
<text text-anchor="start" x="106.87" y="-1397.2" font-family="Arial" font-size="14.00" fill="#666666">[vector]</text>
<polygon fill="none" stroke="black" points="46.2,-1354.2 46.2,-1385 653.14,-1385 653.14,-1354.2 46.2,-1354.2"/>
<text text-anchor="start" x="53.2" y="-1366.4" font-family="Arial" font-size="14.00">INSERT_TIME </text>
<text text-anchor="start" x="149.66" y="-1366.4" font-family="Arial" font-size="14.00" fill="#666666">[datetime2]</text>
<text text-anchor="start" x="218.92" y="-1366.4" font-family="Arial" font-size="14.00"> Indicates the date and time of creation</text>
<polygon fill="none" stroke="black" points="46.2,-1323.4 46.2,-1354.2 653.14,-1354.2 653.14,-1323.4 46.2,-1323.4"/>
<text text-anchor="start" x="53.2" y="-1335.6" font-family="Arial" font-size="14.00">INSERT_USER </text>
<text text-anchor="start" x="155.11" y="-1335.6" font-family="Arial" font-size="14.00" fill="#666666">[nvarchar(100)]</text>
<text text-anchor="start" x="250.04" y="-1335.6" font-family="Arial" font-size="14.00"> Indicates the user who has created it</text>
<polygon fill="none" stroke="black" points="46.2,-1292.6 46.2,-1323.4 653.14,-1323.4 653.14,-1292.6 46.2,-1292.6"/>
<text text-anchor="start" x="53.2" y="-1304.8" font-family="Arial" font-size="14.00">INSERT_CLIENT </text>
<text text-anchor="start" x="166" y="-1304.8" font-family="Arial" font-size="14.00" fill="#666666">[nvarchar(50)]</text>
<text text-anchor="start" x="253.14" y="-1304.8" font-family="Arial" font-size="14.00"> Indicates the IP address from which it was created</text>
<polygon fill="none" stroke="black" points="46.2,-1261.8 46.2,-1292.6 653.14,-1292.6 653.14,-1261.8 46.2,-1261.8"/>
<text text-anchor="start" x="53.2" y="-1274" font-family="Arial" font-size="14.00">UPDATE_TIME </text>
<text text-anchor="start" x="155.1" y="-1274" font-family="Arial" font-size="14.00" fill="#666666">[datetime2]</text>
<text text-anchor="start" x="224.37" y="-1274" font-family="Arial" font-size="14.00"> Indicates the date and time of last update operation</text>
<polygon fill="none" stroke="black" points="46.2,-1231 46.2,-1261.8 653.14,-1261.8 653.14,-1231 46.2,-1231"/>
<text text-anchor="start" x="53.2" y="-1243.2" font-family="Arial" font-size="14.00">UPDATE_USER </text>
<text text-anchor="start" x="160.56" y="-1243.2" font-family="Arial" font-size="14.00" fill="#666666">[nvarchar(100)]</text>
<text text-anchor="start" x="255.49" y="-1243.2" font-family="Arial" font-size="14.00"> Indicates the user who has executed last update</text>
<polygon fill="none" stroke="black" points="46.2,-1200.2 46.2,-1231 653.14,-1231 653.14,-1200.2 46.2,-1200.2"/>
<text text-anchor="start" x="53.2" y="-1212.4" font-family="Arial" font-size="14.00">UPDATE_CLIENT </text>
<text text-anchor="start" x="171.45" y="-1212.4" font-family="Arial" font-size="14.00" fill="#666666">[nvarchar(50)]</text>
<text text-anchor="start" x="258.59" y="-1212.4" font-family="Arial" font-size="14.00"> Indicates the IP address from which was executed last update</text>
<polygon fill="none" stroke="black" points="46.2,-1169.4 46.2,-1200.2 653.14,-1200.2 653.14,-1169.4 46.2,-1169.4"/>
<text text-anchor="start" x="53.2" y="-1181.6" font-family="Arial" font-size="14.00">UPDATE_COUNT </text>
<text text-anchor="start" x="171.43" y="-1181.6" font-family="Arial" font-size="14.00" fill="#666666">[int]</text>
<text text-anchor="start" x="194" y="-1181.6" font-family="Arial" font-size="14.00"> Indicates how many update was executed since its creation</text>
<polygon fill="none" stroke="black" stroke-width="3" points="44.7,-1167.9 44.7,-1740.5 654.64,-1740.5 654.64,-1167.9 44.7,-1167.9"/>
</g>
<!-- TF_SDL_EXECUTIONS -->
<g id="node2" class="node">
<title>TF_SDL_EXECUTIONS</title>
<polygon fill="#efefef" stroke="none" points="46.2,-998 46.2,-1044 653.14,-1044 653.14,-998 46.2,-998"/>
<polygon fill="none" stroke="black" points="46.2,-998 46.2,-1044 653.14,-1044 653.14,-998 46.2,-998"/>
<text text-anchor="start" x="192.09" y="-1021.8" font-family="Arial Bold" font-size="18.00">TF_SDL_EXECUTIONS</text>
<text text-anchor="start" x="378.09" y="-1021.8" font-family="Arial" font-size="14.00">    </text>
<text text-anchor="start" x="409.21" y="-1021.8" font-family="Arial" font-size="14.00" fill="#666666">[BASIC TABLE]</text>
<text text-anchor="start" x="221.66" y="-1007.4" font-family="Arial" font-size="14.00" fill="#333333">Duration &#45; Duration of session in seconds</text>
<polygon fill="none" stroke="black" points="46.2,-967.2 46.2,-998 653.14,-998 653.14,-967.2 46.2,-967.2"/>
<text text-anchor="start" x="53.2" y="-979.4" font-family="Arial" font-size="14.00">ID </text>
<text text-anchor="start" x="71.09" y="-979.4" font-family="Arial" font-size="14.00" fill="#666666">[bigint]</text>
<text text-anchor="start" x="112.34" y="-979.4" font-family="Arial" font-size="14.00"> Indicates the unique identifier</text>
<polygon fill="none" stroke="black" points="46.2,-936.4 46.2,-967.2 653.14,-967.2 653.14,-936.4 46.2,-936.4"/>
<text text-anchor="start" x="53.2" y="-948.6" font-family="Arial" font-size="14.00">DATA_LOADER_ID </text>
<text text-anchor="start" x="181.57" y="-948.6" font-family="Arial" font-size="14.00" fill="#666666">[bigint]</text>
<polygon fill="none" stroke="black" points="46.2,-905.6 46.2,-936.4 653.14,-936.4 653.14,-905.6 46.2,-905.6"/>
<text text-anchor="start" x="53.2" y="-917.8" font-family="Arial" font-size="14.00">BATCH_INSTANCE_ID </text>
<text text-anchor="start" x="204.9" y="-917.8" font-family="Arial" font-size="14.00" fill="#666666">[bigint]</text>
<polygon fill="none" stroke="black" points="46.2,-874.8 46.2,-905.6 653.14,-905.6 653.14,-874.8 46.2,-874.8"/>
<text text-anchor="start" x="53.2" y="-887" font-family="Arial" font-size="14.00">ASYNC_TASK_ID </text>
<text text-anchor="start" x="171.46" y="-887" font-family="Arial" font-size="14.00" fill="#666666">[bigint]</text>
<polygon fill="none" stroke="black" points="46.2,-844 46.2,-874.8 653.14,-874.8 653.14,-844 46.2,-844"/>
<text text-anchor="start" x="53.2" y="-856.2" font-family="Arial" font-size="14.00">ORIGINALDOC </text>
<text text-anchor="start" x="155.1" y="-856.2" font-family="Arial" font-size="14.00" fill="#666666">[varbinary(MAX)]</text>
<polygon fill="none" stroke="black" points="46.2,-813.2 46.2,-844 653.14,-844 653.14,-813.2 46.2,-813.2"/>
<text text-anchor="start" x="53.2" y="-825.4" font-family="Arial" font-size="14.00">ORIGINALDOC </text>
<text text-anchor="start" x="155.1" y="-825.4" font-family="Arial" font-size="14.00" fill="#666666">[vector]</text>
<polygon fill="none" stroke="black" points="46.2,-782.4 46.2,-813.2 653.14,-813.2 653.14,-782.4 46.2,-782.4"/>
<text text-anchor="start" x="53.2" y="-794.6" font-family="Arial" font-size="14.00">DISCARDEDDOC </text>
<text text-anchor="start" x="170.66" y="-794.6" font-family="Arial" font-size="14.00" fill="#666666">[varbinary(MAX)]</text>
<polygon fill="none" stroke="black" points="46.2,-751.6 46.2,-782.4 653.14,-782.4 653.14,-751.6 46.2,-751.6"/>
<text text-anchor="start" x="53.2" y="-763.8" font-family="Arial" font-size="14.00">DISCARDEDDOC </text>
<text text-anchor="start" x="170.66" y="-763.8" font-family="Arial" font-size="14.00" fill="#666666">[vector]</text>
<polygon fill="none" stroke="black" points="46.2,-720.8 46.2,-751.6 653.14,-751.6 653.14,-720.8 46.2,-720.8"/>
<text text-anchor="start" x="53.2" y="-733" font-family="Arial" font-size="14.00">VALIDATEDDOC </text>
<text text-anchor="start" x="166" y="-733" font-family="Arial" font-size="14.00" fill="#666666">[varbinary(MAX)]</text>
<polygon fill="none" stroke="black" points="46.2,-690 46.2,-720.8 653.14,-720.8 653.14,-690 46.2,-690"/>
<text text-anchor="start" x="53.2" y="-702.2" font-family="Arial" font-size="14.00">VALIDATEDDOC </text>
<text text-anchor="start" x="166" y="-702.2" font-family="Arial" font-size="14.00" fill="#666666">[vector]</text>
<polygon fill="none" stroke="black" points="46.2,-659.2 46.2,-690 653.14,-690 653.14,-659.2 46.2,-659.2"/>
<text text-anchor="start" x="53.2" y="-671.4" font-family="Arial" font-size="14.00">SCHEDULE_TYPE </text>
<text text-anchor="start" x="177.68" y="-671.4" font-family="Arial" font-size="14.00" fill="#666666">[int]</text>
<polygon fill="none" stroke="black" points="46.2,-628.4 46.2,-659.2 653.14,-659.2 653.14,-628.4 46.2,-628.4"/>
<text text-anchor="start" x="53.2" y="-640.6" font-family="Arial" font-size="14.00">START_DATE </text>
<text text-anchor="start" x="148.1" y="-640.6" font-family="Arial" font-size="14.00" fill="#666666">[datetime]</text>
<polygon fill="none" stroke="black" points="46.2,-597.6 46.2,-628.4 653.14,-628.4 653.14,-597.6 46.2,-597.6"/>
<text text-anchor="start" x="53.2" y="-609.8" font-family="Arial" font-size="14.00">USER_NAME </text>
<text text-anchor="start" x="144.22" y="-609.8" font-family="Arial" font-size="14.00" fill="#666666">[nvarchar(2000)]</text>
<polygon fill="none" stroke="black" points="46.2,-566.8 46.2,-597.6 653.14,-597.6 653.14,-566.8 46.2,-566.8"/>
<text text-anchor="start" x="53.2" y="-579" font-family="Arial" font-size="14.00">IS_EXPIRED </text>
<text text-anchor="start" x="139.57" y="-579" font-family="Arial" font-size="14.00" fill="#666666">[smallint]</text>
<polygon fill="none" stroke="black" points="46.2,-536 46.2,-566.8 653.14,-566.8 653.14,-536 46.2,-536"/>
<text text-anchor="start" x="53.2" y="-548.2" font-family="Arial" font-size="14.00">EXPIREDATE </text>
<text text-anchor="start" x="145.78" y="-548.2" font-family="Arial" font-size="14.00" fill="#666666">[datetime]</text>
<polygon fill="none" stroke="black" points="46.2,-505.2 46.2,-536 653.14,-536 653.14,-505.2 46.2,-505.2"/>
<text text-anchor="start" x="53.2" y="-517.4" font-family="Arial" font-size="14.00">PROCESS_STATE </text>
<text text-anchor="start" x="178.45" y="-517.4" font-family="Arial" font-size="14.00" fill="#666666">[int]</text>
<polygon fill="none" stroke="black" points="46.2,-474.4 46.2,-505.2 653.14,-505.2 653.14,-474.4 46.2,-474.4"/>
<text text-anchor="start" x="53.2" y="-486.6" font-family="Arial" font-size="14.00">EXECUTION_TYPE </text>
<text text-anchor="start" x="183.12" y="-486.6" font-family="Arial" font-size="14.00" fill="#666666">[int]</text>
<polygon fill="none" stroke="black" points="46.2,-443.6 46.2,-474.4 653.14,-474.4 653.14,-443.6 46.2,-443.6"/>
<text text-anchor="start" x="53.2" y="-455.8" font-family="Arial" font-size="14.00">PERSISTED_CHUNKS </text>
<text text-anchor="start" x="203.34" y="-455.8" font-family="Arial" font-size="14.00" fill="#666666">[int]</text>
<polygon fill="none" stroke="black" points="46.2,-412.8 46.2,-443.6 653.14,-443.6 653.14,-412.8 46.2,-412.8"/>
<text text-anchor="start" x="53.2" y="-425" font-family="Arial" font-size="14.00">WARNED_CHUNKS </text>
<text text-anchor="start" x="186.21" y="-425" font-family="Arial" font-size="14.00" fill="#666666">[int]</text>
<polygon fill="none" stroke="black" points="46.2,-382 46.2,-412.8 653.14,-412.8 653.14,-382 46.2,-382"/>
<text text-anchor="start" x="53.2" y="-394.2" font-family="Arial" font-size="14.00">DISCARDED_CHUNKS </text>
<text text-anchor="start" x="206.45" y="-394.2" font-family="Arial" font-size="14.00" fill="#666666">[int]</text>
<polygon fill="none" stroke="black" points="46.2,-351.2 46.2,-382 653.14,-382 653.14,-351.2 46.2,-351.2"/>
<text text-anchor="start" x="53.2" y="-363.4" font-family="Arial" font-size="14.00">VALIDATED_CHUNKS </text>
<text text-anchor="start" x="201.79" y="-363.4" font-family="Arial" font-size="14.00" fill="#666666">[int]</text>
<polygon fill="none" stroke="black" points="46.2,-320.4 46.2,-351.2 653.14,-351.2 653.14,-320.4 46.2,-320.4"/>
<text text-anchor="start" x="53.2" y="-332.6" font-family="Arial" font-size="14.00">TOTAL_CHUNKS </text>
<text text-anchor="start" x="169.11" y="-332.6" font-family="Arial" font-size="14.00" fill="#666666">[int]</text>
<polygon fill="none" stroke="black" points="46.2,-289.6 46.2,-320.4 653.14,-320.4 653.14,-289.6 46.2,-289.6"/>
<text text-anchor="start" x="53.2" y="-301.8" font-family="Arial" font-size="14.00">CHUNK_SCHEMA </text>
<text text-anchor="start" x="174.55" y="-301.8" font-family="Arial" font-size="14.00" fill="#666666">[varbinary(MAX)]</text>
<polygon fill="none" stroke="black" points="46.2,-258.8 46.2,-289.6 653.14,-289.6 653.14,-258.8 46.2,-258.8"/>
<text text-anchor="start" x="53.2" y="-271" font-family="Arial" font-size="14.00">CHUNK_SCHEMA </text>
<text text-anchor="start" x="174.55" y="-271" font-family="Arial" font-size="14.00" fill="#666666">[vector]</text>
<polygon fill="none" stroke="black" points="46.2,-228 46.2,-258.8 653.14,-258.8 653.14,-228 46.2,-228"/>
<text text-anchor="start" x="53.2" y="-240.2" font-family="Arial" font-size="14.00">INSERT_TIME </text>
<text text-anchor="start" x="149.66" y="-240.2" font-family="Arial" font-size="14.00" fill="#666666">[datetime2]</text>
<text text-anchor="start" x="218.92" y="-240.2" font-family="Arial" font-size="14.00"> Indicates the date and time of creation</text>
<polygon fill="none" stroke="black" points="46.2,-197.2 46.2,-228 653.14,-228 653.14,-197.2 46.2,-197.2"/>
<text text-anchor="start" x="53.2" y="-209.4" font-family="Arial" font-size="14.00">INSERT_USER </text>
<text text-anchor="start" x="155.11" y="-209.4" font-family="Arial" font-size="14.00" fill="#666666">[nvarchar(100)]</text>
<text text-anchor="start" x="250.04" y="-209.4" font-family="Arial" font-size="14.00"> Indicates the user who has created it</text>
<polygon fill="none" stroke="black" points="46.2,-166.4 46.2,-197.2 653.14,-197.2 653.14,-166.4 46.2,-166.4"/>
<text text-anchor="start" x="53.2" y="-178.6" font-family="Arial" font-size="14.00">INSERT_CLIENT </text>
<text text-anchor="start" x="166" y="-178.6" font-family="Arial" font-size="14.00" fill="#666666">[nvarchar(50)]</text>
<text text-anchor="start" x="253.14" y="-178.6" font-family="Arial" font-size="14.00"> Indicates the IP address from which it was created</text>
<polygon fill="none" stroke="black" points="46.2,-135.6 46.2,-166.4 653.14,-166.4 653.14,-135.6 46.2,-135.6"/>
<text text-anchor="start" x="53.2" y="-147.8" font-family="Arial" font-size="14.00">UPDATE_TIME </text>
<text text-anchor="start" x="155.1" y="-147.8" font-family="Arial" font-size="14.00" fill="#666666">[datetime2]</text>
<text text-anchor="start" x="224.37" y="-147.8" font-family="Arial" font-size="14.00"> Indicates the date and time of last update operation</text>
<polygon fill="none" stroke="black" points="46.2,-104.8 46.2,-135.6 653.14,-135.6 653.14,-104.8 46.2,-104.8"/>
<text text-anchor="start" x="53.2" y="-117" font-family="Arial" font-size="14.00">UPDATE_USER </text>
<text text-anchor="start" x="160.56" y="-117" font-family="Arial" font-size="14.00" fill="#666666">[nvarchar(100)]</text>
<text text-anchor="start" x="255.49" y="-117" font-family="Arial" font-size="14.00"> Indicates the user who has executed last update</text>
<polygon fill="none" stroke="black" points="46.2,-74 46.2,-104.8 653.14,-104.8 653.14,-74 46.2,-74"/>
<text text-anchor="start" x="53.2" y="-86.2" font-family="Arial" font-size="14.00">UPDATE_CLIENT </text>
<text text-anchor="start" x="171.45" y="-86.2" font-family="Arial" font-size="14.00" fill="#666666">[nvarchar(50)]</text>
<text text-anchor="start" x="258.59" y="-86.2" font-family="Arial" font-size="14.00"> Indicates the IP address from which was executed last update</text>
<polygon fill="none" stroke="black" points="46.2,-43.2 46.2,-74 653.14,-74 653.14,-43.2 46.2,-43.2"/>
<text text-anchor="start" x="53.2" y="-55.4" font-family="Arial" font-size="14.00">UPDATE_COUNT </text>
<text text-anchor="start" x="171.43" y="-55.4" font-family="Arial" font-size="14.00" fill="#666666">[int]</text>
<text text-anchor="start" x="194" y="-55.4" font-family="Arial" font-size="14.00"> Indicates how many update was executed since its creation</text>
</g>
<!-- TF_SDL_CHUNKS&#45;&gt;TF_SDL_EXECUTIONS -->
<g id="edge1" class="edge">
<title>TF_SDL_CHUNKS:SDL_EXECUTION_ID&#45;&gt;TF_SDL_EXECUTIONS:ID</title>
<path fill="none" stroke="black" d="M663.63,-1642.9C727.79,-1588.47 724.62,-982.6 654.14,-982.6"/>
<polygon fill="black" stroke="black" points="663.7,-1642.87 652.74,-1642.51 658.76,-1644.9 654.75,-1646.55 654.75,-1646.55 654.75,-1646.55 658.76,-1644.9 656.15,-1650.84 663.7,-1642.87"/>
</g>
</g>
</svg>
