<?xml version="1.0" encoding="UTF-8" standalone="no"?>
<!DOCTYPE svg PUBLIC "-//W3C//DTD SVG 1.1//EN"
 "http://www.w3.org/Graphics/SVG/1.1/DTD/svg11.dtd">
<!-- Generated by graphviz version 12.1.2 (20240928.0832)
 -->
<!-- Title: TF_SEC_ADV_FILTERS_PROFILE Pages: 1 -->
<svg width="2648pt" height="1547pt"
 viewBox="0.00 0.00 2647.84 1546.80" xmlns="http://www.w3.org/2000/svg" xmlns:xlink="http://www.w3.org/1999/xlink">
<g id="graph0" class="graph" transform="scale(1 1) rotate(0) translate(4 1542.8)">
<title>TF_SEC_ADV_FILTERS_PROFILE</title>
<polygon fill="white" stroke="none" points="-4,4 -4,-1542.8 2643.84,-1542.8 2643.84,4 -4,4"/>
<!-- TF_SEC_ADV_FILTERS_PROFILE -->
<g id="node1" class="node">
<title>TF_SEC_ADV_FILTERS_PROFILE</title>
<polygon fill="#efefef" stroke="none" points="1324.7,-1446.6 1324.7,-1492.6 1931.64,-1492.6 1931.64,-1446.6 1324.7,-1446.6"/>
<polygon fill="none" stroke="black" points="1324.7,-1446.6 1324.7,-1492.6 1931.64,-1492.6 1931.64,-1446.6 1324.7,-1446.6"/>
<text text-anchor="start" x="1427.08" y="-1470.4" font-family="Arial Bold" font-size="18.00">TF_SEC_ADV_FILTERS_PROFILE</text>
<text text-anchor="start" x="1700.11" y="-1470.4" font-family="Arial" font-size="14.00">    </text>
<text text-anchor="start" x="1731.23" y="-1470.4" font-family="Arial" font-size="14.00" fill="#666666">[BASIC TABLE]</text>
<text text-anchor="start" x="1419.64" y="-1456" font-family="Arial" font-size="14.00" fill="#333333">Advanced Security Profile Filters &#45; Advanced Security Profile Filters</text>
<polygon fill="none" stroke="black" points="1324.7,-1415.8 1324.7,-1446.6 1931.64,-1446.6 1931.64,-1415.8 1324.7,-1415.8"/>
<text text-anchor="start" x="1331.7" y="-1428" font-family="Arial" font-size="14.00">ID </text>
<text text-anchor="start" x="1349.59" y="-1428" font-family="Arial" font-size="14.00" fill="#666666">[bigint]</text>
<text text-anchor="start" x="1390.84" y="-1428" font-family="Arial" font-size="14.00"> Indicates the unique identifier</text>
<polygon fill="none" stroke="black" points="1324.7,-1385 1324.7,-1415.8 1931.64,-1415.8 1931.64,-1385 1324.7,-1385"/>
<text text-anchor="start" x="1331.7" y="-1397.2" font-family="Arial" font-size="14.00">PROFILE_ID </text>
<text text-anchor="start" x="1417.28" y="-1397.2" font-family="Arial" font-size="14.00" fill="#666666">[bigint]</text>
<polygon fill="none" stroke="black" points="1324.7,-1354.2 1324.7,-1385 1931.64,-1385 1931.64,-1354.2 1324.7,-1354.2"/>
<text text-anchor="start" x="1331.7" y="-1366.4" font-family="Arial" font-size="14.00">TARGET_ENTITY_ID </text>
<text text-anchor="start" x="1471.72" y="-1366.4" font-family="Arial" font-size="14.00" fill="#666666">[char]</text>
<polygon fill="none" stroke="black" points="1324.7,-1323.4 1324.7,-1354.2 1931.64,-1354.2 1931.64,-1323.4 1324.7,-1323.4"/>
<text text-anchor="start" x="1331.7" y="-1335.6" font-family="Arial" font-size="14.00">SQL_STATEMENT </text>
<text text-anchor="start" x="1456.17" y="-1335.6" font-family="Arial" font-size="14.00" fill="#666666">[nvarchar(MAX)]</text>
<polygon fill="none" stroke="black" points="1324.7,-1292.6 1324.7,-1323.4 1931.64,-1323.4 1931.64,-1292.6 1324.7,-1292.6"/>
<text text-anchor="start" x="1331.7" y="-1304.8" font-family="Arial" font-size="14.00">RULE_ID </text>
<text text-anchor="start" x="1394.72" y="-1304.8" font-family="Arial" font-size="14.00" fill="#666666">[bigint]</text>
<polygon fill="none" stroke="black" points="1324.7,-1261.8 1324.7,-1292.6 1931.64,-1292.6 1931.64,-1261.8 1324.7,-1261.8"/>
<text text-anchor="start" x="1331.7" y="-1274" font-family="Arial" font-size="14.00">DEPENDENCIES </text>
<text text-anchor="start" x="1446.06" y="-1274" font-family="Arial" font-size="14.00" fill="#666666">[nvarchar(1000)]</text>
<polygon fill="none" stroke="black" points="1324.7,-1231 1324.7,-1261.8 1931.64,-1261.8 1931.64,-1231 1324.7,-1231"/>
<text text-anchor="start" x="1331.7" y="-1243.2" font-family="Arial" font-size="14.00">EXECUTE_ALWAYS </text>
<text text-anchor="start" x="1467.85" y="-1243.2" font-family="Arial" font-size="14.00" fill="#666666">[smallint]</text>
<polygon fill="none" stroke="black" points="1324.7,-1200.2 1324.7,-1231 1931.64,-1231 1931.64,-1200.2 1324.7,-1200.2"/>
<text text-anchor="start" x="1331.7" y="-1212.4" font-family="Arial" font-size="14.00">OVERRIDES_SECURITY </text>
<text text-anchor="start" x="1496.62" y="-1212.4" font-family="Arial" font-size="14.00" fill="#666666">[smallint]</text>
<polygon fill="none" stroke="black" points="1324.7,-1169.4 1324.7,-1200.2 1931.64,-1200.2 1931.64,-1169.4 1324.7,-1169.4"/>
<text text-anchor="start" x="1331.7" y="-1181.6" font-family="Arial" font-size="14.00">IS_ENABLED </text>
<text text-anchor="start" x="1421.96" y="-1181.6" font-family="Arial" font-size="14.00" fill="#666666">[smallint]</text>
<polygon fill="none" stroke="black" points="1324.7,-1138.6 1324.7,-1169.4 1931.64,-1169.4 1931.64,-1138.6 1324.7,-1138.6"/>
<text text-anchor="start" x="1331.7" y="-1150.8" font-family="Arial" font-size="14.00">INSERT_TIME </text>
<text text-anchor="start" x="1428.16" y="-1150.8" font-family="Arial" font-size="14.00" fill="#666666">[datetime2]</text>
<text text-anchor="start" x="1497.42" y="-1150.8" font-family="Arial" font-size="14.00"> Indicates the date and time of creation</text>
<polygon fill="none" stroke="black" points="1324.7,-1107.8 1324.7,-1138.6 1931.64,-1138.6 1931.64,-1107.8 1324.7,-1107.8"/>
<text text-anchor="start" x="1331.7" y="-1120" font-family="Arial" font-size="14.00">INSERT_USER </text>
<text text-anchor="start" x="1433.61" y="-1120" font-family="Arial" font-size="14.00" fill="#666666">[nvarchar(100)]</text>
<text text-anchor="start" x="1528.54" y="-1120" font-family="Arial" font-size="14.00"> Indicates the user who has created it</text>
<polygon fill="none" stroke="black" points="1324.7,-1077 1324.7,-1107.8 1931.64,-1107.8 1931.64,-1077 1324.7,-1077"/>
<text text-anchor="start" x="1331.7" y="-1089.2" font-family="Arial" font-size="14.00">INSERT_CLIENT </text>
<text text-anchor="start" x="1444.5" y="-1089.2" font-family="Arial" font-size="14.00" fill="#666666">[nvarchar(50)]</text>
<text text-anchor="start" x="1531.64" y="-1089.2" font-family="Arial" font-size="14.00"> Indicates the IP address from which it was created</text>
<polygon fill="none" stroke="black" points="1324.7,-1046.2 1324.7,-1077 1931.64,-1077 1931.64,-1046.2 1324.7,-1046.2"/>
<text text-anchor="start" x="1331.7" y="-1058.4" font-family="Arial" font-size="14.00">UPDATE_TIME </text>
<text text-anchor="start" x="1433.6" y="-1058.4" font-family="Arial" font-size="14.00" fill="#666666">[datetime2]</text>
<text text-anchor="start" x="1502.87" y="-1058.4" font-family="Arial" font-size="14.00"> Indicates the date and time of last update operation</text>
<polygon fill="none" stroke="black" points="1324.7,-1015.4 1324.7,-1046.2 1931.64,-1046.2 1931.64,-1015.4 1324.7,-1015.4"/>
<text text-anchor="start" x="1331.7" y="-1027.6" font-family="Arial" font-size="14.00">UPDATE_USER </text>
<text text-anchor="start" x="1439.06" y="-1027.6" font-family="Arial" font-size="14.00" fill="#666666">[nvarchar(100)]</text>
<text text-anchor="start" x="1533.99" y="-1027.6" font-family="Arial" font-size="14.00"> Indicates the user who has executed last update</text>
<polygon fill="none" stroke="black" points="1324.7,-984.6 1324.7,-1015.4 1931.64,-1015.4 1931.64,-984.6 1324.7,-984.6"/>
<text text-anchor="start" x="1331.7" y="-996.8" font-family="Arial" font-size="14.00">UPDATE_CLIENT </text>
<text text-anchor="start" x="1449.95" y="-996.8" font-family="Arial" font-size="14.00" fill="#666666">[nvarchar(50)]</text>
<text text-anchor="start" x="1537.09" y="-996.8" font-family="Arial" font-size="14.00"> Indicates the IP address from which was executed last update</text>
<polygon fill="none" stroke="black" points="1324.7,-953.8 1324.7,-984.6 1931.64,-984.6 1931.64,-953.8 1324.7,-953.8"/>
<text text-anchor="start" x="1331.7" y="-966" font-family="Arial" font-size="14.00">UPDATE_COUNT </text>
<text text-anchor="start" x="1449.93" y="-966" font-family="Arial" font-size="14.00" fill="#666666">[int]</text>
<text text-anchor="start" x="1472.5" y="-966" font-family="Arial" font-size="14.00"> Indicates how many update was executed since its creation</text>
<polygon fill="none" stroke="black" stroke-width="3" points="1323.2,-952.3 1323.2,-1494.1 1933.14,-1494.1 1933.14,-952.3 1323.2,-952.3"/>
</g>
<!-- TF_PROFILE_CATALOG -->
<g id="node2" class="node">
<title>TF_PROFILE_CATALOG</title>
<polygon fill="#efefef" stroke="none" points="43.2,-782.4 43.2,-828.4 1885.14,-828.4 1885.14,-782.4 43.2,-782.4"/>
<polygon fill="none" stroke="black" points="43.2,-782.4 43.2,-828.4 1885.14,-828.4 1885.14,-782.4 43.2,-782.4"/>
<text text-anchor="start" x="800.59" y="-806.2" font-family="Arial Bold" font-size="18.00">TF_PROFILE_CATALOG</text>
<text text-anchor="start" x="998.6" y="-806.2" font-family="Arial" font-size="14.00">    </text>
<text text-anchor="start" x="1029.71" y="-806.2" font-family="Arial" font-size="14.00" fill="#666666">[BASIC TABLE]</text>
<text text-anchor="start" x="833.85" y="-791.8" font-family="Arial" font-size="14.00" fill="#333333">Profile catalog &#45; TF_PROFILE_CATALOG</text>
<polygon fill="none" stroke="black" points="43.2,-751.6 43.2,-782.4 1885.14,-782.4 1885.14,-751.6 43.2,-751.6"/>
<text text-anchor="start" x="50.2" y="-763.8" font-family="Arial" font-size="14.00">ID </text>
<text text-anchor="start" x="68.09" y="-763.8" font-family="Arial" font-size="14.00" fill="#666666">[bigint]</text>
<text text-anchor="start" x="109.34" y="-763.8" font-family="Arial" font-size="14.00"> Indicates the unique identifier</text>
<polygon fill="none" stroke="black" points="43.2,-720.8 43.2,-751.6 1885.14,-751.6 1885.14,-720.8 43.2,-720.8"/>
<text text-anchor="start" x="50.2" y="-733" font-family="Arial" font-size="14.00">ROLE_ID </text>
<text text-anchor="start" x="114" y="-733" font-family="Arial" font-size="14.00" fill="#666666">[bigint]</text>
<polygon fill="none" stroke="black" points="43.2,-690 43.2,-720.8 1885.14,-720.8 1885.14,-690 43.2,-690"/>
<text text-anchor="start" x="50.2" y="-702.2" font-family="Arial" font-size="14.00">FILTER_ID </text>
<text text-anchor="start" x="124.1" y="-702.2" font-family="Arial" font-size="14.00" fill="#666666">[bigint]</text>
<polygon fill="none" stroke="black" points="43.2,-659.2 43.2,-690 1885.14,-690 1885.14,-659.2 43.2,-659.2"/>
<text text-anchor="start" x="50.2" y="-671.4" font-family="Arial" font-size="14.00">NAME </text>
<text text-anchor="start" x="94.54" y="-671.4" font-family="Arial" font-size="14.00" fill="#666666">[nvarchar(250)]</text>
<text text-anchor="start" x="189.47" y="-671.4" font-family="Arial" font-size="14.00"> Profile Catalogue</text>
<polygon fill="none" stroke="black" points="43.2,-628.4 43.2,-659.2 1885.14,-659.2 1885.14,-628.4 43.2,-628.4"/>
<text text-anchor="start" x="50.2" y="-640.6" font-family="Arial" font-size="14.00">CODE </text>
<text text-anchor="start" x="94.54" y="-640.6" font-family="Arial" font-size="14.00" fill="#666666">[nvarchar(200)]</text>
<text text-anchor="start" x="189.47" y="-640.6" font-family="Arial" font-size="14.00"> The code of Profile Catalog</text>
<polygon fill="none" stroke="black" points="43.2,-597.6 43.2,-628.4 1885.14,-628.4 1885.14,-597.6 43.2,-597.6"/>
<text text-anchor="start" x="50.2" y="-609.8" font-family="Arial" font-size="14.00">ALTERNATIVE_SECURITY_SYSTEM </text>
<text text-anchor="start" x="293.7" y="-609.8" font-family="Arial" font-size="14.00" fill="#666666">[smallint]</text>
<polygon fill="none" stroke="black" points="43.2,-566.8 43.2,-597.6 1885.14,-597.6 1885.14,-566.8 43.2,-566.8"/>
<text text-anchor="start" x="50.2" y="-579" font-family="Arial" font-size="14.00">DESCRIPTION </text>
<text text-anchor="start" x="149.77" y="-579" font-family="Arial" font-size="14.00" fill="#666666">[nvarchar(2000)]</text>
<polygon fill="none" stroke="black" points="43.2,-536 43.2,-566.8 1885.14,-566.8 1885.14,-536 43.2,-536"/>
<text text-anchor="start" x="50.2" y="-548.2" font-family="Arial" font-size="14.00">PROFILE_TYPE </text>
<text text-anchor="start" x="158.34" y="-548.2" font-family="Arial" font-size="14.00" fill="#666666">[bigint]</text>
<polygon fill="none" stroke="black" points="43.2,-505.2 43.2,-536 1885.14,-536 1885.14,-505.2 43.2,-505.2"/>
<text text-anchor="start" x="50.2" y="-517.4" font-family="Arial" font-size="14.00">IS_CUSTOM </text>
<text text-anchor="start" x="135.77" y="-517.4" font-family="Arial" font-size="14.00" fill="#666666">[smallint]</text>
<polygon fill="none" stroke="black" points="43.2,-474.4 43.2,-505.2 1885.14,-505.2 1885.14,-474.4 43.2,-474.4"/>
<text text-anchor="start" x="50.2" y="-486.6" font-family="Arial" font-size="14.00">IS_USER_ADMIN </text>
<text text-anchor="start" x="166.9" y="-486.6" font-family="Arial" font-size="14.00" fill="#666666">[smallint]</text>
<polygon fill="none" stroke="black" points="43.2,-443.6 43.2,-474.4 1885.14,-474.4 1885.14,-443.6 43.2,-443.6"/>
<text text-anchor="start" x="50.2" y="-455.8" font-family="Arial" font-size="14.00">UPDATE_STATUS </text>
<text text-anchor="start" x="173.89" y="-455.8" font-family="Arial" font-size="14.00" fill="#666666">[bigint]</text>
<polygon fill="none" stroke="black" points="43.2,-412.8 43.2,-443.6 1885.14,-443.6 1885.14,-412.8 43.2,-412.8"/>
<text text-anchor="start" x="50.2" y="-425" font-family="Arial" font-size="14.00">LATEST_PROCESS_TIME </text>
<text text-anchor="start" x="224.47" y="-425" font-family="Arial" font-size="14.00" fill="#666666">[datetime2]</text>
<polygon fill="none" stroke="black" points="43.2,-382 43.2,-412.8 1885.14,-412.8 1885.14,-382 43.2,-382"/>
<text text-anchor="start" x="50.2" y="-394.2" font-family="Arial" font-size="14.00">TASK_ID </text>
<text text-anchor="start" x="112.44" y="-394.2" font-family="Arial" font-size="14.00" fill="#666666">[bigint]</text>
<polygon fill="none" stroke="black" points="43.2,-351.2 43.2,-382 1885.14,-382 1885.14,-351.2 43.2,-351.2"/>
<text text-anchor="start" x="50.2" y="-363.4" font-family="Arial" font-size="14.00">IS_ENABLED </text>
<text text-anchor="start" x="140.46" y="-363.4" font-family="Arial" font-size="14.00" fill="#666666">[smallint]</text>
<polygon fill="none" stroke="black" points="43.2,-320.4 43.2,-351.2 1885.14,-351.2 1885.14,-320.4 43.2,-320.4"/>
<text text-anchor="start" x="50.2" y="-332.6" font-family="Arial" font-size="14.00">IS_PROXY_FILTERED </text>
<text text-anchor="start" x="199.58" y="-332.6" font-family="Arial" font-size="14.00" fill="#666666">[smallint]</text>
<text text-anchor="start" x="254.81" y="-332.6" font-family="Arial" font-size="14.00"> When turned off, users in this profile who are also eligible to use the Proxy feature can impersonate any active user. When turned on, users in this profile who are also eligible to use the Proxy feature can only impersonate active users included in the specified set</text>
<polygon fill="none" stroke="black" points="43.2,-289.6 43.2,-320.4 1885.14,-320.4 1885.14,-289.6 43.2,-289.6"/>
<text text-anchor="start" x="50.2" y="-301.8" font-family="Arial" font-size="14.00">PROXY_ENTITYSET_ID </text>
<text text-anchor="start" x="209.68" y="-301.8" font-family="Arial" font-size="14.00" fill="#666666">[bigint]</text>
<text text-anchor="start" x="250.93" y="-301.8" font-family="Arial" font-size="14.00"> A set used to limit the list of users that is possible to impersonate using the proxy logon feature.</text>
<polygon fill="none" stroke="black" points="43.2,-258.8 43.2,-289.6 1885.14,-289.6 1885.14,-258.8 43.2,-258.8"/>
<text text-anchor="start" x="50.2" y="-271" font-family="Arial" font-size="14.00">IS_EXCLUDEFROMAUTOASSIGNMNT </text>
<text text-anchor="start" x="304.57" y="-271" font-family="Arial" font-size="14.00" fill="#666666">[smallint]</text>
<text text-anchor="start" x="359.8" y="-271" font-family="Arial" font-size="14.00"> This profile is exclude from automatical assignment of default profiles.</text>
<polygon fill="none" stroke="black" points="43.2,-228 43.2,-258.8 1885.14,-258.8 1885.14,-228 43.2,-228"/>
<text text-anchor="start" x="50.2" y="-240.2" font-family="Arial" font-size="14.00">INSERT_TIME </text>
<text text-anchor="start" x="146.66" y="-240.2" font-family="Arial" font-size="14.00" fill="#666666">[datetime2]</text>
<text text-anchor="start" x="215.92" y="-240.2" font-family="Arial" font-size="14.00"> Indicates the date and time of creation</text>
<polygon fill="none" stroke="black" points="43.2,-197.2 43.2,-228 1885.14,-228 1885.14,-197.2 43.2,-197.2"/>
<text text-anchor="start" x="50.2" y="-209.4" font-family="Arial" font-size="14.00">INSERT_USER </text>
<text text-anchor="start" x="152.11" y="-209.4" font-family="Arial" font-size="14.00" fill="#666666">[nvarchar(100)]</text>
<text text-anchor="start" x="247.04" y="-209.4" font-family="Arial" font-size="14.00"> Indicates the user who has created it</text>
<polygon fill="none" stroke="black" points="43.2,-166.4 43.2,-197.2 1885.14,-197.2 1885.14,-166.4 43.2,-166.4"/>
<text text-anchor="start" x="50.2" y="-178.6" font-family="Arial" font-size="14.00">INSERT_CLIENT </text>
<text text-anchor="start" x="163" y="-178.6" font-family="Arial" font-size="14.00" fill="#666666">[nvarchar(50)]</text>
<text text-anchor="start" x="250.14" y="-178.6" font-family="Arial" font-size="14.00"> Indicates the IP address from which it was created</text>
<polygon fill="none" stroke="black" points="43.2,-135.6 43.2,-166.4 1885.14,-166.4 1885.14,-135.6 43.2,-135.6"/>
<text text-anchor="start" x="50.2" y="-147.8" font-family="Arial" font-size="14.00">UPDATE_TIME </text>
<text text-anchor="start" x="152.1" y="-147.8" font-family="Arial" font-size="14.00" fill="#666666">[datetime2]</text>
<text text-anchor="start" x="221.37" y="-147.8" font-family="Arial" font-size="14.00"> Indicates the date and time of last update operation</text>
<polygon fill="none" stroke="black" points="43.2,-104.8 43.2,-135.6 1885.14,-135.6 1885.14,-104.8 43.2,-104.8"/>
<text text-anchor="start" x="50.2" y="-117" font-family="Arial" font-size="14.00">UPDATE_USER </text>
<text text-anchor="start" x="157.56" y="-117" font-family="Arial" font-size="14.00" fill="#666666">[nvarchar(100)]</text>
<text text-anchor="start" x="252.49" y="-117" font-family="Arial" font-size="14.00"> Indicates the user who has executed last update</text>
<polygon fill="none" stroke="black" points="43.2,-74 43.2,-104.8 1885.14,-104.8 1885.14,-74 43.2,-74"/>
<text text-anchor="start" x="50.2" y="-86.2" font-family="Arial" font-size="14.00">UPDATE_CLIENT </text>
<text text-anchor="start" x="168.45" y="-86.2" font-family="Arial" font-size="14.00" fill="#666666">[nvarchar(50)]</text>
<text text-anchor="start" x="255.59" y="-86.2" font-family="Arial" font-size="14.00"> Indicates the IP address from which was executed last update</text>
<polygon fill="none" stroke="black" points="43.2,-43.2 43.2,-74 1885.14,-74 1885.14,-43.2 43.2,-43.2"/>
<text text-anchor="start" x="50.2" y="-55.4" font-family="Arial" font-size="14.00">UPDATE_COUNT </text>
<text text-anchor="start" x="168.43" y="-55.4" font-family="Arial" font-size="14.00" fill="#666666">[int]</text>
<text text-anchor="start" x="191" y="-55.4" font-family="Arial" font-size="14.00"> Indicates how many update was executed since its creation</text>
</g>
<!-- TF_SEC_ADV_FILTERS_PROFILE&#45;&gt;TF_PROFILE_CATALOG -->
<g id="edge1" class="edge">
<title>TF_SEC_ADV_FILTERS_PROFILE:PROFILE_ID&#45;&gt;TF_PROFILE_CATALOG:ID</title>
<path fill="none" stroke="black" d="M1313.34,-1400.14C1106.96,-1389.71 1177.13,-1064.64 1324.7,-907.6 1410.16,-816.66 1799.33,-962.22 1885.14,-871.6 1917.1,-837.84 1932.63,-767 1886.14,-767"/>
<polygon fill="black" stroke="black" points="1313.37,-1400.14 1323.25,-1404.89 1318.7,-1400.28 1323.03,-1400.38 1323.03,-1400.38 1323.03,-1400.38 1318.7,-1400.28 1323.48,-1395.89 1313.37,-1400.14"/>
</g>
<!-- TF_SECRULE_CATALOG -->
<g id="node3" class="node">
<title>TF_SECRULE_CATALOG</title>
<polygon fill="#efefef" stroke="none" points="1989.7,-643.8 1989.7,-689.8 2596.64,-689.8 2596.64,-643.8 1989.7,-643.8"/>
<polygon fill="none" stroke="black" points="1989.7,-643.8 1989.7,-689.8 2596.64,-689.8 2596.64,-643.8 1989.7,-643.8"/>
<text text-anchor="start" x="2126.09" y="-667.6" font-family="Arial Bold" font-size="18.00">TF_SECRULE_CATALOG</text>
<text text-anchor="start" x="2331.1" y="-667.6" font-family="Arial" font-size="14.00">    </text>
<text text-anchor="start" x="2362.21" y="-667.6" font-family="Arial" font-size="14.00" fill="#666666">[BASIC TABLE]</text>
<text text-anchor="start" x="2151.55" y="-653.2" font-family="Arial" font-size="14.00" fill="#333333">Security Rule Catalog &#45; Security Rule Catalog</text>
<polygon fill="none" stroke="black" points="1989.7,-613 1989.7,-643.8 2596.64,-643.8 2596.64,-613 1989.7,-613"/>
<text text-anchor="start" x="1996.7" y="-625.2" font-family="Arial" font-size="14.00">ID </text>
<text text-anchor="start" x="2014.59" y="-625.2" font-family="Arial" font-size="14.00" fill="#666666">[bigint]</text>
<text text-anchor="start" x="2055.84" y="-625.2" font-family="Arial" font-size="14.00"> Indicates the unique identifier</text>
<polygon fill="none" stroke="black" points="1989.7,-582.2 1989.7,-613 2596.64,-613 2596.64,-582.2 1989.7,-582.2"/>
<text text-anchor="start" x="1996.7" y="-594.4" font-family="Arial" font-size="14.00">RULE_HANDLER </text>
<text text-anchor="start" x="2112.62" y="-594.4" font-family="Arial" font-size="14.00" fill="#666666">[nvarchar(100)]</text>
<polygon fill="none" stroke="black" points="1989.7,-551.4 1989.7,-582.2 2596.64,-582.2 2596.64,-551.4 1989.7,-551.4"/>
<text text-anchor="start" x="1996.7" y="-563.6" font-family="Arial" font-size="14.00">NAME </text>
<text text-anchor="start" x="2041.04" y="-563.6" font-family="Arial" font-size="14.00" fill="#666666">[nvarchar(100)]</text>
<polygon fill="none" stroke="black" points="1989.7,-520.6 1989.7,-551.4 2596.64,-551.4 2596.64,-520.6 1989.7,-520.6"/>
<text text-anchor="start" x="1996.7" y="-532.8" font-family="Arial" font-size="14.00">DESCRIPTION </text>
<text text-anchor="start" x="2096.27" y="-532.8" font-family="Arial" font-size="14.00" fill="#666666">[nvarchar(1000)]</text>
<polygon fill="none" stroke="black" points="1989.7,-489.8 1989.7,-520.6 2596.64,-520.6 2596.64,-489.8 1989.7,-489.8"/>
<text text-anchor="start" x="1996.7" y="-502" font-family="Arial" font-size="14.00">NAME_TEXT_ID </text>
<text text-anchor="start" x="2106.39" y="-502" font-family="Arial" font-size="14.00" fill="#666666">[bigint]</text>
<polygon fill="none" stroke="black" points="1989.7,-459 1989.7,-489.8 2596.64,-489.8 2596.64,-459 1989.7,-459"/>
<text text-anchor="start" x="1996.7" y="-471.2" font-family="Arial" font-size="14.00">DESCRIPTION_TEXT_ID </text>
<text text-anchor="start" x="2161.62" y="-471.2" font-family="Arial" font-size="14.00" fill="#666666">[bigint]</text>
<polygon fill="none" stroke="black" points="1989.7,-428.2 1989.7,-459 2596.64,-459 2596.64,-428.2 1989.7,-428.2"/>
<text text-anchor="start" x="1996.7" y="-440.4" font-family="Arial" font-size="14.00">IS_ENABLED </text>
<text text-anchor="start" x="2086.96" y="-440.4" font-family="Arial" font-size="14.00" fill="#666666">[smallint]</text>
<polygon fill="none" stroke="black" points="1989.7,-397.4 1989.7,-428.2 2596.64,-428.2 2596.64,-397.4 1989.7,-397.4"/>
<text text-anchor="start" x="1996.7" y="-409.6" font-family="Arial" font-size="14.00">IS_FACTORY </text>
<text text-anchor="start" x="2088.49" y="-409.6" font-family="Arial" font-size="14.00" fill="#666666">[smallint]</text>
<polygon fill="none" stroke="black" points="1989.7,-366.6 1989.7,-397.4 2596.64,-397.4 2596.64,-366.6 1989.7,-366.6"/>
<text text-anchor="start" x="1996.7" y="-378.8" font-family="Arial" font-size="14.00">INSERT_TIME </text>
<text text-anchor="start" x="2093.16" y="-378.8" font-family="Arial" font-size="14.00" fill="#666666">[datetime2]</text>
<text text-anchor="start" x="2162.42" y="-378.8" font-family="Arial" font-size="14.00"> Indicates the date and time of creation</text>
<polygon fill="none" stroke="black" points="1989.7,-335.8 1989.7,-366.6 2596.64,-366.6 2596.64,-335.8 1989.7,-335.8"/>
<text text-anchor="start" x="1996.7" y="-348" font-family="Arial" font-size="14.00">INSERT_USER </text>
<text text-anchor="start" x="2098.61" y="-348" font-family="Arial" font-size="14.00" fill="#666666">[nvarchar(100)]</text>
<text text-anchor="start" x="2193.54" y="-348" font-family="Arial" font-size="14.00"> Indicates the user who has created it</text>
<polygon fill="none" stroke="black" points="1989.7,-305 1989.7,-335.8 2596.64,-335.8 2596.64,-305 1989.7,-305"/>
<text text-anchor="start" x="1996.7" y="-317.2" font-family="Arial" font-size="14.00">INSERT_CLIENT </text>
<text text-anchor="start" x="2109.5" y="-317.2" font-family="Arial" font-size="14.00" fill="#666666">[nvarchar(50)]</text>
<text text-anchor="start" x="2196.64" y="-317.2" font-family="Arial" font-size="14.00"> Indicates the IP address from which it was created</text>
<polygon fill="none" stroke="black" points="1989.7,-274.2 1989.7,-305 2596.64,-305 2596.64,-274.2 1989.7,-274.2"/>
<text text-anchor="start" x="1996.7" y="-286.4" font-family="Arial" font-size="14.00">UPDATE_TIME </text>
<text text-anchor="start" x="2098.6" y="-286.4" font-family="Arial" font-size="14.00" fill="#666666">[datetime2]</text>
<text text-anchor="start" x="2167.87" y="-286.4" font-family="Arial" font-size="14.00"> Indicates the date and time of last update operation</text>
<polygon fill="none" stroke="black" points="1989.7,-243.4 1989.7,-274.2 2596.64,-274.2 2596.64,-243.4 1989.7,-243.4"/>
<text text-anchor="start" x="1996.7" y="-255.6" font-family="Arial" font-size="14.00">UPDATE_USER </text>
<text text-anchor="start" x="2104.06" y="-255.6" font-family="Arial" font-size="14.00" fill="#666666">[nvarchar(100)]</text>
<text text-anchor="start" x="2198.99" y="-255.6" font-family="Arial" font-size="14.00"> Indicates the user who has executed last update</text>
<polygon fill="none" stroke="black" points="1989.7,-212.6 1989.7,-243.4 2596.64,-243.4 2596.64,-212.6 1989.7,-212.6"/>
<text text-anchor="start" x="1996.7" y="-224.8" font-family="Arial" font-size="14.00">UPDATE_CLIENT </text>
<text text-anchor="start" x="2114.95" y="-224.8" font-family="Arial" font-size="14.00" fill="#666666">[nvarchar(50)]</text>
<text text-anchor="start" x="2202.09" y="-224.8" font-family="Arial" font-size="14.00"> Indicates the IP address from which was executed last update</text>
<polygon fill="none" stroke="black" points="1989.7,-181.8 1989.7,-212.6 2596.64,-212.6 2596.64,-181.8 1989.7,-181.8"/>
<text text-anchor="start" x="1996.7" y="-194" font-family="Arial" font-size="14.00">UPDATE_COUNT </text>
<text text-anchor="start" x="2114.93" y="-194" font-family="Arial" font-size="14.00" fill="#666666">[int]</text>
<text text-anchor="start" x="2137.5" y="-194" font-family="Arial" font-size="14.00"> Indicates how many update was executed since its creation</text>
</g>
<!-- TF_SEC_ADV_FILTERS_PROFILE&#45;&gt;TF_SECRULE_CATALOG -->
<g id="edge2" class="edge">
<title>TF_SEC_ADV_FILTERS_PROFILE:RULE_ID&#45;&gt;TF_SECRULE_CATALOG:ID</title>
<path fill="none" stroke="black" d="M1942.64,-1306.9C2072.81,-1276.52 1840.72,-628.4 1988.7,-628.4"/>
<polygon fill="black" stroke="black" points="1942.91,-1306.87 1932.48,-1303.49 1937.61,-1307.45 1933.3,-1307.93 1933.3,-1307.93 1933.3,-1307.93 1937.61,-1307.45 1933.46,-1312.44 1942.91,-1306.87"/>
</g>
</g>
</svg>
