<?xml version="1.0" encoding="UTF-8" standalone="no"?>
<!DOCTYPE svg PUBLIC "-//W3C//DTD SVG 1.1//EN"
 "http://www.w3.org/Graphics/SVG/1.1/DTD/svg11.dtd">
<!-- Generated by graphviz version 12.1.2 (20240928.0832)
 -->
<!-- Title: TF_WFRT_PROCESSES_ENTITIES Pages: 1 -->
<svg width="1800pt" height="2594pt"
 viewBox="0.00 0.00 1800.49 2594.00" xmlns="http://www.w3.org/2000/svg" xmlns:xlink="http://www.w3.org/1999/xlink">
<g id="graph0" class="graph" transform="scale(1 1) rotate(0) translate(4 2590)">
<title>TF_WFRT_PROCESSES_ENTITIES</title>
<polygon fill="white" stroke="none" points="-4,4 -4,-2590 1796.49,-2590 1796.49,4 -4,4"/>
<!-- TF_WFRT_PROCESSES_ENTITIES -->
<g id="node1" class="node">
<title>TF_WFRT_PROCESSES_ENTITIES</title>
<polygon fill="#efefef" stroke="none" points="783.23,-2493.8 783.23,-2539.8 1202.41,-2539.8 1202.41,-2493.8 783.23,-2493.8"/>
<polygon fill="none" stroke="black" points="783.23,-2493.8 783.23,-2539.8 1202.41,-2539.8 1202.41,-2493.8 783.23,-2493.8"/>
<text text-anchor="start" x="790.23" y="-2517.6" font-family="Arial Bold" font-size="18.00">TF_WFRT_PROCESSES_ENTITIES</text>
<text text-anchor="start" x="1066.26" y="-2517.6" font-family="Arial" font-size="14.00">    </text>
<text text-anchor="start" x="1097.38" y="-2517.6" font-family="Arial" font-size="14.00" fill="#666666">[BASIC TABLE]</text>
<text text-anchor="start" x="817.37" y="-2503.2" font-family="Arial" font-size="14.00" fill="#333333">Process Person &#45; Workflow runtime process person view</text>
<polygon fill="none" stroke="black" points="783.23,-2463 783.23,-2493.8 1202.41,-2493.8 1202.41,-2463 783.23,-2463"/>
<text text-anchor="start" x="790.23" y="-2475.2" font-family="Arial" font-size="14.00">ID </text>
<text text-anchor="start" x="808.12" y="-2475.2" font-family="Arial" font-size="14.00" fill="#666666">[bigint]</text>
<text text-anchor="start" x="849.37" y="-2475.2" font-family="Arial" font-size="14.00"> Indicates the unique identifier</text>
<polygon fill="none" stroke="black" points="783.23,-2432.2 783.23,-2463 1202.41,-2463 1202.41,-2432.2 783.23,-2432.2"/>
<text text-anchor="start" x="790.23" y="-2444.4" font-family="Arial" font-size="14.00">PROCESS_ID </text>
<text text-anchor="start" x="884.37" y="-2444.4" font-family="Arial" font-size="14.00" fill="#666666">[bigint]</text>
<text text-anchor="start" x="925.62" y="-2444.4" font-family="Arial" font-size="14.00"> Process</text>
<polygon fill="none" stroke="black" points="783.23,-2401.4 783.23,-2432.2 1202.41,-2432.2 1202.41,-2401.4 783.23,-2401.4"/>
<text text-anchor="start" x="790.23" y="-2413.6" font-family="Arial" font-size="14.00">INSTANCE_ID </text>
<text text-anchor="start" x="886.69" y="-2413.6" font-family="Arial" font-size="14.00" fill="#666666">[bigint]</text>
<text text-anchor="start" x="927.94" y="-2413.6" font-family="Arial" font-size="14.00"> Process Instance Id</text>
<polygon fill="none" stroke="black" points="783.23,-2370.6 783.23,-2401.4 1202.41,-2401.4 1202.41,-2370.6 783.23,-2370.6"/>
<text text-anchor="start" x="790.23" y="-2382.8" font-family="Arial" font-size="14.00">ENTITY_TYPE_ID </text>
<text text-anchor="start" x="910.04" y="-2382.8" font-family="Arial" font-size="14.00" fill="#666666">[char]</text>
<text text-anchor="start" x="945.05" y="-2382.8" font-family="Arial" font-size="14.00"> Entity Type Id</text>
<polygon fill="none" stroke="black" points="783.23,-2339.8 783.23,-2370.6 1202.41,-2370.6 1202.41,-2339.8 783.23,-2339.8"/>
<text text-anchor="start" x="790.23" y="-2352" font-family="Arial" font-size="14.00">ENTITY_TYPE_NAME </text>
<text text-anchor="start" x="936.49" y="-2352" font-family="Arial" font-size="14.00" fill="#666666">[nvarchar(100)]</text>
<text text-anchor="start" x="1031.42" y="-2352" font-family="Arial" font-size="14.00"> Entity Type</text>
<polygon fill="none" stroke="black" points="783.23,-2309 783.23,-2339.8 1202.41,-2339.8 1202.41,-2309 783.23,-2309"/>
<text text-anchor="start" x="790.23" y="-2321.2" font-family="Arial" font-size="14.00">ENTITY_ID </text>
<text text-anchor="start" x="865.69" y="-2321.2" font-family="Arial" font-size="14.00" fill="#666666">[bigint]</text>
<text text-anchor="start" x="906.93" y="-2321.2" font-family="Arial" font-size="14.00"> Indicates the entity unique identifier</text>
<polygon fill="none" stroke="black" points="783.23,-2278.2 783.23,-2309 1202.41,-2309 1202.41,-2278.2 783.23,-2278.2"/>
<text text-anchor="start" x="790.23" y="-2290.4" font-family="Arial" font-size="14.00">DESCRIPTION </text>
<text text-anchor="start" x="889.8" y="-2290.4" font-family="Arial" font-size="14.00" fill="#666666">[nvarchar(250)]</text>
<text text-anchor="start" x="984.73" y="-2290.4" font-family="Arial" font-size="14.00"> Description</text>
<polygon fill="none" stroke="black" points="783.23,-2247.4 783.23,-2278.2 1202.41,-2278.2 1202.41,-2247.4 783.23,-2247.4"/>
<text text-anchor="start" x="790.23" y="-2259.6" font-family="Arial" font-size="14.00">IS_FOCUS </text>
<text text-anchor="start" x="864.14" y="-2259.6" font-family="Arial" font-size="14.00" fill="#666666">[smallint]</text>
<text text-anchor="start" x="919.37" y="-2259.6" font-family="Arial" font-size="14.00"> Focus</text>
<polygon fill="none" stroke="black" points="783.23,-2216.6 783.23,-2247.4 1202.41,-2247.4 1202.41,-2216.6 783.23,-2216.6"/>
<text text-anchor="start" x="790.23" y="-2228.8" font-family="Arial" font-size="14.00">STATE </text>
<text text-anchor="start" x="839.24" y="-2228.8" font-family="Arial" font-size="14.00" fill="#666666">[nvarchar(100)]</text>
<polygon fill="none" stroke="black" points="783.23,-2185.8 783.23,-2216.6 1202.41,-2216.6 1202.41,-2185.8 783.23,-2185.8"/>
<text text-anchor="start" x="790.23" y="-2198" font-family="Arial" font-size="14.00">SORT_ORDER </text>
<text text-anchor="start" x="891.36" y="-2198" font-family="Arial" font-size="14.00" fill="#666666">[int]</text>
<text text-anchor="start" x="913.92" y="-2198" font-family="Arial" font-size="14.00"> Sort order</text>
<polygon fill="none" stroke="black" points="783.23,-2155 783.23,-2185.8 1202.41,-2185.8 1202.41,-2155 783.23,-2155"/>
<text text-anchor="start" x="790.23" y="-2167.2" font-family="Arial" font-size="14.00">INSERT_TIME </text>
<text text-anchor="start" x="886.69" y="-2167.2" font-family="Arial" font-size="14.00" fill="#666666">[datetime2]</text>
<polygon fill="none" stroke="black" points="783.23,-2124.2 783.23,-2155 1202.41,-2155 1202.41,-2124.2 783.23,-2124.2"/>
<text text-anchor="start" x="790.23" y="-2136.4" font-family="Arial" font-size="14.00">INSERT_USER </text>
<text text-anchor="start" x="892.14" y="-2136.4" font-family="Arial" font-size="14.00" fill="#666666">[nvarchar(100)]</text>
<polygon fill="none" stroke="black" points="783.23,-2093.4 783.23,-2124.2 1202.41,-2124.2 1202.41,-2093.4 783.23,-2093.4"/>
<text text-anchor="start" x="790.23" y="-2105.6" font-family="Arial" font-size="14.00">INSERT_CLIENT </text>
<text text-anchor="start" x="903.03" y="-2105.6" font-family="Arial" font-size="14.00" fill="#666666">[nvarchar(50)]</text>
<polygon fill="none" stroke="black" points="783.23,-2062.6 783.23,-2093.4 1202.41,-2093.4 1202.41,-2062.6 783.23,-2062.6"/>
<text text-anchor="start" x="790.23" y="-2074.8" font-family="Arial" font-size="14.00">UPDATE_TIME </text>
<text text-anchor="start" x="892.14" y="-2074.8" font-family="Arial" font-size="14.00" fill="#666666">[datetime2]</text>
<polygon fill="none" stroke="black" points="783.23,-2031.8 783.23,-2062.6 1202.41,-2062.6 1202.41,-2031.8 783.23,-2031.8"/>
<text text-anchor="start" x="790.23" y="-2044" font-family="Arial" font-size="14.00">UPDATE_USER </text>
<text text-anchor="start" x="897.59" y="-2044" font-family="Arial" font-size="14.00" fill="#666666">[nvarchar(100)]</text>
<polygon fill="none" stroke="black" points="783.23,-2001 783.23,-2031.8 1202.41,-2031.8 1202.41,-2001 783.23,-2001"/>
<text text-anchor="start" x="790.23" y="-2013.2" font-family="Arial" font-size="14.00">UPDATE_CLIENT </text>
<text text-anchor="start" x="908.48" y="-2013.2" font-family="Arial" font-size="14.00" fill="#666666">[nvarchar(50)]</text>
<polygon fill="none" stroke="black" points="783.23,-1970.2 783.23,-2001 1202.41,-2001 1202.41,-1970.2 783.23,-1970.2"/>
<text text-anchor="start" x="790.23" y="-1982.4" font-family="Arial" font-size="14.00">UPDATE_COUNT </text>
<text text-anchor="start" x="908.47" y="-1982.4" font-family="Arial" font-size="14.00" fill="#666666">[int]</text>
<polygon fill="none" stroke="black" points="783.23,-1939.4 783.23,-1970.2 1202.41,-1970.2 1202.41,-1939.4 783.23,-1939.4"/>
<text text-anchor="start" x="790.23" y="-1951.6" font-family="Arial" font-size="14.00">WORKFLOW_ID </text>
<text text-anchor="start" x="899.9" y="-1951.6" font-family="Arial" font-size="14.00" fill="#666666">[bigint]</text>
<polygon fill="none" stroke="black" stroke-width="3" points="781.73,-1937.9 781.73,-2541.3 1203.91,-2541.3 1203.91,-1937.9 781.73,-1937.9"/>
</g>
<!-- TF_WFPROCESSES -->
<g id="node2" class="node">
<title>TF_WFPROCESSES</title>
<polygon fill="#efefef" stroke="none" points="43.2,-1768 43.2,-1814 1038.44,-1814 1038.44,-1768 43.2,-1768"/>
<polygon fill="none" stroke="black" points="43.2,-1768 43.2,-1814 1038.44,-1814 1038.44,-1768 43.2,-1768"/>
<text text-anchor="start" x="398.22" y="-1791.8" font-family="Arial Bold" font-size="18.00">TF_WFPROCESSES</text>
<text text-anchor="start" x="554.27" y="-1791.8" font-family="Arial" font-size="14.00">    </text>
<text text-anchor="start" x="585.39" y="-1791.8" font-family="Arial" font-size="14.00" fill="#666666">[BASIC TABLE]</text>
<text text-anchor="start" x="421.4" y="-1777.4" font-family="Arial" font-size="14.00" fill="#333333">Processes &#45; Workflow Processes View</text>
<polygon fill="none" stroke="black" points="43.2,-1737.2 43.2,-1768 1038.44,-1768 1038.44,-1737.2 43.2,-1737.2"/>
<text text-anchor="start" x="50.2" y="-1749.4" font-family="Arial" font-size="14.00">ID </text>
<text text-anchor="start" x="68.09" y="-1749.4" font-family="Arial" font-size="14.00" fill="#666666">[bigint]</text>
<text text-anchor="start" x="109.34" y="-1749.4" font-family="Arial" font-size="14.00"> Indicates the unique identifier</text>
<polygon fill="none" stroke="black" points="43.2,-1706.4 43.2,-1737.2 1038.44,-1737.2 1038.44,-1706.4 43.2,-1706.4"/>
<text text-anchor="start" x="50.2" y="-1718.6" font-family="Arial" font-size="14.00">TYPE_ID </text>
<text text-anchor="start" x="112.44" y="-1718.6" font-family="Arial" font-size="14.00" fill="#666666">[bigint]</text>
<text text-anchor="start" x="153.69" y="-1718.6" font-family="Arial" font-size="14.00"> Process Type</text>
<polygon fill="none" stroke="black" points="43.2,-1675.6 43.2,-1706.4 1038.44,-1706.4 1038.44,-1675.6 43.2,-1675.6"/>
<text text-anchor="start" x="50.2" y="-1687.8" font-family="Arial" font-size="14.00">LANGUAGE_ID </text>
<text text-anchor="start" x="153.68" y="-1687.8" font-family="Arial" font-size="14.00" fill="#666666">[int]</text>
<polygon fill="none" stroke="black" points="43.2,-1644.8 43.2,-1675.6 1038.44,-1675.6 1038.44,-1644.8 43.2,-1644.8"/>
<text text-anchor="start" x="50.2" y="-1657" font-family="Arial" font-size="14.00">CATEGORY_ID </text>
<text text-anchor="start" x="154.44" y="-1657" font-family="Arial" font-size="14.00" fill="#666666">[bigint]</text>
<text text-anchor="start" x="195.69" y="-1657" font-family="Arial" font-size="14.00"> Process Category</text>
<polygon fill="none" stroke="black" points="43.2,-1614 43.2,-1644.8 1038.44,-1644.8 1038.44,-1614 43.2,-1614"/>
<text text-anchor="start" x="50.2" y="-1626.2" font-family="Arial" font-size="14.00">ENTITYSET_ID </text>
<text text-anchor="start" x="152.88" y="-1626.2" font-family="Arial" font-size="14.00" fill="#666666">[bigint]</text>
<polygon fill="none" stroke="black" points="43.2,-1583.2 43.2,-1614 1038.44,-1614 1038.44,-1583.2 43.2,-1583.2"/>
<text text-anchor="start" x="50.2" y="-1595.4" font-family="Arial" font-size="14.00">FUNCTIONAL_AREA_ID </text>
<text text-anchor="start" x="211.23" y="-1595.4" font-family="Arial" font-size="14.00" fill="#666666">[bigint]</text>
<text text-anchor="start" x="252.48" y="-1595.4" font-family="Arial" font-size="14.00"> Functional Area</text>
<polygon fill="none" stroke="black" points="43.2,-1552.4 43.2,-1583.2 1038.44,-1583.2 1038.44,-1552.4 43.2,-1552.4"/>
<text text-anchor="start" x="50.2" y="-1564.6" font-family="Arial" font-size="14.00">ADMIN_USERGROUP_ID </text>
<text text-anchor="start" x="219.01" y="-1564.6" font-family="Arial" font-size="14.00" fill="#666666">[bigint]</text>
<polygon fill="none" stroke="black" points="43.2,-1521.6 43.2,-1552.4 1038.44,-1552.4 1038.44,-1521.6 43.2,-1521.6"/>
<text text-anchor="start" x="50.2" y="-1533.8" font-family="Arial" font-size="14.00">CONTEXT_TYPE_ID </text>
<text text-anchor="start" x="187.12" y="-1533.8" font-family="Arial" font-size="14.00" fill="#666666">[char]</text>
<text text-anchor="start" x="222.13" y="-1533.8" font-family="Arial" font-size="14.00"> Context Type</text>
<polygon fill="none" stroke="black" points="43.2,-1490.8 43.2,-1521.6 1038.44,-1521.6 1038.44,-1490.8 43.2,-1490.8"/>
<text text-anchor="start" x="50.2" y="-1503" font-family="Arial" font-size="14.00">CONTEXT_VALUE_ID </text>
<text text-anchor="start" x="196.46" y="-1503" font-family="Arial" font-size="14.00" fill="#666666">[char]</text>
<text text-anchor="start" x="231.48" y="-1503" font-family="Arial" font-size="14.00"> Context</text>
<polygon fill="none" stroke="black" points="43.2,-1460 43.2,-1490.8 1038.44,-1490.8 1038.44,-1460 43.2,-1460"/>
<text text-anchor="start" x="50.2" y="-1472.2" font-family="Arial" font-size="14.00">CONTEXT_LAUNCH_MODE </text>
<text text-anchor="start" x="236.12" y="-1472.2" font-family="Arial" font-size="14.00" fill="#666666">[bigint]</text>
<polygon fill="none" stroke="black" points="43.2,-1429.2 43.2,-1460 1038.44,-1460 1038.44,-1429.2 43.2,-1429.2"/>
<text text-anchor="start" x="50.2" y="-1441.4" font-family="Arial" font-size="14.00">PAGE_ID </text>
<text text-anchor="start" x="114.78" y="-1441.4" font-family="Arial" font-size="14.00" fill="#666666">[bigint]</text>
<polygon fill="none" stroke="black" points="43.2,-1398.4 43.2,-1429.2 1038.44,-1429.2 1038.44,-1398.4 43.2,-1398.4"/>
<text text-anchor="start" x="50.2" y="-1410.6" font-family="Arial" font-size="14.00">PAGE_CONFIGURATION </text>
<text text-anchor="start" x="218.22" y="-1410.6" font-family="Arial" font-size="14.00" fill="#666666">[nvarchar(1000)]</text>
<polygon fill="none" stroke="black" points="43.2,-1367.6 43.2,-1398.4 1038.44,-1398.4 1038.44,-1367.6 43.2,-1367.6"/>
<text text-anchor="start" x="50.2" y="-1379.8" font-family="Arial" font-size="14.00">FOCUS_RULE_ID </text>
<text text-anchor="start" x="170.01" y="-1379.8" font-family="Arial" font-size="14.00" fill="#666666">[bigint]</text>
<polygon fill="none" stroke="black" points="43.2,-1336.8 43.2,-1367.6 1038.44,-1367.6 1038.44,-1336.8 43.2,-1336.8"/>
<text text-anchor="start" x="50.2" y="-1349" font-family="Arial" font-size="14.00">FOCUS_RULE_PARAMETERS </text>
<text text-anchor="start" x="252.47" y="-1349" font-family="Arial" font-size="14.00" fill="#666666">[nvarchar(MAX)]</text>
<polygon fill="none" stroke="black" points="43.2,-1306 43.2,-1336.8 1038.44,-1336.8 1038.44,-1306 43.2,-1306"/>
<text text-anchor="start" x="50.2" y="-1318.2" font-family="Arial" font-size="14.00">FOCUS_DATASOURCE_ID </text>
<text text-anchor="start" x="229.9" y="-1318.2" font-family="Arial" font-size="14.00" fill="#666666">[char]</text>
<polygon fill="none" stroke="black" points="43.2,-1275.2 43.2,-1306 1038.44,-1306 1038.44,-1275.2 43.2,-1275.2"/>
<text text-anchor="start" x="50.2" y="-1287.4" font-family="Arial" font-size="14.00">DELETE_RULE_ID </text>
<text text-anchor="start" x="175.47" y="-1287.4" font-family="Arial" font-size="14.00" fill="#666666">[bigint]</text>
<polygon fill="none" stroke="black" points="43.2,-1244.4 43.2,-1275.2 1038.44,-1275.2 1038.44,-1244.4 43.2,-1244.4"/>
<text text-anchor="start" x="50.2" y="-1256.6" font-family="Arial" font-size="14.00">DELETE_RULE_PARAMETERS </text>
<text text-anchor="start" x="257.93" y="-1256.6" font-family="Arial" font-size="14.00" fill="#666666">[nvarchar(MAX)]</text>
<polygon fill="none" stroke="black" points="43.2,-1213.6 43.2,-1244.4 1038.44,-1244.4 1038.44,-1213.6 43.2,-1213.6"/>
<text text-anchor="start" x="50.2" y="-1225.8" font-family="Arial" font-size="14.00">NAME </text>
<text text-anchor="start" x="94.54" y="-1225.8" font-family="Arial" font-size="14.00" fill="#666666">[nvarchar(100)]</text>
<text text-anchor="start" x="189.47" y="-1225.8" font-family="Arial" font-size="14.00"> Process Name</text>
<polygon fill="none" stroke="black" points="43.2,-1182.8 43.2,-1213.6 1038.44,-1213.6 1038.44,-1182.8 43.2,-1182.8"/>
<text text-anchor="start" x="50.2" y="-1195" font-family="Arial" font-size="14.00">DESCRIPTION </text>
<text text-anchor="start" x="149.77" y="-1195" font-family="Arial" font-size="14.00" fill="#666666">[nvarchar(1000)]</text>
<polygon fill="none" stroke="black" points="43.2,-1152 43.2,-1182.8 1038.44,-1182.8 1038.44,-1152 43.2,-1152"/>
<text text-anchor="start" x="50.2" y="-1164.2" font-family="Arial" font-size="14.00">ICON </text>
<text text-anchor="start" x="89.09" y="-1164.2" font-family="Arial" font-size="14.00" fill="#666666">[nvarchar(500)]</text>
<polygon fill="none" stroke="black" points="43.2,-1121.2 43.2,-1152 1038.44,-1152 1038.44,-1121.2 43.2,-1121.2"/>
<text text-anchor="start" x="50.2" y="-1133.4" font-family="Arial" font-size="14.00">MANAGE_SUBJECT_AS_DRAFT </text>
<text text-anchor="start" x="267.25" y="-1133.4" font-family="Arial" font-size="14.00" fill="#666666">[smallint]</text>
<polygon fill="none" stroke="black" points="43.2,-1090.4 43.2,-1121.2 1038.44,-1121.2 1038.44,-1090.4 43.2,-1090.4"/>
<text text-anchor="start" x="50.2" y="-1102.6" font-family="Arial" font-size="14.00">CANCEL_LANDING_PAGE_ID </text>
<text text-anchor="start" x="249.38" y="-1102.6" font-family="Arial" font-size="14.00" fill="#666666">[bigint]</text>
<polygon fill="none" stroke="black" points="43.2,-1059.6 43.2,-1090.4 1038.44,-1090.4 1038.44,-1059.6 43.2,-1059.6"/>
<text text-anchor="start" x="50.2" y="-1071.8" font-family="Arial" font-size="14.00">CANCEL_LANDING_PAGE_KEYS </text>
<text text-anchor="start" x="272.73" y="-1071.8" font-family="Arial" font-size="14.00" fill="#666666">[nvarchar(MAX)]</text>
<polygon fill="none" stroke="black" points="43.2,-1028.8 43.2,-1059.6 1038.44,-1059.6 1038.44,-1028.8 43.2,-1028.8"/>
<text text-anchor="start" x="50.2" y="-1041" font-family="Arial" font-size="14.00">CANCEL_LANDING_PAGE_POLICY </text>
<text text-anchor="start" x="286.73" y="-1041" font-family="Arial" font-size="14.00" fill="#666666">[bigint]</text>
<polygon fill="none" stroke="black" points="43.2,-998 43.2,-1028.8 1038.44,-1028.8 1038.44,-998 43.2,-998"/>
<text text-anchor="start" x="50.2" y="-1010.2" font-family="Arial" font-size="14.00">IS_ADMIN_USERGROUP_EXCLUSIVE </text>
<text text-anchor="start" x="304.61" y="-1010.2" font-family="Arial" font-size="14.00" fill="#666666">[smallint]</text>
<polygon fill="none" stroke="black" points="43.2,-967.2 43.2,-998 1038.44,-998 1038.44,-967.2 43.2,-967.2"/>
<text text-anchor="start" x="50.2" y="-979.4" font-family="Arial" font-size="14.00">IS_HR_REQUEST </text>
<text text-anchor="start" x="170.79" y="-979.4" font-family="Arial" font-size="14.00" fill="#666666">[smallint]</text>
<text text-anchor="start" x="226.02" y="-979.4" font-family="Arial" font-size="14.00"> Is HR Request</text>
<polygon fill="none" stroke="black" points="43.2,-936.4 43.2,-967.2 1038.44,-967.2 1038.44,-936.4 43.2,-936.4"/>
<text text-anchor="start" x="50.2" y="-948.6" font-family="Arial" font-size="14.00">IS_SELFSERVICE_REQUEST </text>
<text text-anchor="start" x="247.04" y="-948.6" font-family="Arial" font-size="14.00" fill="#666666">[smallint]</text>
<text text-anchor="start" x="302.28" y="-948.6" font-family="Arial" font-size="14.00"> Is Self Service Request</text>
<polygon fill="none" stroke="black" points="43.2,-905.6 43.2,-936.4 1038.44,-936.4 1038.44,-905.6 43.2,-905.6"/>
<text text-anchor="start" x="50.2" y="-917.8" font-family="Arial" font-size="14.00">IS_MANAGER_REQUEST </text>
<text text-anchor="start" x="221.35" y="-917.8" font-family="Arial" font-size="14.00" fill="#666666">[smallint]</text>
<text text-anchor="start" x="276.59" y="-917.8" font-family="Arial" font-size="14.00"> Is Manager Reguest</text>
<polygon fill="none" stroke="black" points="43.2,-874.8 43.2,-905.6 1038.44,-905.6 1038.44,-874.8 43.2,-874.8"/>
<text text-anchor="start" x="50.2" y="-887" font-family="Arial" font-size="14.00">IS_SYSTEM_REQUEST </text>
<text text-anchor="start" x="208.13" y="-887" font-family="Arial" font-size="14.00" fill="#666666">[smallint]</text>
<polygon fill="none" stroke="black" points="43.2,-844 43.2,-874.8 1038.44,-874.8 1038.44,-844 43.2,-844"/>
<text text-anchor="start" x="50.2" y="-856.2" font-family="Arial" font-size="14.00">IS_CONFIGURATOR_REQUEST </text>
<text text-anchor="start" x="264.12" y="-856.2" font-family="Arial" font-size="14.00" fill="#666666">[smallint]</text>
<polygon fill="none" stroke="black" points="43.2,-813.2 43.2,-844 1038.44,-844 1038.44,-813.2 43.2,-813.2"/>
<text text-anchor="start" x="50.2" y="-825.4" font-family="Arial" font-size="14.00">IS_SMART_LAUNCH </text>
<text text-anchor="start" x="189.45" y="-825.4" font-family="Arial" font-size="14.00" fill="#666666">[smallint]</text>
<polygon fill="none" stroke="black" points="43.2,-782.4 43.2,-813.2 1038.44,-813.2 1038.44,-782.4 43.2,-782.4"/>
<text text-anchor="start" x="50.2" y="-794.6" font-family="Arial" font-size="14.00">IS_SINGLE_SUBJECT </text>
<text text-anchor="start" x="198.03" y="-794.6" font-family="Arial" font-size="14.00" fill="#666666">[smallint]</text>
<polygon fill="none" stroke="black" points="43.2,-751.6 43.2,-782.4 1038.44,-782.4 1038.44,-751.6 43.2,-751.6"/>
<text text-anchor="start" x="50.2" y="-763.8" font-family="Arial" font-size="14.00">IS_SINGLE_INSTANCE </text>
<text text-anchor="start" x="205.03" y="-763.8" font-family="Arial" font-size="14.00" fill="#666666">[smallint]</text>
<polygon fill="none" stroke="black" points="43.2,-720.8 43.2,-751.6 1038.44,-751.6 1038.44,-720.8 43.2,-720.8"/>
<text text-anchor="start" x="50.2" y="-733" font-family="Arial" font-size="14.00">IS_BATCHABLE </text>
<text text-anchor="start" x="158.35" y="-733" font-family="Arial" font-size="14.00" fill="#666666">[smallint]</text>
<polygon fill="none" stroke="black" points="43.2,-690 43.2,-720.8 1038.44,-720.8 1038.44,-690 43.2,-690"/>
<text text-anchor="start" x="50.2" y="-702.2" font-family="Arial" font-size="14.00">IS_SKETCH_ENABLED </text>
<text text-anchor="start" x="205.03" y="-702.2" font-family="Arial" font-size="14.00" fill="#666666">[smallint]</text>
<polygon fill="none" stroke="black" points="43.2,-659.2 43.2,-690 1038.44,-690 1038.44,-659.2 43.2,-659.2"/>
<text text-anchor="start" x="50.2" y="-671.4" font-family="Arial" font-size="14.00">IS_AUTOSAVE </text>
<text text-anchor="start" x="151.34" y="-671.4" font-family="Arial" font-size="14.00" fill="#666666">[smallint]</text>
<polygon fill="none" stroke="black" points="43.2,-628.4 43.2,-659.2 1038.44,-659.2 1038.44,-628.4 43.2,-628.4"/>
<text text-anchor="start" x="50.2" y="-640.6" font-family="Arial" font-size="14.00">IS_HIDDEN_FROM_INLINE </text>
<text text-anchor="start" x="230.68" y="-640.6" font-family="Arial" font-size="14.00" fill="#666666">[smallint]</text>
<polygon fill="none" stroke="black" points="43.2,-597.6 43.2,-628.4 1038.44,-628.4 1038.44,-597.6 43.2,-597.6"/>
<text text-anchor="start" x="50.2" y="-609.8" font-family="Arial" font-size="14.00">IS_RUNNABLE_FROM_SEARCH </text>
<text text-anchor="start" x="266.48" y="-609.8" font-family="Arial" font-size="14.00" fill="#666666">[smallint]</text>
<polygon fill="none" stroke="black" points="43.2,-566.8 43.2,-597.6 1038.44,-597.6 1038.44,-566.8 43.2,-566.8"/>
<text text-anchor="start" x="50.2" y="-579" font-family="Arial" font-size="14.00">IS_EXCLUDED_FROM_PROCESSES </text>
<text text-anchor="start" x="295.27" y="-579" font-family="Arial" font-size="14.00" fill="#666666">[smallint]</text>
<polygon fill="none" stroke="black" points="43.2,-536 43.2,-566.8 1038.44,-566.8 1038.44,-536 43.2,-536"/>
<text text-anchor="start" x="50.2" y="-548.2" font-family="Arial" font-size="14.00">IS_TAKEOVER_FOR_USERGROUP </text>
<text text-anchor="start" x="286.7" y="-548.2" font-family="Arial" font-size="14.00" fill="#666666">[smallint]</text>
<polygon fill="none" stroke="black" points="43.2,-505.2 43.2,-536 1038.44,-536 1038.44,-505.2 43.2,-505.2"/>
<text text-anchor="start" x="50.2" y="-517.4" font-family="Arial" font-size="14.00">IS_ENABLED </text>
<text text-anchor="start" x="140.46" y="-517.4" font-family="Arial" font-size="14.00" fill="#666666">[smallint]</text>
<polygon fill="none" stroke="black" points="43.2,-474.4 43.2,-505.2 1038.44,-505.2 1038.44,-474.4 43.2,-474.4"/>
<text text-anchor="start" x="50.2" y="-486.6" font-family="Arial" font-size="14.00">IS_CUSTOM </text>
<text text-anchor="start" x="135.77" y="-486.6" font-family="Arial" font-size="14.00" fill="#666666">[smallint]</text>
<polygon fill="none" stroke="black" points="43.2,-443.6 43.2,-474.4 1038.44,-474.4 1038.44,-443.6 43.2,-443.6"/>
<text text-anchor="start" x="50.2" y="-455.8" font-family="Arial" font-size="14.00">IS_MODEL </text>
<text text-anchor="start" x="124.89" y="-455.8" font-family="Arial" font-size="14.00" fill="#666666">[smallint]</text>
<text text-anchor="start" x="180.12" y="-455.8" font-family="Arial" font-size="14.00"> Process Model</text>
<polygon fill="none" stroke="black" points="43.2,-412.8 43.2,-443.6 1038.44,-443.6 1038.44,-412.8 43.2,-412.8"/>
<text text-anchor="start" x="50.2" y="-425" font-family="Arial" font-size="14.00">IS_MAINTENANCE_MODE </text>
<text text-anchor="start" x="226.79" y="-425" font-family="Arial" font-size="14.00" fill="#666666">[smallint]</text>
<polygon fill="none" stroke="black" points="43.2,-382 43.2,-412.8 1038.44,-412.8 1038.44,-382 43.2,-382"/>
<text text-anchor="start" x="50.2" y="-394.2" font-family="Arial" font-size="14.00">DETECT_CHANGES_NEW_RECORDS </text>
<text text-anchor="start" x="305.35" y="-394.2" font-family="Arial" font-size="14.00" fill="#666666">[smallint]</text>
<polygon fill="none" stroke="black" points="43.2,-351.2 43.2,-382 1038.44,-382 1038.44,-351.2 43.2,-351.2"/>
<text text-anchor="start" x="50.2" y="-363.4" font-family="Arial" font-size="14.00">MANAGE_STAGE_CONTEXTS </text>
<text text-anchor="start" x="254.02" y="-363.4" font-family="Arial" font-size="14.00" fill="#666666">[smallint]</text>
<polygon fill="none" stroke="black" points="43.2,-320.4 43.2,-351.2 1038.44,-351.2 1038.44,-320.4 43.2,-320.4"/>
<text text-anchor="start" x="50.2" y="-332.6" font-family="Arial" font-size="14.00">NOT_ELIGIBLE_FOCUS_TEXT_ID </text>
<text text-anchor="start" x="275.82" y="-332.6" font-family="Arial" font-size="14.00" fill="#666666">[bigint]</text>
<text text-anchor="start" x="317.07" y="-332.6" font-family="Arial" font-size="14.00"> This message will be displayed to the end user when trying to launch this process for an entity which is not eligible.</text>
<polygon fill="none" stroke="black" points="43.2,-289.6 43.2,-320.4 1038.44,-320.4 1038.44,-289.6 43.2,-289.6"/>
<text text-anchor="start" x="50.2" y="-301.8" font-family="Arial" font-size="14.00">DELETE_MESSAGE_TEXT_ID </text>
<text text-anchor="start" x="250.93" y="-301.8" font-family="Arial" font-size="14.00" fill="#666666">[bigint]</text>
<text text-anchor="start" x="292.18" y="-301.8" font-family="Arial" font-size="14.00"> Use this option to specify a custom message to be displayed in the Cancel confirmation pop up.</text>
<polygon fill="none" stroke="black" points="43.2,-258.8 43.2,-289.6 1038.44,-289.6 1038.44,-258.8 43.2,-258.8"/>
<text text-anchor="start" x="50.2" y="-271" font-family="Arial" font-size="14.00">INSERT_TIME </text>
<text text-anchor="start" x="146.66" y="-271" font-family="Arial" font-size="14.00" fill="#666666">[datetime2]</text>
<text text-anchor="start" x="215.92" y="-271" font-family="Arial" font-size="14.00"> Indicates the date and time of creation</text>
<polygon fill="none" stroke="black" points="43.2,-228 43.2,-258.8 1038.44,-258.8 1038.44,-228 43.2,-228"/>
<text text-anchor="start" x="50.2" y="-240.2" font-family="Arial" font-size="14.00">INSERT_USER </text>
<text text-anchor="start" x="152.11" y="-240.2" font-family="Arial" font-size="14.00" fill="#666666">[nvarchar(100)]</text>
<text text-anchor="start" x="247.04" y="-240.2" font-family="Arial" font-size="14.00"> Indicates the user who has created it</text>
<polygon fill="none" stroke="black" points="43.2,-197.2 43.2,-228 1038.44,-228 1038.44,-197.2 43.2,-197.2"/>
<text text-anchor="start" x="50.2" y="-209.4" font-family="Arial" font-size="14.00">INSERT_CLIENT </text>
<text text-anchor="start" x="163" y="-209.4" font-family="Arial" font-size="14.00" fill="#666666">[nvarchar(50)]</text>
<text text-anchor="start" x="250.14" y="-209.4" font-family="Arial" font-size="14.00"> Indicates the IP address from which it was created</text>
<polygon fill="none" stroke="black" points="43.2,-166.4 43.2,-197.2 1038.44,-197.2 1038.44,-166.4 43.2,-166.4"/>
<text text-anchor="start" x="50.2" y="-178.6" font-family="Arial" font-size="14.00">UPDATE_TIME </text>
<text text-anchor="start" x="152.1" y="-178.6" font-family="Arial" font-size="14.00" fill="#666666">[datetime2]</text>
<text text-anchor="start" x="221.37" y="-178.6" font-family="Arial" font-size="14.00"> Indicates the date and time of last update operation</text>
<polygon fill="none" stroke="black" points="43.2,-135.6 43.2,-166.4 1038.44,-166.4 1038.44,-135.6 43.2,-135.6"/>
<text text-anchor="start" x="50.2" y="-147.8" font-family="Arial" font-size="14.00">UPDATE_USER </text>
<text text-anchor="start" x="157.56" y="-147.8" font-family="Arial" font-size="14.00" fill="#666666">[nvarchar(100)]</text>
<text text-anchor="start" x="252.49" y="-147.8" font-family="Arial" font-size="14.00"> Indicates the user who has executed last update</text>
<polygon fill="none" stroke="black" points="43.2,-104.8 43.2,-135.6 1038.44,-135.6 1038.44,-104.8 43.2,-104.8"/>
<text text-anchor="start" x="50.2" y="-117" font-family="Arial" font-size="14.00">UPDATE_CLIENT </text>
<text text-anchor="start" x="168.45" y="-117" font-family="Arial" font-size="14.00" fill="#666666">[nvarchar(50)]</text>
<text text-anchor="start" x="255.59" y="-117" font-family="Arial" font-size="14.00"> Indicates the IP address from which was executed last update</text>
<polygon fill="none" stroke="black" points="43.2,-74 43.2,-104.8 1038.44,-104.8 1038.44,-74 43.2,-74"/>
<text text-anchor="start" x="50.2" y="-86.2" font-family="Arial" font-size="14.00">UPDATE_COUNT </text>
<text text-anchor="start" x="168.43" y="-86.2" font-family="Arial" font-size="14.00" fill="#666666">[int]</text>
<text text-anchor="start" x="191" y="-86.2" font-family="Arial" font-size="14.00"> Indicates how many update was executed since its creation</text>
<polygon fill="none" stroke="black" points="43.2,-43.2 43.2,-74 1038.44,-74 1038.44,-43.2 43.2,-43.2"/>
<text text-anchor="start" x="50.2" y="-55.4" font-family="Arial" font-size="14.00">WORKFLOW_ID </text>
<text text-anchor="start" x="159.87" y="-55.4" font-family="Arial" font-size="14.00" fill="#666666">[bigint]</text>
<text text-anchor="start" x="201.12" y="-55.4" font-family="Arial" font-size="14.00"> Indicates the workflow unique identifier</text>
</g>
<!-- TF_WFRT_PROCESSES_ENTITIES&#45;&gt;TF_WFPROCESSES -->
<g id="edge1" class="edge">
<title>TF_WFRT_PROCESSES_ENTITIES:PROCESS_ID&#45;&gt;TF_WFPROCESSES:ID</title>
<path fill="none" stroke="black" d="M771.96,-2447.38C538.27,-2437.2 623.75,-2076.42 783.23,-1893.2 858.44,-1806.8 962.9,-1943.31 1038.44,-1857.2 1069.1,-1822.25 1085.94,-1752.6 1039.44,-1752.6"/>
<polygon fill="black" stroke="black" points="771.9,-2447.38 781.8,-2452.09 777.23,-2447.49 781.56,-2447.59 781.56,-2447.59 781.56,-2447.59 777.23,-2447.49 781.99,-2443.09 771.9,-2447.38"/>
</g>
<!-- TF_WFRT_PROCESSES -->
<g id="node3" class="node">
<title>TF_WFRT_PROCESSES</title>
<polygon fill="#efefef" stroke="none" points="1142.35,-1352.2 1142.35,-1398.2 1749.29,-1398.2 1749.29,-1352.2 1142.35,-1352.2"/>
<polygon fill="none" stroke="black" points="1142.35,-1352.2 1142.35,-1398.2 1749.29,-1398.2 1749.29,-1352.2 1142.35,-1352.2"/>
<text text-anchor="start" x="1287.22" y="-1376" font-family="Arial Bold" font-size="18.00">TF_WFRT_PROCESSES</text>
<text text-anchor="start" x="1475.27" y="-1376" font-family="Arial" font-size="14.00">    </text>
<text text-anchor="start" x="1506.39" y="-1376" font-family="Arial" font-size="14.00" fill="#666666">[BASIC TABLE]</text>
<text text-anchor="start" x="1273.88" y="-1361.6" font-family="Arial" font-size="14.00" fill="#333333">Process Instances &#45; Workflow Runtime Processes View</text>
<polygon fill="none" stroke="black" points="1142.35,-1321.4 1142.35,-1352.2 1749.29,-1352.2 1749.29,-1321.4 1142.35,-1321.4"/>
<text text-anchor="start" x="1149.35" y="-1333.6" font-family="Arial" font-size="14.00">ID </text>
<text text-anchor="start" x="1167.24" y="-1333.6" font-family="Arial" font-size="14.00" fill="#666666">[bigint]</text>
<text text-anchor="start" x="1208.49" y="-1333.6" font-family="Arial" font-size="14.00"> Indicates the unique identifier</text>
<polygon fill="none" stroke="black" points="1142.35,-1290.6 1142.35,-1321.4 1749.29,-1321.4 1749.29,-1290.6 1142.35,-1290.6"/>
<text text-anchor="start" x="1149.35" y="-1302.8" font-family="Arial" font-size="14.00">PROCESS_ID </text>
<text text-anchor="start" x="1243.49" y="-1302.8" font-family="Arial" font-size="14.00" fill="#666666">[bigint]</text>
<text text-anchor="start" x="1284.74" y="-1302.8" font-family="Arial" font-size="14.00"> Process</text>
<polygon fill="none" stroke="black" points="1142.35,-1259.8 1142.35,-1290.6 1749.29,-1290.6 1749.29,-1259.8 1142.35,-1259.8"/>
<text text-anchor="start" x="1149.35" y="-1272" font-family="Arial" font-size="14.00">LANGUAGE_ID </text>
<text text-anchor="start" x="1252.83" y="-1272" font-family="Arial" font-size="14.00" fill="#666666">[int]</text>
<polygon fill="none" stroke="black" points="1142.35,-1229 1142.35,-1259.8 1749.29,-1259.8 1749.29,-1229 1142.35,-1229"/>
<text text-anchor="start" x="1149.35" y="-1241.2" font-family="Arial" font-size="14.00">CONTEXT_TYPE_ID </text>
<text text-anchor="start" x="1286.27" y="-1241.2" font-family="Arial" font-size="14.00" fill="#666666">[char]</text>
<text text-anchor="start" x="1321.28" y="-1241.2" font-family="Arial" font-size="14.00"> Context Type</text>
<polygon fill="none" stroke="black" points="1142.35,-1198.2 1142.35,-1229 1749.29,-1229 1749.29,-1198.2 1142.35,-1198.2"/>
<text text-anchor="start" x="1149.35" y="-1210.4" font-family="Arial" font-size="14.00">CONTEXT_VALUE_ID </text>
<text text-anchor="start" x="1295.62" y="-1210.4" font-family="Arial" font-size="14.00" fill="#666666">[char]</text>
<text text-anchor="start" x="1330.63" y="-1210.4" font-family="Arial" font-size="14.00"> Context</text>
<polygon fill="none" stroke="black" points="1142.35,-1167.4 1142.35,-1198.2 1749.29,-1198.2 1749.29,-1167.4 1142.35,-1167.4"/>
<text text-anchor="start" x="1149.35" y="-1179.6" font-family="Arial" font-size="14.00">CURRENT_STAGE_ID </text>
<text text-anchor="start" x="1298.71" y="-1179.6" font-family="Arial" font-size="14.00" fill="#666666">[bigint]</text>
<text text-anchor="start" x="1339.96" y="-1179.6" font-family="Arial" font-size="14.00"> Stage</text>
<polygon fill="none" stroke="black" points="1142.35,-1136.6 1142.35,-1167.4 1749.29,-1167.4 1749.29,-1136.6 1142.35,-1136.6"/>
<text text-anchor="start" x="1149.35" y="-1148.8" font-family="Arial" font-size="14.00">ITERATION </text>
<text text-anchor="start" x="1227.91" y="-1148.8" font-family="Arial" font-size="14.00" fill="#666666">[int]</text>
<text text-anchor="start" x="1250.48" y="-1148.8" font-family="Arial" font-size="14.00"> Iteration</text>
<polygon fill="none" stroke="black" points="1142.35,-1105.8 1142.35,-1136.6 1749.29,-1136.6 1749.29,-1105.8 1142.35,-1105.8"/>
<text text-anchor="start" x="1149.35" y="-1118" font-family="Arial" font-size="14.00">ACTIVATION_USER_ID </text>
<text text-anchor="start" x="1305.72" y="-1118" font-family="Arial" font-size="14.00" fill="#666666">[bigint]</text>
<text text-anchor="start" x="1346.97" y="-1118" font-family="Arial" font-size="14.00"> Activation User</text>
<polygon fill="none" stroke="black" points="1142.35,-1075 1142.35,-1105.8 1749.29,-1105.8 1749.29,-1075 1142.35,-1075"/>
<text text-anchor="start" x="1149.35" y="-1087.2" font-family="Arial" font-size="14.00">FOCUS_ID </text>
<text text-anchor="start" x="1224.03" y="-1087.2" font-family="Arial" font-size="14.00" fill="#666666">[bigint]</text>
<text text-anchor="start" x="1265.28" y="-1087.2" font-family="Arial" font-size="14.00"> Focus</text>
<polygon fill="none" stroke="black" points="1142.35,-1044.2 1142.35,-1075 1749.29,-1075 1749.29,-1044.2 1142.35,-1044.2"/>
<text text-anchor="start" x="1149.35" y="-1056.4" font-family="Arial" font-size="14.00">RELATED_TO </text>
<text text-anchor="start" x="1245.04" y="-1056.4" font-family="Arial" font-size="14.00" fill="#666666">[nvarchar(250)]</text>
<text text-anchor="start" x="1339.97" y="-1056.4" font-family="Arial" font-size="14.00"> Related To</text>
<polygon fill="none" stroke="black" points="1142.35,-1013.4 1142.35,-1044.2 1749.29,-1044.2 1749.29,-1013.4 1142.35,-1013.4"/>
<text text-anchor="start" x="1149.35" y="-1025.6" font-family="Arial" font-size="14.00">PARAMETERS </text>
<text text-anchor="start" x="1249.71" y="-1025.6" font-family="Arial" font-size="14.00" fill="#666666">[nvarchar(MAX)]</text>
<polygon fill="none" stroke="black" points="1142.35,-982.6 1142.35,-1013.4 1749.29,-1013.4 1749.29,-982.6 1142.35,-982.6"/>
<text text-anchor="start" x="1149.35" y="-994.8" font-family="Arial" font-size="14.00">STARTUP_PARAMETERS </text>
<text text-anchor="start" x="1322.83" y="-994.8" font-family="Arial" font-size="14.00" fill="#666666">[nvarchar(MAX)]</text>
<polygon fill="none" stroke="black" points="1142.35,-951.8 1142.35,-982.6 1749.29,-982.6 1749.29,-951.8 1142.35,-951.8"/>
<text text-anchor="start" x="1149.35" y="-964" font-family="Arial" font-size="14.00">REFERENCE_DATE </text>
<text text-anchor="start" x="1284.71" y="-964" font-family="Arial" font-size="14.00" fill="#666666">[datetime]</text>
<text text-anchor="start" x="1346.19" y="-964" font-family="Arial" font-size="14.00"> Reference date</text>
<polygon fill="none" stroke="black" points="1142.35,-921 1142.35,-951.8 1749.29,-951.8 1749.29,-921 1142.35,-921"/>
<text text-anchor="start" x="1149.35" y="-933.2" font-family="Arial" font-size="14.00">REFERENCE_NOTE </text>
<text text-anchor="start" x="1286.26" y="-933.2" font-family="Arial" font-size="14.00" fill="#666666">[nvarchar(2000)]</text>
<text text-anchor="start" x="1388.98" y="-933.2" font-family="Arial" font-size="14.00"> Reference note</text>
<polygon fill="none" stroke="black" points="1142.35,-890.2 1142.35,-921 1749.29,-921 1749.29,-890.2 1142.35,-890.2"/>
<text text-anchor="start" x="1149.35" y="-902.4" font-family="Arial" font-size="14.00">PROTOCOL_ID </text>
<text text-anchor="start" x="1253.6" y="-902.4" font-family="Arial" font-size="14.00" fill="#666666">[nvarchar(100)]</text>
<text text-anchor="start" x="1348.53" y="-902.4" font-family="Arial" font-size="14.00"> Protocol identifier</text>
<polygon fill="none" stroke="black" points="1142.35,-859.4 1142.35,-890.2 1749.29,-890.2 1749.29,-859.4 1142.35,-859.4"/>
<text text-anchor="start" x="1149.35" y="-871.6" font-family="Arial" font-size="14.00">LOCKED_ENTITIES_INFO </text>
<text text-anchor="start" x="1322.84" y="-871.6" font-family="Arial" font-size="14.00" fill="#666666">[nvarchar(MAX)]</text>
<polygon fill="none" stroke="black" points="1142.35,-828.6 1142.35,-859.4 1749.29,-859.4 1749.29,-828.6 1142.35,-828.6"/>
<text text-anchor="start" x="1149.35" y="-840.8" font-family="Arial" font-size="14.00">LOCK_ID </text>
<text text-anchor="start" x="1213.15" y="-840.8" font-family="Arial" font-size="14.00" fill="#666666">[nvarchar(100)]</text>
<polygon fill="none" stroke="black" points="1142.35,-797.8 1142.35,-828.6 1749.29,-828.6 1749.29,-797.8 1142.35,-797.8"/>
<text text-anchor="start" x="1149.35" y="-810" font-family="Arial" font-size="14.00">LOCK_EXPIRATION </text>
<text text-anchor="start" x="1283.95" y="-810" font-family="Arial" font-size="14.00" fill="#666666">[datetime]</text>
<polygon fill="none" stroke="black" points="1142.35,-767 1142.35,-797.8 1749.29,-797.8 1749.29,-767 1142.35,-767"/>
<text text-anchor="start" x="1149.35" y="-779.2" font-family="Arial" font-size="14.00">IS_ACTIVE </text>
<text text-anchor="start" x="1224.82" y="-779.2" font-family="Arial" font-size="14.00" fill="#666666">[smallint]</text>
<text text-anchor="start" x="1280.06" y="-779.2" font-family="Arial" font-size="14.00"> Is Active</text>
<polygon fill="none" stroke="black" points="1142.35,-736.2 1142.35,-767 1749.29,-767 1749.29,-736.2 1142.35,-736.2"/>
<text text-anchor="start" x="1149.35" y="-748.4" font-family="Arial" font-size="14.00">IS_HIDDEN </text>
<text text-anchor="start" x="1227.93" y="-748.4" font-family="Arial" font-size="14.00" fill="#666666">[smallint]</text>
<polygon fill="none" stroke="black" points="1142.35,-705.4 1142.35,-736.2 1749.29,-736.2 1749.29,-705.4 1142.35,-705.4"/>
<text text-anchor="start" x="1149.35" y="-717.6" font-family="Arial" font-size="14.00">EXPIRATION_DATE </text>
<text text-anchor="start" x="1283.16" y="-717.6" font-family="Arial" font-size="14.00" fill="#666666">[datetime]</text>
<polygon fill="none" stroke="black" points="1142.35,-674.6 1142.35,-705.4 1749.29,-705.4 1749.29,-674.6 1142.35,-674.6"/>
<text text-anchor="start" x="1149.35" y="-686.8" font-family="Arial" font-size="14.00">INSERT_TIME </text>
<text text-anchor="start" x="1245.81" y="-686.8" font-family="Arial" font-size="14.00" fill="#666666">[datetime2]</text>
<text text-anchor="start" x="1315.07" y="-686.8" font-family="Arial" font-size="14.00"> Indicates the date and time of creation</text>
<polygon fill="none" stroke="black" points="1142.35,-643.8 1142.35,-674.6 1749.29,-674.6 1749.29,-643.8 1142.35,-643.8"/>
<text text-anchor="start" x="1149.35" y="-656" font-family="Arial" font-size="14.00">INSERT_USER </text>
<text text-anchor="start" x="1251.26" y="-656" font-family="Arial" font-size="14.00" fill="#666666">[nvarchar(100)]</text>
<text text-anchor="start" x="1346.2" y="-656" font-family="Arial" font-size="14.00"> Indicates the user who has created it</text>
<polygon fill="none" stroke="black" points="1142.35,-613 1142.35,-643.8 1749.29,-643.8 1749.29,-613 1142.35,-613"/>
<text text-anchor="start" x="1149.35" y="-625.2" font-family="Arial" font-size="14.00">INSERT_CLIENT </text>
<text text-anchor="start" x="1262.15" y="-625.2" font-family="Arial" font-size="14.00" fill="#666666">[nvarchar(50)]</text>
<text text-anchor="start" x="1349.3" y="-625.2" font-family="Arial" font-size="14.00"> Indicates the IP address from which it was created</text>
<polygon fill="none" stroke="black" points="1142.35,-582.2 1142.35,-613 1749.29,-613 1749.29,-582.2 1142.35,-582.2"/>
<text text-anchor="start" x="1149.35" y="-594.4" font-family="Arial" font-size="14.00">UPDATE_TIME </text>
<text text-anchor="start" x="1251.26" y="-594.4" font-family="Arial" font-size="14.00" fill="#666666">[datetime2]</text>
<text text-anchor="start" x="1320.52" y="-594.4" font-family="Arial" font-size="14.00"> Indicates the date and time of last update operation</text>
<polygon fill="none" stroke="black" points="1142.35,-551.4 1142.35,-582.2 1749.29,-582.2 1749.29,-551.4 1142.35,-551.4"/>
<text text-anchor="start" x="1149.35" y="-563.6" font-family="Arial" font-size="14.00">UPDATE_USER </text>
<text text-anchor="start" x="1256.71" y="-563.6" font-family="Arial" font-size="14.00" fill="#666666">[nvarchar(100)]</text>
<text text-anchor="start" x="1351.64" y="-563.6" font-family="Arial" font-size="14.00"> Indicates the user who has executed last update</text>
<polygon fill="none" stroke="black" points="1142.35,-520.6 1142.35,-551.4 1749.29,-551.4 1749.29,-520.6 1142.35,-520.6"/>
<text text-anchor="start" x="1149.35" y="-532.8" font-family="Arial" font-size="14.00">UPDATE_CLIENT </text>
<text text-anchor="start" x="1267.6" y="-532.8" font-family="Arial" font-size="14.00" fill="#666666">[nvarchar(50)]</text>
<text text-anchor="start" x="1354.75" y="-532.8" font-family="Arial" font-size="14.00"> Indicates the IP address from which was executed last update</text>
<polygon fill="none" stroke="black" points="1142.35,-489.8 1142.35,-520.6 1749.29,-520.6 1749.29,-489.8 1142.35,-489.8"/>
<text text-anchor="start" x="1149.35" y="-502" font-family="Arial" font-size="14.00">UPDATE_COUNT </text>
<text text-anchor="start" x="1267.59" y="-502" font-family="Arial" font-size="14.00" fill="#666666">[int]</text>
<text text-anchor="start" x="1290.15" y="-502" font-family="Arial" font-size="14.00"> Indicates how many update was executed since its creation</text>
<polygon fill="none" stroke="black" points="1142.35,-459 1142.35,-489.8 1749.29,-489.8 1749.29,-459 1142.35,-459"/>
<text text-anchor="start" x="1149.35" y="-471.2" font-family="Arial" font-size="14.00">WORKFLOW_ID </text>
<text text-anchor="start" x="1259.02" y="-471.2" font-family="Arial" font-size="14.00" fill="#666666">[bigint]</text>
<text text-anchor="start" x="1300.27" y="-471.2" font-family="Arial" font-size="14.00"> Indicates the workflow unique identifier</text>
</g>
<!-- TF_WFRT_PROCESSES_ENTITIES&#45;&gt;TF_WFRT_PROCESSES -->
<g id="edge2" class="edge">
<title>TF_WFRT_PROCESSES_ENTITIES:INSTANCE_ID&#45;&gt;TF_WFRT_PROCESSES:ID</title>
<path fill="none" stroke="black" d="M1213.74,-2416.69C1630.31,-2408.07 1172.86,-1871.18 1142.35,-1441.4 1139.06,-1395.03 1094.86,-1336.8 1141.35,-1336.8"/>
<polygon fill="black" stroke="black" points="1213.75,-2416.69 1203.7,-2412.3 1208.41,-2416.75 1204.08,-2416.79 1204.08,-2416.79 1204.08,-2416.79 1208.41,-2416.75 1203.79,-2421.3 1213.75,-2416.69"/>
</g>
</g>
</svg>
