<?xml version="1.0" encoding="UTF-8" standalone="no"?>
<!DOCTYPE svg PUBLIC "-//W3C//DTD SVG 1.1//EN"
 "http://www.w3.org/Graphics/SVG/1.1/DTD/svg11.dtd">
<!-- Generated by graphviz version 12.1.2 (20240928.0832)
 -->
<!-- Title: HR_CYCLEPARTICIPANT Pages: 1 -->
<svg width="1156pt" height="2639pt"
 viewBox="0.00 0.00 1155.83 2639.20" xmlns="http://www.w3.org/2000/svg" xmlns:xlink="http://www.w3.org/1999/xlink">
<g id="graph0" class="graph" transform="scale(1 1) rotate(0) translate(4 2635.2)">
<title>HR_CYCLEPARTICIPANT</title>
<polygon fill="white" stroke="none" points="-4,4 -4,-2635.2 1151.83,-2635.2 1151.83,4 -4,4"/>
<!-- HR_CYCLEPARTICIPANT -->
<g id="node1" class="node">
<title>HR_CYCLEPARTICIPANT</title>
<polygon fill="#efefef" stroke="none" points="46.2,-1847 46.2,-1893 1071.8,-1893 1071.8,-1847 46.2,-1847"/>
<polygon fill="none" stroke="black" points="46.2,-1847 46.2,-1893 1071.8,-1893 1071.8,-1847 46.2,-1847"/>
<text text-anchor="start" x="389.41" y="-1870.8" font-family="Arial Bold" font-size="18.00">HR_CYCLEPARTICIPANT</text>
<text text-anchor="start" x="599.43" y="-1870.8" font-family="Arial" font-size="14.00">    </text>
<text text-anchor="start" x="630.55" y="-1870.8" font-family="Arial" font-size="14.00" fill="#666666">[BASIC TABLE]</text>
<text text-anchor="start" x="267.55" y="-1856.4" font-family="Arial" font-size="14.00" fill="#333333">Cycle Participant &#45; Contains the participants, meaning people evaluated, of an appraisal cycle.</text>
<polygon fill="none" stroke="black" points="46.2,-1816.2 46.2,-1847 1071.8,-1847 1071.8,-1816.2 46.2,-1816.2"/>
<text text-anchor="start" x="53.2" y="-1828.4" font-family="Arial" font-size="14.00">ID </text>
<text text-anchor="start" x="71.09" y="-1828.4" font-family="Arial" font-size="14.00" fill="#666666">[bigint]</text>
<text text-anchor="start" x="112.34" y="-1828.4" font-family="Arial" font-size="14.00"> Indicates the unique identifier</text>
<polygon fill="none" stroke="black" points="46.2,-1785.4 46.2,-1816.2 1071.8,-1816.2 1071.8,-1785.4 46.2,-1785.4"/>
<text text-anchor="start" x="53.2" y="-1797.6" font-family="Arial" font-size="14.00">APPRAISALCYCLE_ID </text>
<text text-anchor="start" x="203.37" y="-1797.6" font-family="Arial" font-size="14.00" fill="#666666">[bigint]</text>
<text text-anchor="start" x="244.62" y="-1797.6" font-family="Arial" font-size="14.00"> The identifier of the appraisal cycle record.</text>
<polygon fill="none" stroke="black" points="46.2,-1754.6 46.2,-1785.4 1071.8,-1785.4 1071.8,-1754.6 46.2,-1754.6"/>
<text text-anchor="start" x="53.2" y="-1766.8" font-family="Arial" font-size="14.00">PERSON_ID </text>
<text text-anchor="start" x="138" y="-1766.8" font-family="Arial" font-size="14.00" fill="#666666">[bigint]</text>
<text text-anchor="start" x="179.25" y="-1766.8" font-family="Arial" font-size="14.00"> The Identifier of the Person record.</text>
<polygon fill="none" stroke="black" points="46.2,-1723.8 46.2,-1754.6 1071.8,-1754.6 1071.8,-1723.8 46.2,-1723.8"/>
<text text-anchor="start" x="53.2" y="-1736" font-family="Arial" font-size="14.00">FORMATTEDCODE </text>
<text text-anchor="start" x="184.64" y="-1736" font-family="Arial" font-size="14.00" fill="#666666">[nvarchar(1024)]</text>
<text text-anchor="start" x="287.36" y="-1736" font-family="Arial" font-size="14.00"> It is an auto&#45;generated code for the participant in this cycle, consisting of the participant code and the appraisal cycle code.</text>
<polygon fill="none" stroke="black" points="46.2,-1693 46.2,-1723.8 1071.8,-1723.8 1071.8,-1693 46.2,-1693"/>
<text text-anchor="start" x="53.2" y="-1705.2" font-family="Arial" font-size="14.00">FORMATTEDNAME </text>
<text text-anchor="start" x="184.64" y="-1705.2" font-family="Arial" font-size="14.00" fill="#666666">[nvarchar(1024)]</text>
<text text-anchor="start" x="287.36" y="-1705.2" font-family="Arial" font-size="14.00"> It is an auto&#45;generated name for the participant in this cycle, consisting of the participant name and the appraisal cycle name.</text>
<polygon fill="none" stroke="black" points="46.2,-1662.2 46.2,-1693 1071.8,-1693 1071.8,-1662.2 46.2,-1662.2"/>
<text text-anchor="start" x="53.2" y="-1674.4" font-family="Arial" font-size="14.00">COMPANYRELATIONSHIP_ID </text>
<text text-anchor="start" x="252.35" y="-1674.4" font-family="Arial" font-size="14.00" fill="#666666">[bigint]</text>
<text text-anchor="start" x="293.6" y="-1674.4" font-family="Arial" font-size="14.00"> The Identifier of the Company Relationship record.</text>
<polygon fill="none" stroke="black" points="46.2,-1631.4 46.2,-1662.2 1071.8,-1662.2 1071.8,-1631.4 46.2,-1631.4"/>
<text text-anchor="start" x="53.2" y="-1643.6" font-family="Arial" font-size="14.00">SNAPSHOTDATE </text>
<text text-anchor="start" x="171.44" y="-1643.6" font-family="Arial" font-size="14.00" fill="#666666">[date]</text>
<text text-anchor="start" x="206.47" y="-1643.6" font-family="Arial" font-size="14.00"> Snapshot Date</text>
<polygon fill="none" stroke="black" points="46.2,-1600.6 46.2,-1631.4 1071.8,-1631.4 1071.8,-1600.6 46.2,-1600.6"/>
<text text-anchor="start" x="53.2" y="-1612.8" font-family="Arial" font-size="14.00">SHAREDIDENTIFIER </text>
<text text-anchor="start" x="193.21" y="-1612.8" font-family="Arial" font-size="14.00" fill="#666666">[nvarchar(255)]</text>
<text text-anchor="start" x="288.14" y="-1612.8" font-family="Arial" font-size="14.00"> Shared Identifier</text>
<polygon fill="none" stroke="black" points="46.2,-1569.8 46.2,-1600.6 1071.8,-1600.6 1071.8,-1569.8 46.2,-1569.8"/>
<text text-anchor="start" x="53.2" y="-1582" font-family="Arial" font-size="14.00">LISTAGENCY_ID </text>
<text text-anchor="start" x="167.57" y="-1582" font-family="Arial" font-size="14.00" fill="#666666">[bigint]</text>
<text text-anchor="start" x="208.81" y="-1582" font-family="Arial" font-size="14.00"> The Identifier of List Agency.</text>
<polygon fill="none" stroke="black" points="46.2,-1539 46.2,-1569.8 1071.8,-1569.8 1071.8,-1539 46.2,-1539"/>
<text text-anchor="start" x="53.2" y="-1551.2" font-family="Arial" font-size="14.00">WORKFLOW_ID </text>
<text text-anchor="start" x="162.87" y="-1551.2" font-family="Arial" font-size="14.00" fill="#666666">[bigint]</text>
<text text-anchor="start" x="204.12" y="-1551.2" font-family="Arial" font-size="14.00"> Indicates the workflow unique identifier</text>
<polygon fill="none" stroke="black" points="46.2,-1508.2 46.2,-1539 1071.8,-1539 1071.8,-1508.2 46.2,-1508.2"/>
<text text-anchor="start" x="53.2" y="-1520.4" font-family="Arial" font-size="14.00">INSERT_TIME </text>
<text text-anchor="start" x="149.66" y="-1520.4" font-family="Arial" font-size="14.00" fill="#666666">[datetime2]</text>
<text text-anchor="start" x="218.92" y="-1520.4" font-family="Arial" font-size="14.00"> Indicates the date and time of creation</text>
<polygon fill="none" stroke="black" points="46.2,-1477.4 46.2,-1508.2 1071.8,-1508.2 1071.8,-1477.4 46.2,-1477.4"/>
<text text-anchor="start" x="53.2" y="-1489.6" font-family="Arial" font-size="14.00">INSERT_USER </text>
<text text-anchor="start" x="155.11" y="-1489.6" font-family="Arial" font-size="14.00" fill="#666666">[nvarchar(100)]</text>
<text text-anchor="start" x="250.04" y="-1489.6" font-family="Arial" font-size="14.00"> Indicates the user who has created it</text>
<polygon fill="none" stroke="black" points="46.2,-1446.6 46.2,-1477.4 1071.8,-1477.4 1071.8,-1446.6 46.2,-1446.6"/>
<text text-anchor="start" x="53.2" y="-1458.8" font-family="Arial" font-size="14.00">INSERT_CLIENT </text>
<text text-anchor="start" x="166" y="-1458.8" font-family="Arial" font-size="14.00" fill="#666666">[nvarchar(50)]</text>
<text text-anchor="start" x="253.14" y="-1458.8" font-family="Arial" font-size="14.00"> Indicates the IP address from which it was created</text>
<polygon fill="none" stroke="black" points="46.2,-1415.8 46.2,-1446.6 1071.8,-1446.6 1071.8,-1415.8 46.2,-1415.8"/>
<text text-anchor="start" x="53.2" y="-1428" font-family="Arial" font-size="14.00">UPDATE_TIME </text>
<text text-anchor="start" x="155.1" y="-1428" font-family="Arial" font-size="14.00" fill="#666666">[datetime2]</text>
<text text-anchor="start" x="224.37" y="-1428" font-family="Arial" font-size="14.00"> Indicates the date and time of last update operation</text>
<polygon fill="none" stroke="black" points="46.2,-1385 46.2,-1415.8 1071.8,-1415.8 1071.8,-1385 46.2,-1385"/>
<text text-anchor="start" x="53.2" y="-1397.2" font-family="Arial" font-size="14.00">UPDATE_USER </text>
<text text-anchor="start" x="160.56" y="-1397.2" font-family="Arial" font-size="14.00" fill="#666666">[nvarchar(100)]</text>
<text text-anchor="start" x="255.49" y="-1397.2" font-family="Arial" font-size="14.00"> Indicates the user who has executed last update</text>
<polygon fill="none" stroke="black" points="46.2,-1354.2 46.2,-1385 1071.8,-1385 1071.8,-1354.2 46.2,-1354.2"/>
<text text-anchor="start" x="53.2" y="-1366.4" font-family="Arial" font-size="14.00">UPDATE_CLIENT </text>
<text text-anchor="start" x="171.45" y="-1366.4" font-family="Arial" font-size="14.00" fill="#666666">[nvarchar(50)]</text>
<text text-anchor="start" x="258.59" y="-1366.4" font-family="Arial" font-size="14.00"> Indicates the IP address from which was executed last update</text>
<polygon fill="none" stroke="black" points="46.2,-1323.4 46.2,-1354.2 1071.8,-1354.2 1071.8,-1323.4 46.2,-1323.4"/>
<text text-anchor="start" x="53.2" y="-1335.6" font-family="Arial" font-size="14.00">UPDATE_COUNT </text>
<text text-anchor="start" x="171.43" y="-1335.6" font-family="Arial" font-size="14.00" fill="#666666">[int]</text>
<text text-anchor="start" x="194" y="-1335.6" font-family="Arial" font-size="14.00"> Indicates how many update was executed since its creation</text>
<polygon fill="none" stroke="black" stroke-width="3" points="44.7,-1321.9 44.7,-1894.5 1073.3,-1894.5 1073.3,-1321.9 44.7,-1321.9"/>
</g>
<!-- HR_APPRAISALCYCLE -->
<g id="node3" class="node">
<title>HR_APPRAISALCYCLE</title>
<polygon fill="#efefef" stroke="none" points="141.9,-1152 141.9,-1198 976.1,-1198 976.1,-1152 141.9,-1152"/>
<polygon fill="none" stroke="black" points="141.9,-1152 141.9,-1198 976.1,-1198 976.1,-1152 141.9,-1152"/>
<text text-anchor="start" x="398.91" y="-1175.8" font-family="Arial Bold" font-size="18.00">HR_APPRAISALCYCLE</text>
<text text-anchor="start" x="589.94" y="-1175.8" font-family="Arial" font-size="14.00">    </text>
<text text-anchor="start" x="621.05" y="-1175.8" font-family="Arial" font-size="14.00" fill="#666666">[BASIC TABLE]</text>
<text text-anchor="start" x="148.9" y="-1161.4" font-family="Arial" font-size="14.00" fill="#333333">Appraisal Cycle &#45; This Entity allows defining a container of Appraisals that make sense on a specific period for a given employee set.</text>
<polygon fill="none" stroke="black" points="141.9,-1121.2 141.9,-1152 976.1,-1152 976.1,-1121.2 141.9,-1121.2"/>
<text text-anchor="start" x="148.9" y="-1133.4" font-family="Arial" font-size="14.00">ID </text>
<text text-anchor="start" x="166.79" y="-1133.4" font-family="Arial" font-size="14.00" fill="#666666">[bigint]</text>
<text text-anchor="start" x="208.04" y="-1133.4" font-family="Arial" font-size="14.00"> Indicates the unique identifier</text>
<polygon fill="none" stroke="black" points="141.9,-1090.4 141.9,-1121.2 976.1,-1121.2 976.1,-1090.4 141.9,-1090.4"/>
<text text-anchor="start" x="148.9" y="-1102.6" font-family="Arial" font-size="14.00">APPRAISALTYPE_ID </text>
<text text-anchor="start" x="288.95" y="-1102.6" font-family="Arial" font-size="14.00" fill="#666666">[bigint]</text>
<text text-anchor="start" x="330.2" y="-1102.6" font-family="Arial" font-size="14.00"> The identifier of the Appraisal Type record.</text>
<polygon fill="none" stroke="black" points="141.9,-1059.6 141.9,-1090.4 976.1,-1090.4 976.1,-1059.6 141.9,-1059.6"/>
<text text-anchor="start" x="148.9" y="-1071.8" font-family="Arial" font-size="14.00">APPRAISALFORM_ID </text>
<text text-anchor="start" x="293.6" y="-1071.8" font-family="Arial" font-size="14.00" fill="#666666">[bigint]</text>
<text text-anchor="start" x="334.85" y="-1071.8" font-family="Arial" font-size="14.00"> Appraisal Form</text>
<polygon fill="none" stroke="black" points="141.9,-1028.8 141.9,-1059.6 976.1,-1059.6 976.1,-1028.8 141.9,-1028.8"/>
<text text-anchor="start" x="148.9" y="-1041" font-family="Arial" font-size="14.00">CODE </text>
<text text-anchor="start" x="193.24" y="-1041" font-family="Arial" font-size="14.00" fill="#666666">[nvarchar(100)]</text>
<text text-anchor="start" x="288.17" y="-1041" font-family="Arial" font-size="14.00"> Appraisal Cycle Code</text>
<polygon fill="none" stroke="black" points="141.9,-998 141.9,-1028.8 976.1,-1028.8 976.1,-998 141.9,-998"/>
<text text-anchor="start" x="148.9" y="-1010.2" font-family="Arial" font-size="14.00">NAME </text>
<text text-anchor="start" x="193.24" y="-1010.2" font-family="Arial" font-size="14.00" fill="#666666">[nvarchar(255)]</text>
<text text-anchor="start" x="288.17" y="-1010.2" font-family="Arial" font-size="14.00"> The name of appraisal cycle.</text>
<polygon fill="none" stroke="black" points="141.9,-967.2 141.9,-998 976.1,-998 976.1,-967.2 141.9,-967.2"/>
<text text-anchor="start" x="148.9" y="-979.4" font-family="Arial" font-size="14.00">DESCRIPTION </text>
<text text-anchor="start" x="248.47" y="-979.4" font-family="Arial" font-size="14.00" fill="#666666">[nvarchar(500)]</text>
<text text-anchor="start" x="343.4" y="-979.4" font-family="Arial" font-size="14.00"> Appraisal cycle description.</text>
<polygon fill="none" stroke="black" points="141.9,-936.4 141.9,-967.2 976.1,-967.2 976.1,-936.4 141.9,-936.4"/>
<text text-anchor="start" x="148.9" y="-948.6" font-family="Arial" font-size="14.00">EFFECTIVEFROM </text>
<text text-anchor="start" x="271.01" y="-948.6" font-family="Arial" font-size="14.00" fill="#666666">[date]</text>
<text text-anchor="start" x="306.04" y="-948.6" font-family="Arial" font-size="14.00"> The validity start date for an historical situation.</text>
<polygon fill="none" stroke="black" points="141.9,-905.6 141.9,-936.4 976.1,-936.4 976.1,-905.6 141.9,-905.6"/>
<text text-anchor="start" x="148.9" y="-917.8" font-family="Arial" font-size="14.00">EFFECTIVETO </text>
<text text-anchor="start" x="249.24" y="-917.8" font-family="Arial" font-size="14.00" fill="#666666">[date]</text>
<text text-anchor="start" x="284.26" y="-917.8" font-family="Arial" font-size="14.00"> The validity end date for an historical situation.</text>
<polygon fill="none" stroke="black" points="141.9,-874.8 141.9,-905.6 976.1,-905.6 976.1,-874.8 141.9,-874.8"/>
<text text-anchor="start" x="148.9" y="-887" font-family="Arial" font-size="14.00">MASTERAPPRAISALCYCLE_ID </text>
<text text-anchor="start" x="357.41" y="-887" font-family="Arial" font-size="14.00" fill="#666666">[bigint]</text>
<text text-anchor="start" x="398.66" y="-887" font-family="Arial" font-size="14.00"> This field contains the identifier of the master cycle record.</text>
<polygon fill="none" stroke="black" points="141.9,-844 141.9,-874.8 976.1,-874.8 976.1,-844 141.9,-844"/>
<text text-anchor="start" x="148.9" y="-856.2" font-family="Arial" font-size="14.00">REASON_ID </text>
<text text-anchor="start" x="233.7" y="-856.2" font-family="Arial" font-size="14.00" fill="#666666">[bigint]</text>
<text text-anchor="start" x="274.95" y="-856.2" font-family="Arial" font-size="14.00"> The identifier of Reason record.</text>
<polygon fill="none" stroke="black" points="141.9,-813.2 141.9,-844 976.1,-844 976.1,-813.2 141.9,-813.2"/>
<text text-anchor="start" x="148.9" y="-825.4" font-family="Arial" font-size="14.00">STATUS_ID </text>
<text text-anchor="start" x="229.8" y="-825.4" font-family="Arial" font-size="14.00" fill="#666666">[bigint]</text>
<text text-anchor="start" x="271.05" y="-825.4" font-family="Arial" font-size="14.00"> Indicates the status of the appraisal cycle. </text>
<polygon fill="none" stroke="black" points="141.9,-782.4 141.9,-813.2 976.1,-813.2 976.1,-782.4 141.9,-782.4"/>
<text text-anchor="start" x="148.9" y="-794.6" font-family="Arial" font-size="14.00">PARTICIPANTPOLICY_ID </text>
<text text-anchor="start" x="318.49" y="-794.6" font-family="Arial" font-size="14.00" fill="#666666">[bigint]</text>
<text text-anchor="start" x="359.74" y="-794.6" font-family="Arial" font-size="14.00"> Identifier of the participant policy.</text>
<polygon fill="none" stroke="black" points="141.9,-751.6 141.9,-782.4 976.1,-782.4 976.1,-751.6 141.9,-751.6"/>
<text text-anchor="start" x="148.9" y="-763.8" font-family="Arial" font-size="14.00">ELIGIBILITYENTITYSET_ID </text>
<text text-anchor="start" x="330.17" y="-763.8" font-family="Arial" font-size="14.00" fill="#666666">[bigint]</text>
<text text-anchor="start" x="371.42" y="-763.8" font-family="Arial" font-size="14.00"> The identifier of the entity set of participants.</text>
<polygon fill="none" stroke="black" points="141.9,-720.8 141.9,-751.6 976.1,-751.6 976.1,-720.8 141.9,-720.8"/>
<text text-anchor="start" x="148.9" y="-733" font-family="Arial" font-size="14.00">PARTICIPANTTASK_ID </text>
<text text-anchor="start" x="303.71" y="-733" font-family="Arial" font-size="14.00" fill="#666666">[bigint]</text>
<text text-anchor="start" x="344.95" y="-733" font-family="Arial" font-size="14.00"> This field contains the task id for the creation of the appraisal participants.</text>
<polygon fill="none" stroke="black" points="141.9,-690 141.9,-720.8 976.1,-720.8 976.1,-690 141.9,-690"/>
<text text-anchor="start" x="148.9" y="-702.2" font-family="Arial" font-size="14.00">INITTASK_ID </text>
<text text-anchor="start" x="237.58" y="-702.2" font-family="Arial" font-size="14.00" fill="#666666">[bigint]</text>
<text text-anchor="start" x="278.83" y="-702.2" font-family="Arial" font-size="14.00"> This field contains the task id for the kick&#45;off of the cycle appraisal.</text>
<polygon fill="none" stroke="black" points="141.9,-659.2 141.9,-690 976.1,-690 976.1,-659.2 141.9,-659.2"/>
<text text-anchor="start" x="148.9" y="-671.4" font-family="Arial" font-size="14.00">OPPORTUNITYTASK_ID </text>
<text text-anchor="start" x="312.26" y="-671.4" font-family="Arial" font-size="14.00" fill="#666666">[bigint]</text>
<text text-anchor="start" x="353.51" y="-671.4" font-family="Arial" font-size="14.00"> The identifier of the scheduled task for the opportunity creation.</text>
<polygon fill="none" stroke="black" points="141.9,-628.4 141.9,-659.2 976.1,-659.2 976.1,-628.4 141.9,-628.4"/>
<text text-anchor="start" x="148.9" y="-640.6" font-family="Arial" font-size="14.00">PAYOUTTASK_ID </text>
<text text-anchor="start" x="268.71" y="-640.6" font-family="Arial" font-size="14.00" fill="#666666">[bigint]</text>
<text text-anchor="start" x="309.95" y="-640.6" font-family="Arial" font-size="14.00"> The identifier of the scheduled task of the payout calculation.</text>
<polygon fill="none" stroke="black" points="141.9,-597.6 141.9,-628.4 976.1,-628.4 976.1,-597.6 141.9,-597.6"/>
<text text-anchor="start" x="148.9" y="-609.8" font-family="Arial" font-size="14.00">DELETETASK_ID </text>
<text text-anchor="start" x="265.6" y="-609.8" font-family="Arial" font-size="14.00" fill="#666666">[bigint]</text>
<text text-anchor="start" x="306.85" y="-609.8" font-family="Arial" font-size="14.00"> The identifier of the scheduled task of the reviews deletion.</text>
<polygon fill="none" stroke="black" points="141.9,-566.8 141.9,-597.6 976.1,-597.6 976.1,-566.8 141.9,-566.8"/>
<text text-anchor="start" x="148.9" y="-579" font-family="Arial" font-size="14.00">REVIEWENTITYSET_ID </text>
<text text-anchor="start" x="306.81" y="-579" font-family="Arial" font-size="14.00" fill="#666666">[bigint]</text>
<text text-anchor="start" x="348.06" y="-579" font-family="Arial" font-size="14.00"> EntitySet Review</text>
<polygon fill="none" stroke="black" points="141.9,-536 141.9,-566.8 976.1,-566.8 976.1,-536 141.9,-536"/>
<text text-anchor="start" x="148.9" y="-548.2" font-family="Arial" font-size="14.00">APPRAISALENTITYSET_ID </text>
<text text-anchor="start" x="329.4" y="-548.2" font-family="Arial" font-size="14.00" fill="#666666">[bigint]</text>
<text text-anchor="start" x="370.64" y="-548.2" font-family="Arial" font-size="14.00"> EntitySet Appraisal</text>
<polygon fill="none" stroke="black" points="141.9,-505.2 141.9,-536 976.1,-536 976.1,-505.2 141.9,-505.2"/>
<text text-anchor="start" x="148.9" y="-517.4" font-family="Arial" font-size="14.00">TEAMRATINGENTITYSET_ID </text>
<text text-anchor="start" x="343.36" y="-517.4" font-family="Arial" font-size="14.00" fill="#666666">[bigint]</text>
<text text-anchor="start" x="384.61" y="-517.4" font-family="Arial" font-size="14.00"> EntitySet Team Rating</text>
<polygon fill="none" stroke="black" points="141.9,-474.4 141.9,-505.2 976.1,-505.2 976.1,-474.4 141.9,-474.4"/>
<text text-anchor="start" x="148.9" y="-486.6" font-family="Arial" font-size="14.00">SHAREDIDENTIFIER </text>
<text text-anchor="start" x="288.91" y="-486.6" font-family="Arial" font-size="14.00" fill="#666666">[nvarchar(255)]</text>
<text text-anchor="start" x="383.84" y="-486.6" font-family="Arial" font-size="14.00"> Shared Identifier</text>
<polygon fill="none" stroke="black" points="141.9,-443.6 141.9,-474.4 976.1,-474.4 976.1,-443.6 141.9,-443.6"/>
<text text-anchor="start" x="148.9" y="-455.8" font-family="Arial" font-size="14.00">LISTAGENCY_ID </text>
<text text-anchor="start" x="263.26" y="-455.8" font-family="Arial" font-size="14.00" fill="#666666">[bigint]</text>
<text text-anchor="start" x="304.51" y="-455.8" font-family="Arial" font-size="14.00"> The Identifier of List Agency.</text>
<polygon fill="none" stroke="black" points="141.9,-412.8 141.9,-443.6 976.1,-443.6 976.1,-412.8 141.9,-412.8"/>
<text text-anchor="start" x="148.9" y="-425" font-family="Arial" font-size="14.00">WORKFLOW_ID </text>
<text text-anchor="start" x="258.57" y="-425" font-family="Arial" font-size="14.00" fill="#666666">[bigint]</text>
<text text-anchor="start" x="299.82" y="-425" font-family="Arial" font-size="14.00"> Indicates the workflow unique identifier</text>
<polygon fill="none" stroke="black" points="141.9,-382 141.9,-412.8 976.1,-412.8 976.1,-382 141.9,-382"/>
<text text-anchor="start" x="148.9" y="-394.2" font-family="Arial" font-size="14.00">INSERT_TIME </text>
<text text-anchor="start" x="245.35" y="-394.2" font-family="Arial" font-size="14.00" fill="#666666">[datetime2]</text>
<text text-anchor="start" x="314.62" y="-394.2" font-family="Arial" font-size="14.00"> Indicates the date and time of creation</text>
<polygon fill="none" stroke="black" points="141.9,-351.2 141.9,-382 976.1,-382 976.1,-351.2 141.9,-351.2"/>
<text text-anchor="start" x="148.9" y="-363.4" font-family="Arial" font-size="14.00">INSERT_USER </text>
<text text-anchor="start" x="250.81" y="-363.4" font-family="Arial" font-size="14.00" fill="#666666">[nvarchar(100)]</text>
<text text-anchor="start" x="345.74" y="-363.4" font-family="Arial" font-size="14.00"> Indicates the user who has created it</text>
<polygon fill="none" stroke="black" points="141.9,-320.4 141.9,-351.2 976.1,-351.2 976.1,-320.4 141.9,-320.4"/>
<text text-anchor="start" x="148.9" y="-332.6" font-family="Arial" font-size="14.00">INSERT_CLIENT </text>
<text text-anchor="start" x="261.7" y="-332.6" font-family="Arial" font-size="14.00" fill="#666666">[nvarchar(50)]</text>
<text text-anchor="start" x="348.84" y="-332.6" font-family="Arial" font-size="14.00"> Indicates the IP address from which it was created</text>
<polygon fill="none" stroke="black" points="141.9,-289.6 141.9,-320.4 976.1,-320.4 976.1,-289.6 141.9,-289.6"/>
<text text-anchor="start" x="148.9" y="-301.8" font-family="Arial" font-size="14.00">UPDATE_TIME </text>
<text text-anchor="start" x="250.8" y="-301.8" font-family="Arial" font-size="14.00" fill="#666666">[datetime2]</text>
<text text-anchor="start" x="320.06" y="-301.8" font-family="Arial" font-size="14.00"> Indicates the date and time of last update operation</text>
<polygon fill="none" stroke="black" points="141.9,-258.8 141.9,-289.6 976.1,-289.6 976.1,-258.8 141.9,-258.8"/>
<text text-anchor="start" x="148.9" y="-271" font-family="Arial" font-size="14.00">UPDATE_USER </text>
<text text-anchor="start" x="256.26" y="-271" font-family="Arial" font-size="14.00" fill="#666666">[nvarchar(100)]</text>
<text text-anchor="start" x="351.19" y="-271" font-family="Arial" font-size="14.00"> Indicates the user who has executed last update</text>
<polygon fill="none" stroke="black" points="141.9,-228 141.9,-258.8 976.1,-258.8 976.1,-228 141.9,-228"/>
<text text-anchor="start" x="148.9" y="-240.2" font-family="Arial" font-size="14.00">UPDATE_CLIENT </text>
<text text-anchor="start" x="267.15" y="-240.2" font-family="Arial" font-size="14.00" fill="#666666">[nvarchar(50)]</text>
<text text-anchor="start" x="354.29" y="-240.2" font-family="Arial" font-size="14.00"> Indicates the IP address from which was executed last update</text>
<polygon fill="none" stroke="black" points="141.9,-197.2 141.9,-228 976.1,-228 976.1,-197.2 141.9,-197.2"/>
<text text-anchor="start" x="148.9" y="-209.4" font-family="Arial" font-size="14.00">UPDATE_COUNT </text>
<text text-anchor="start" x="267.13" y="-209.4" font-family="Arial" font-size="14.00" fill="#666666">[int]</text>
<text text-anchor="start" x="289.7" y="-209.4" font-family="Arial" font-size="14.00"> Indicates how many update was executed since its creation</text>
<polygon fill="none" stroke="black" points="141.9,-166.4 141.9,-197.2 976.1,-197.2 976.1,-166.4 141.9,-166.4"/>
<text text-anchor="start" x="148.9" y="-178.6" font-family="Arial" font-size="14.00">SNAPSHOTDATE </text>
<text text-anchor="start" x="267.14" y="-178.6" font-family="Arial" font-size="14.00" fill="#666666">[date]</text>
<text text-anchor="start" x="302.17" y="-178.6" font-family="Arial" font-size="14.00"> Snapshot Date</text>
<polygon fill="none" stroke="black" points="141.9,-135.6 141.9,-166.4 976.1,-166.4 976.1,-135.6 141.9,-135.6"/>
<text text-anchor="start" x="148.9" y="-147.8" font-family="Arial" font-size="14.00">IS_TEAMRATING </text>
<text text-anchor="start" x="265.58" y="-147.8" font-family="Arial" font-size="14.00" fill="#666666">[smallint]</text>
<text text-anchor="start" x="320.82" y="-147.8" font-family="Arial" font-size="14.00"> Indicates whether the participants of this appraisal cycle are evaluated by only one reviewer.</text>
<polygon fill="none" stroke="black" points="141.9,-104.8 141.9,-135.6 976.1,-135.6 976.1,-104.8 141.9,-104.8"/>
<text text-anchor="start" x="148.9" y="-117" font-family="Arial" font-size="14.00">CALIBRATIONMODEL_ID </text>
<text text-anchor="start" x="317.71" y="-117" font-family="Arial" font-size="14.00" fill="#666666">[bigint]</text>
<text text-anchor="start" x="358.96" y="-117" font-family="Arial" font-size="14.00"> Calibration models to calculate evaluation scores based on an expected distribution</text>
<polygon fill="none" stroke="black" points="141.9,-74 141.9,-104.8 976.1,-104.8 976.1,-74 141.9,-74"/>
<text text-anchor="start" x="148.9" y="-86.2" font-family="Arial" font-size="14.00">VALIDATION_STATUS </text>
<text text-anchor="start" x="299.04" y="-86.2" font-family="Arial" font-size="14.00" fill="#666666">[bigint]</text>
<text text-anchor="start" x="340.29" y="-86.2" font-family="Arial" font-size="14.00"> Validation Status of an appraisal cycle</text>
<polygon fill="none" stroke="black" points="141.9,-43.2 141.9,-74 976.1,-74 976.1,-43.2 141.9,-43.2"/>
<text text-anchor="start" x="148.9" y="-55.4" font-family="Arial" font-size="14.00">VALIDATIONTASK_ID </text>
<text text-anchor="start" x="294.38" y="-55.4" font-family="Arial" font-size="14.00" fill="#666666">[nvarchar(50)]</text>
<text text-anchor="start" x="381.53" y="-55.4" font-family="Arial" font-size="14.00"> Id of the related validation task</text>
</g>
<!-- HR_CYCLEPARTICIPANT&#45;&gt;HR_APPRAISALCYCLE -->
<g id="edge2" class="edge">
<title>HR_CYCLEPARTICIPANT:APPRAISALCYCLE_ID&#45;&gt;HR_APPRAISALCYCLE:ID</title>
<path fill="none" stroke="black" d="M1082.88,-1799.72C1217.4,-1770.03 1122.73,-1136.6 977.1,-1136.6"/>
<polygon fill="black" stroke="black" points="1083.07,-1799.7 1072.65,-1796.29 1077.77,-1800.27 1073.46,-1800.73 1073.46,-1800.73 1073.46,-1800.73 1077.77,-1800.27 1073.61,-1805.24 1083.07,-1799.7"/>
</g>
<!-- HR_CYCLEPARTICREVIEWER -->
<g id="node2" class="node">
<title>HR_CYCLEPARTICREVIEWER</title>
<polygon fill="#efefef" stroke="none" points="255.53,-2542 255.53,-2588 862.47,-2588 862.47,-2542 255.53,-2542"/>
<polygon fill="none" stroke="black" points="255.53,-2542 255.53,-2588 862.47,-2588 862.47,-2542 255.53,-2542"/>
<text text-anchor="start" x="369.42" y="-2565.8" font-family="Arial Bold" font-size="18.00">HR_CYCLEPARTICREVIEWER</text>
<text text-anchor="start" x="619.42" y="-2565.8" font-family="Arial" font-size="14.00">    </text>
<text text-anchor="start" x="650.54" y="-2565.8" font-family="Arial" font-size="14.00" fill="#666666">[BASIC TABLE]</text>
<text text-anchor="start" x="310.01" y="-2551.4" font-family="Arial" font-size="14.00" fill="#333333">Cycle Participant Reviewer &#45; Contains reviewers/evaluators of cycle participants.</text>
<polygon fill="none" stroke="black" points="255.53,-2511.2 255.53,-2542 862.47,-2542 862.47,-2511.2 255.53,-2511.2"/>
<text text-anchor="start" x="262.53" y="-2523.4" font-family="Arial" font-size="14.00">ID </text>
<text text-anchor="start" x="280.42" y="-2523.4" font-family="Arial" font-size="14.00" fill="#666666">[bigint]</text>
<text text-anchor="start" x="321.67" y="-2523.4" font-family="Arial" font-size="14.00"> Indicates the unique identifier</text>
<polygon fill="none" stroke="black" points="255.53,-2480.4 255.53,-2511.2 862.47,-2511.2 862.47,-2480.4 255.53,-2480.4"/>
<text text-anchor="start" x="262.53" y="-2492.6" font-family="Arial" font-size="14.00">PERSONPARTICIPANT_ID </text>
<text text-anchor="start" x="439.9" y="-2492.6" font-family="Arial" font-size="14.00" fill="#666666">[bigint]</text>
<text text-anchor="start" x="481.14" y="-2492.6" font-family="Arial" font-size="14.00"> The person being evaluated.</text>
<polygon fill="none" stroke="black" points="255.53,-2449.6 255.53,-2480.4 862.47,-2480.4 862.47,-2449.6 255.53,-2449.6"/>
<text text-anchor="start" x="262.53" y="-2461.8" font-family="Arial" font-size="14.00">REVIEWERPERSON_ID </text>
<text text-anchor="start" x="422.01" y="-2461.8" font-family="Arial" font-size="14.00" fill="#666666">[bigint]</text>
<text text-anchor="start" x="463.25" y="-2461.8" font-family="Arial" font-size="14.00"> The person who issued the assessment.</text>
<polygon fill="none" stroke="black" points="255.53,-2418.8 255.53,-2449.6 862.47,-2449.6 862.47,-2418.8 255.53,-2418.8"/>
<text text-anchor="start" x="262.53" y="-2431" font-family="Arial" font-size="14.00">USERGROUP_ID </text>
<text text-anchor="start" x="378.44" y="-2431" font-family="Arial" font-size="14.00" fill="#666666">[bigint]</text>
<text text-anchor="start" x="419.69" y="-2431" font-family="Arial" font-size="14.00"> The user group in charge of an assessment.</text>
<polygon fill="none" stroke="black" points="255.53,-2388 255.53,-2418.8 862.47,-2418.8 862.47,-2388 255.53,-2388"/>
<text text-anchor="start" x="262.53" y="-2400.2" font-family="Arial" font-size="14.00">WEIGHT </text>
<text text-anchor="start" x="322.41" y="-2400.2" font-family="Arial" font-size="14.00" fill="#666666">[decimal]</text>
<text text-anchor="start" x="378.43" y="-2400.2" font-family="Arial" font-size="14.00"> Indicates the weighting as a percentage</text>
<polygon fill="none" stroke="black" points="255.53,-2357.2 255.53,-2388 862.47,-2388 862.47,-2357.2 255.53,-2357.2"/>
<text text-anchor="start" x="262.53" y="-2369.4" font-family="Arial" font-size="14.00">CYCLEREVIEWERROLES_ID </text>
<text text-anchor="start" x="457.03" y="-2369.4" font-family="Arial" font-size="14.00" fill="#666666">[bigint]</text>
<text text-anchor="start" x="498.27" y="-2369.4" font-family="Arial" font-size="14.00"> The role of the reviewer.</text>
<polygon fill="none" stroke="black" points="255.53,-2326.4 255.53,-2357.2 862.47,-2357.2 862.47,-2326.4 255.53,-2326.4"/>
<text text-anchor="start" x="262.53" y="-2338.6" font-family="Arial" font-size="14.00">APPRAISALFORM_ID </text>
<text text-anchor="start" x="407.23" y="-2338.6" font-family="Arial" font-size="14.00" fill="#666666">[bigint]</text>
<text text-anchor="start" x="448.48" y="-2338.6" font-family="Arial" font-size="14.00"> The appraisal form to be used</text>
<polygon fill="none" stroke="black" points="255.53,-2295.6 255.53,-2326.4 862.47,-2326.4 862.47,-2295.6 255.53,-2295.6"/>
<text text-anchor="start" x="262.53" y="-2307.8" font-family="Arial" font-size="14.00">SHAREDIDENTIFIER </text>
<text text-anchor="start" x="402.54" y="-2307.8" font-family="Arial" font-size="14.00" fill="#666666">[nvarchar(255)]</text>
<text text-anchor="start" x="497.47" y="-2307.8" font-family="Arial" font-size="14.00"> Shared Identifier</text>
<polygon fill="none" stroke="black" points="255.53,-2264.8 255.53,-2295.6 862.47,-2295.6 862.47,-2264.8 255.53,-2264.8"/>
<text text-anchor="start" x="262.53" y="-2277" font-family="Arial" font-size="14.00">LISTAGENCY_ID </text>
<text text-anchor="start" x="376.9" y="-2277" font-family="Arial" font-size="14.00" fill="#666666">[bigint]</text>
<text text-anchor="start" x="418.14" y="-2277" font-family="Arial" font-size="14.00"> The Identifier of List Agency.</text>
<polygon fill="none" stroke="black" points="255.53,-2234 255.53,-2264.8 862.47,-2264.8 862.47,-2234 255.53,-2234"/>
<text text-anchor="start" x="262.53" y="-2246.2" font-family="Arial" font-size="14.00">WORKFLOW_ID </text>
<text text-anchor="start" x="372.2" y="-2246.2" font-family="Arial" font-size="14.00" fill="#666666">[bigint]</text>
<text text-anchor="start" x="413.45" y="-2246.2" font-family="Arial" font-size="14.00"> Indicates the workflow unique identifier</text>
<polygon fill="none" stroke="black" points="255.53,-2203.2 255.53,-2234 862.47,-2234 862.47,-2203.2 255.53,-2203.2"/>
<text text-anchor="start" x="262.53" y="-2215.4" font-family="Arial" font-size="14.00">INSERT_TIME </text>
<text text-anchor="start" x="358.99" y="-2215.4" font-family="Arial" font-size="14.00" fill="#666666">[datetime2]</text>
<text text-anchor="start" x="428.25" y="-2215.4" font-family="Arial" font-size="14.00"> Indicates the date and time of creation</text>
<polygon fill="none" stroke="black" points="255.53,-2172.4 255.53,-2203.2 862.47,-2203.2 862.47,-2172.4 255.53,-2172.4"/>
<text text-anchor="start" x="262.53" y="-2184.6" font-family="Arial" font-size="14.00">INSERT_USER </text>
<text text-anchor="start" x="364.44" y="-2184.6" font-family="Arial" font-size="14.00" fill="#666666">[nvarchar(100)]</text>
<text text-anchor="start" x="459.37" y="-2184.6" font-family="Arial" font-size="14.00"> Indicates the user who has created it</text>
<polygon fill="none" stroke="black" points="255.53,-2141.6 255.53,-2172.4 862.47,-2172.4 862.47,-2141.6 255.53,-2141.6"/>
<text text-anchor="start" x="262.53" y="-2153.8" font-family="Arial" font-size="14.00">INSERT_CLIENT </text>
<text text-anchor="start" x="375.33" y="-2153.8" font-family="Arial" font-size="14.00" fill="#666666">[nvarchar(50)]</text>
<text text-anchor="start" x="462.47" y="-2153.8" font-family="Arial" font-size="14.00"> Indicates the IP address from which it was created</text>
<polygon fill="none" stroke="black" points="255.53,-2110.8 255.53,-2141.6 862.47,-2141.6 862.47,-2110.8 255.53,-2110.8"/>
<text text-anchor="start" x="262.53" y="-2123" font-family="Arial" font-size="14.00">UPDATE_TIME </text>
<text text-anchor="start" x="364.43" y="-2123" font-family="Arial" font-size="14.00" fill="#666666">[datetime2]</text>
<text text-anchor="start" x="433.7" y="-2123" font-family="Arial" font-size="14.00"> Indicates the date and time of last update operation</text>
<polygon fill="none" stroke="black" points="255.53,-2080 255.53,-2110.8 862.47,-2110.8 862.47,-2080 255.53,-2080"/>
<text text-anchor="start" x="262.53" y="-2092.2" font-family="Arial" font-size="14.00">UPDATE_USER </text>
<text text-anchor="start" x="369.89" y="-2092.2" font-family="Arial" font-size="14.00" fill="#666666">[nvarchar(100)]</text>
<text text-anchor="start" x="464.82" y="-2092.2" font-family="Arial" font-size="14.00"> Indicates the user who has executed last update</text>
<polygon fill="none" stroke="black" points="255.53,-2049.2 255.53,-2080 862.47,-2080 862.47,-2049.2 255.53,-2049.2"/>
<text text-anchor="start" x="262.53" y="-2061.4" font-family="Arial" font-size="14.00">UPDATE_CLIENT </text>
<text text-anchor="start" x="380.78" y="-2061.4" font-family="Arial" font-size="14.00" fill="#666666">[nvarchar(50)]</text>
<text text-anchor="start" x="467.92" y="-2061.4" font-family="Arial" font-size="14.00"> Indicates the IP address from which was executed last update</text>
<polygon fill="none" stroke="black" points="255.53,-2018.4 255.53,-2049.2 862.47,-2049.2 862.47,-2018.4 255.53,-2018.4"/>
<text text-anchor="start" x="262.53" y="-2030.6" font-family="Arial" font-size="14.00">UPDATE_COUNT </text>
<text text-anchor="start" x="380.76" y="-2030.6" font-family="Arial" font-size="14.00" fill="#666666">[int]</text>
<text text-anchor="start" x="403.33" y="-2030.6" font-family="Arial" font-size="14.00"> Indicates how many update was executed since its creation</text>
</g>
<!-- HR_CYCLEPARTICREVIEWER&#45;&gt;HR_CYCLEPARTICIPANT -->
<g id="edge1" class="edge">
<title>HR_CYCLEPARTICREVIEWER:PERSONPARTICIPANT_ID&#45;&gt;HR_CYCLEPARTICIPANT:ID</title>
<path fill="none" stroke="black" d="M873.51,-2494.89C1027.05,-2467.57 1224.23,-1831.6 1072.8,-1831.6"/>
<polygon fill="black" stroke="black" points="873.76,-2494.87 863.39,-2491.29 868.45,-2495.35 864.13,-2495.74 864.13,-2495.74 864.13,-2495.74 868.45,-2495.35 864.2,-2500.25 873.76,-2494.87"/>
</g>
</g>
</svg>
