<?xml version="1.0" encoding="UTF-8" standalone="no"?>
<!DOCTYPE svg PUBLIC "-//W3C//DTD SVG 1.1//EN"
 "http://www.w3.org/Graphics/SVG/1.1/DTD/svg11.dtd">
<!-- Generated by graphviz version 12.1.2 (20240928.0832)
 -->
<!-- Title: HR_OUCURRENTFIRSTLEVELS_VIEW Pages: 1 -->
<svg width="913pt" height="578pt"
 viewBox="0.00 0.00 913.35 577.60" xmlns="http://www.w3.org/2000/svg" xmlns:xlink="http://www.w3.org/1999/xlink">
<g id="graph0" class="graph" transform="scale(1 1) rotate(0) translate(4 573.6)">
<title>HR_OUCURRENTFIRSTLEVELS_VIEW</title>
<polygon fill="white" stroke="none" points="-4,4 -4,-573.6 909.35,-573.6 909.35,4 -4,4"/>
<!-- HR_OUCURRENTFIRSTLEVELS_VIEW -->
<g id="node1" class="node">
<title>HR_OUCURRENTFIRSTLEVELS_VIEW</title>
<polygon fill="#efefef" stroke="none" points="46.2,-477.4 46.2,-523.4 859.15,-523.4 859.15,-477.4 46.2,-477.4"/>
<polygon fill="none" stroke="black" points="46.2,-477.4 46.2,-523.4 859.15,-523.4 859.15,-477.4 46.2,-477.4"/>
<text text-anchor="start" x="257.34" y="-501.2" font-family="Arial Bold" font-size="18.00">HR_OUCURRENTFIRSTLEVELS_VIEW</text>
<text text-anchor="start" x="573.33" y="-501.2" font-family="Arial" font-size="14.00">    </text>
<text text-anchor="start" x="604.45" y="-501.2" font-family="Arial" font-size="14.00" fill="#666666">[VIEW]</text>
<text text-anchor="start" x="53.2" y="-486.8" font-family="Arial" font-size="14.00" fill="#333333">Organisational Unit First Levels &#45; Reports the Org. Units in the first &quot;n&quot; levels of the current version of the Organisational structure</text>
<polygon fill="none" stroke="black" points="46.2,-446.6 46.2,-477.4 859.15,-477.4 859.15,-446.6 46.2,-446.6"/>
<text text-anchor="start" x="53.2" y="-458.8" font-family="Arial" font-size="14.00">ID </text>
<text text-anchor="start" x="71.09" y="-458.8" font-family="Arial" font-size="14.00" fill="#666666">[bigint]</text>
<text text-anchor="start" x="112.34" y="-458.8" font-family="Arial" font-size="14.00"> Indicates the unique identifier</text>
<polygon fill="none" stroke="black" points="46.2,-415.8 46.2,-446.6 859.15,-446.6 859.15,-415.8 46.2,-415.8"/>
<text text-anchor="start" x="53.2" y="-428" font-family="Arial" font-size="14.00">ORGUNIT_ID </text>
<text text-anchor="start" x="143.43" y="-428" font-family="Arial" font-size="14.00" fill="#666666">[bigint]</text>
<text text-anchor="start" x="184.68" y="-428" font-family="Arial" font-size="14.00"> Organizational Unit</text>
<polygon fill="none" stroke="black" points="46.2,-385 46.2,-415.8 859.15,-415.8 859.15,-385 46.2,-385"/>
<text text-anchor="start" x="53.2" y="-397.2" font-family="Arial" font-size="14.00">OU_LEVEL </text>
<text text-anchor="start" x="129.46" y="-397.2" font-family="Arial" font-size="14.00" fill="#666666">[int]</text>
<text text-anchor="start" x="152.03" y="-397.2" font-family="Arial" font-size="14.00"> OU level in the structure tree</text>
<polygon fill="none" stroke="black" points="46.2,-354.2 46.2,-385 859.15,-385 859.15,-354.2 46.2,-354.2"/>
<text text-anchor="start" x="53.2" y="-366.4" font-family="Arial" font-size="14.00">SORT_TREEORDER </text>
<text text-anchor="start" x="191.66" y="-366.4" font-family="Arial" font-size="14.00" fill="#666666">[bigint]</text>
<text text-anchor="start" x="232.91" y="-366.4" font-family="Arial" font-size="14.00"> Indicates the order position of the item in the tree</text>
<polygon fill="none" stroke="black" points="46.2,-323.4 46.2,-354.2 859.15,-354.2 859.15,-323.4 46.2,-323.4"/>
<text text-anchor="start" x="53.2" y="-335.6" font-family="Arial" font-size="14.00">OU_LEV1_ID </text>
<text text-anchor="start" x="141.91" y="-335.6" font-family="Arial" font-size="14.00" fill="#666666">[bigint]</text>
<text text-anchor="start" x="183.16" y="-335.6" font-family="Arial" font-size="14.00"> OU root at first level in the branch</text>
<polygon fill="none" stroke="black" points="46.2,-292.6 46.2,-323.4 859.15,-323.4 859.15,-292.6 46.2,-292.6"/>
<text text-anchor="start" x="53.2" y="-304.8" font-family="Arial" font-size="14.00">OU_LEV2_ID </text>
<text text-anchor="start" x="141.91" y="-304.8" font-family="Arial" font-size="14.00" fill="#666666">[bigint]</text>
<text text-anchor="start" x="183.16" y="-304.8" font-family="Arial" font-size="14.00"> OU root at second level in the branch</text>
<polygon fill="none" stroke="black" points="46.2,-261.8 46.2,-292.6 859.15,-292.6 859.15,-261.8 46.2,-261.8"/>
<text text-anchor="start" x="53.2" y="-274" font-family="Arial" font-size="14.00">OU_LEV3_ID </text>
<text text-anchor="start" x="141.91" y="-274" font-family="Arial" font-size="14.00" fill="#666666">[bigint]</text>
<text text-anchor="start" x="183.16" y="-274" font-family="Arial" font-size="14.00"> OU root at third level in the branch</text>
<polygon fill="none" stroke="black" points="46.2,-231 46.2,-261.8 859.15,-261.8 859.15,-231 46.2,-231"/>
<text text-anchor="start" x="53.2" y="-243.2" font-family="Arial" font-size="14.00">OU_LEV4_ID </text>
<text text-anchor="start" x="141.91" y="-243.2" font-family="Arial" font-size="14.00" fill="#666666">[bigint]</text>
<text text-anchor="start" x="183.16" y="-243.2" font-family="Arial" font-size="14.00"> OU root at fourth level in the branch</text>
<polygon fill="none" stroke="black" points="46.2,-200.2 46.2,-231 859.15,-231 859.15,-200.2 46.2,-200.2"/>
<text text-anchor="start" x="53.2" y="-212.4" font-family="Arial" font-size="14.00">OU_LEV5_ID </text>
<text text-anchor="start" x="141.91" y="-212.4" font-family="Arial" font-size="14.00" fill="#666666">[bigint]</text>
<text text-anchor="start" x="183.16" y="-212.4" font-family="Arial" font-size="14.00"> Root of the organisational unit at the fifth level in the branch</text>
<polygon fill="none" stroke="black" points="46.2,-169.4 46.2,-200.2 859.15,-200.2 859.15,-169.4 46.2,-169.4"/>
<text text-anchor="start" x="53.2" y="-181.6" font-family="Arial" font-size="14.00">OU_LEV6_ID </text>
<text text-anchor="start" x="141.91" y="-181.6" font-family="Arial" font-size="14.00" fill="#666666">[bigint]</text>
<text text-anchor="start" x="183.16" y="-181.6" font-family="Arial" font-size="14.00"> Root of the Organisational unit at the sixth level in the branch</text>
<polygon fill="none" stroke="black" points="46.2,-138.6 46.2,-169.4 859.15,-169.4 859.15,-138.6 46.2,-138.6"/>
<text text-anchor="start" x="53.2" y="-150.8" font-family="Arial" font-size="14.00">OU_LEV7_ID </text>
<text text-anchor="start" x="141.91" y="-150.8" font-family="Arial" font-size="14.00" fill="#666666">[bigint]</text>
<text text-anchor="start" x="183.16" y="-150.8" font-family="Arial" font-size="14.00"> OU root at seventh level in the branch</text>
<polygon fill="none" stroke="black" points="46.2,-107.8 46.2,-138.6 859.15,-138.6 859.15,-107.8 46.2,-107.8"/>
<text text-anchor="start" x="53.2" y="-120" font-family="Arial" font-size="14.00">OU_LEV8_ID </text>
<text text-anchor="start" x="141.91" y="-120" font-family="Arial" font-size="14.00" fill="#666666">[bigint]</text>
<text text-anchor="start" x="183.16" y="-120" font-family="Arial" font-size="14.00"> OU root at eighth level in the branch</text>
<polygon fill="none" stroke="black" points="46.2,-77 46.2,-107.8 859.15,-107.8 859.15,-77 46.2,-77"/>
<text text-anchor="start" x="53.2" y="-89.2" font-family="Arial" font-size="14.00">OU_LEV9_ID </text>
<text text-anchor="start" x="141.91" y="-89.2" font-family="Arial" font-size="14.00" fill="#666666">[bigint]</text>
<text text-anchor="start" x="183.16" y="-89.2" font-family="Arial" font-size="14.00"> Root UO at ninth level in the branch.</text>
<polygon fill="none" stroke="black" points="46.2,-46.2 46.2,-77 859.15,-77 859.15,-46.2 46.2,-46.2"/>
<text text-anchor="start" x="53.2" y="-58.4" font-family="Arial" font-size="14.00">OU_LEV10_ID </text>
<text text-anchor="start" x="149.7" y="-58.4" font-family="Arial" font-size="14.00" fill="#666666">[bigint]</text>
<text text-anchor="start" x="190.94" y="-58.4" font-family="Arial" font-size="14.00"> UO root at tenth level in the branch.</text>
<polygon fill="none" stroke="black" stroke-width="3" points="44.7,-44.7 44.7,-524.9 860.65,-524.9 860.65,-44.7 44.7,-44.7"/>
</g>
</g>
</svg>
