<?xml version="1.0" encoding="UTF-8" standalone="no"?>
<!DOCTYPE svg PUBLIC "-//W3C//DTD SVG 1.1//EN"
 "http://www.w3.org/Graphics/SVG/1.1/DTD/svg11.dtd">
<!-- Generated by graphviz version 12.1.2 (20240928.0832)
 -->
<!-- Title: HR_Z_IMPORTPAYLOADS Pages: 1 -->
<svg width="1210pt" height="1454pt"
 viewBox="0.00 0.00 1209.96 1454.40" xmlns="http://www.w3.org/2000/svg" xmlns:xlink="http://www.w3.org/1999/xlink">
<g id="graph0" class="graph" transform="scale(1 1) rotate(0) translate(4 1450.4)">
<title>HR_Z_IMPORTPAYLOADS</title>
<polygon fill="white" stroke="none" points="-4,4 -4,-1450.4 1205.96,-1450.4 1205.96,4 -4,4"/>
<!-- HR_Z_IMPORTPAYLOADS -->
<g id="node1" class="node">
<title>HR_Z_IMPORTPAYLOADS</title>
<polygon fill="#efefef" stroke="none" points="46.2,-1354.2 46.2,-1400.2 1155.76,-1400.2 1155.76,-1354.2 46.2,-1354.2"/>
<polygon fill="none" stroke="black" points="46.2,-1354.2 46.2,-1400.2 1155.76,-1400.2 1155.76,-1354.2 46.2,-1354.2"/>
<text text-anchor="start" x="427.39" y="-1378" font-family="Arial Bold" font-size="18.00">HR_Z_IMPORTPAYLOADS</text>
<text text-anchor="start" x="645.42" y="-1378" font-family="Arial" font-size="14.00">    </text>
<text text-anchor="start" x="676.53" y="-1378" font-family="Arial" font-size="14.00" fill="#666666">[BASIC TABLE]</text>
<text text-anchor="start" x="295.91" y="-1363.6" font-family="Arial" font-size="14.00" fill="#333333">Payload Staging Table &#45; Payload staging table: it contains the imported payloads for a given entity.</text>
<polygon fill="none" stroke="black" points="46.2,-1323.4 46.2,-1354.2 1155.76,-1354.2 1155.76,-1323.4 46.2,-1323.4"/>
<text text-anchor="start" x="53.2" y="-1335.6" font-family="Arial" font-size="14.00">ID </text>
<text text-anchor="start" x="71.09" y="-1335.6" font-family="Arial" font-size="14.00" fill="#666666">[bigint]</text>
<text text-anchor="start" x="112.34" y="-1335.6" font-family="Arial" font-size="14.00"> Indicates the unique identifier</text>
<polygon fill="none" stroke="black" points="46.2,-1292.6 46.2,-1323.4 1155.76,-1323.4 1155.76,-1292.6 46.2,-1292.6"/>
<text text-anchor="start" x="53.2" y="-1304.8" font-family="Arial" font-size="14.00">FLOW_ID </text>
<text text-anchor="start" x="119.32" y="-1304.8" font-family="Arial" font-size="14.00" fill="#666666">[bigint]</text>
<text text-anchor="start" x="160.57" y="-1304.8" font-family="Arial" font-size="14.00"> Flow identifier.</text>
<polygon fill="none" stroke="black" points="46.2,-1261.8 46.2,-1292.6 1155.76,-1292.6 1155.76,-1261.8 46.2,-1261.8"/>
<text text-anchor="start" x="53.2" y="-1274" font-family="Arial" font-size="14.00">PAYLOAD </text>
<text text-anchor="start" x="123.23" y="-1274" font-family="Arial" font-size="14.00" fill="#666666">[nvarchar(MAX)]</text>
<text text-anchor="start" x="225.14" y="-1274" font-family="Arial" font-size="14.00"> Payload expressed as an XML document.</text>
<polygon fill="none" stroke="black" points="46.2,-1231 46.2,-1261.8 1155.76,-1261.8 1155.76,-1231 46.2,-1231"/>
<text text-anchor="start" x="53.2" y="-1243.2" font-family="Arial" font-size="14.00">STATUS </text>
<text text-anchor="start" x="112.32" y="-1243.2" font-family="Arial" font-size="14.00" fill="#666666">[char]</text>
<text text-anchor="start" x="147.33" y="-1243.2" font-family="Arial" font-size="14.00"> Payload processing status. Possible values: I &#45; inserted; X &#45; executed.</text>
<polygon fill="none" stroke="black" points="46.2,-1200.2 46.2,-1231 1155.76,-1231 1155.76,-1200.2 46.2,-1200.2"/>
<text text-anchor="start" x="53.2" y="-1212.4" font-family="Arial" font-size="14.00">PERSON_SHAREDIDENTIFIER </text>
<text text-anchor="start" x="260.12" y="-1212.4" font-family="Arial" font-size="14.00" fill="#666666">[nvarchar(60)]</text>
<text text-anchor="start" x="347.27" y="-1212.4" font-family="Arial" font-size="14.00"> Person Shared Identifier</text>
<polygon fill="none" stroke="black" points="46.2,-1169.4 46.2,-1200.2 1155.76,-1200.2 1155.76,-1169.4 46.2,-1169.4"/>
<text text-anchor="start" x="53.2" y="-1181.6" font-family="Arial" font-size="14.00">NEXTCOMPANY </text>
<text text-anchor="start" x="165.21" y="-1181.6" font-family="Arial" font-size="14.00" fill="#666666">[nvarchar(16)]</text>
<text text-anchor="start" x="252.36" y="-1181.6" font-family="Arial" font-size="14.00"> Company where the Employee is moved to.</text>
<polygon fill="none" stroke="black" points="46.2,-1138.6 46.2,-1169.4 1155.76,-1169.4 1155.76,-1138.6 46.2,-1138.6"/>
<text text-anchor="start" x="53.2" y="-1150.8" font-family="Arial" font-size="14.00">NEXTEMPID </text>
<text text-anchor="start" x="138.77" y="-1150.8" font-family="Arial" font-size="14.00" fill="#666666">[nvarchar(12)]</text>
<text text-anchor="start" x="225.91" y="-1150.8" font-family="Arial" font-size="14.00"> Employee identifier after the move.</text>
<polygon fill="none" stroke="black" points="46.2,-1107.8 46.2,-1138.6 1155.76,-1138.6 1155.76,-1107.8 46.2,-1107.8"/>
<text text-anchor="start" x="53.2" y="-1120" font-family="Arial" font-size="14.00">NEXTFROMDATE </text>
<text text-anchor="start" x="172.98" y="-1120" font-family="Arial" font-size="14.00" fill="#666666">[nvarchar(10)]</text>
<text text-anchor="start" x="260.12" y="-1120" font-family="Arial" font-size="14.00"> Effective start date after the move.</text>
<polygon fill="none" stroke="black" points="46.2,-1077 46.2,-1107.8 1155.76,-1107.8 1155.76,-1077 46.2,-1077"/>
<text text-anchor="start" x="53.2" y="-1089.2" font-family="Arial" font-size="14.00">STATUSWORD </text>
<text text-anchor="start" x="156.64" y="-1089.2" font-family="Arial" font-size="14.00" fill="#666666">[nvarchar(2000)]</text>
<text text-anchor="start" x="259.36" y="-1089.2" font-family="Arial" font-size="14.00"> JSON data structure indicating a status for each entity in a payload coming from Zucchetti. Possible values: I &#45; inserted; X &#45; executed; E &#45; Error.</text>
<polygon fill="none" stroke="black" points="46.2,-1046.2 46.2,-1077 1155.76,-1077 1155.76,-1046.2 46.2,-1046.2"/>
<text text-anchor="start" x="53.2" y="-1058.4" font-family="Arial" font-size="14.00">INSERT_TIME </text>
<text text-anchor="start" x="149.66" y="-1058.4" font-family="Arial" font-size="14.00" fill="#666666">[datetime2]</text>
<text text-anchor="start" x="218.92" y="-1058.4" font-family="Arial" font-size="14.00"> Indicates the date and time of creation</text>
<polygon fill="none" stroke="black" points="46.2,-1015.4 46.2,-1046.2 1155.76,-1046.2 1155.76,-1015.4 46.2,-1015.4"/>
<text text-anchor="start" x="53.2" y="-1027.6" font-family="Arial" font-size="14.00">INSERT_CLIENT </text>
<text text-anchor="start" x="166" y="-1027.6" font-family="Arial" font-size="14.00" fill="#666666">[nvarchar(50)]</text>
<text text-anchor="start" x="253.14" y="-1027.6" font-family="Arial" font-size="14.00"> Indicates the IP address from which it was created</text>
<polygon fill="none" stroke="black" points="46.2,-984.6 46.2,-1015.4 1155.76,-1015.4 1155.76,-984.6 46.2,-984.6"/>
<text text-anchor="start" x="53.2" y="-996.8" font-family="Arial" font-size="14.00">UPDATE_TIME </text>
<text text-anchor="start" x="155.1" y="-996.8" font-family="Arial" font-size="14.00" fill="#666666">[datetime2]</text>
<text text-anchor="start" x="224.37" y="-996.8" font-family="Arial" font-size="14.00"> Indicates the date and time of last update operation</text>
<polygon fill="none" stroke="black" points="46.2,-953.8 46.2,-984.6 1155.76,-984.6 1155.76,-953.8 46.2,-953.8"/>
<text text-anchor="start" x="53.2" y="-966" font-family="Arial" font-size="14.00">UPDATE_USER </text>
<text text-anchor="start" x="160.56" y="-966" font-family="Arial" font-size="14.00" fill="#666666">[nvarchar(100)]</text>
<text text-anchor="start" x="255.49" y="-966" font-family="Arial" font-size="14.00"> Indicates the user who has executed last update</text>
<polygon fill="none" stroke="black" points="46.2,-923 46.2,-953.8 1155.76,-953.8 1155.76,-923 46.2,-923"/>
<text text-anchor="start" x="53.2" y="-935.2" font-family="Arial" font-size="14.00">UPDATE_CLIENT </text>
<text text-anchor="start" x="171.45" y="-935.2" font-family="Arial" font-size="14.00" fill="#666666">[nvarchar(50)]</text>
<text text-anchor="start" x="258.59" y="-935.2" font-family="Arial" font-size="14.00"> Indicates the IP address from which was executed last update</text>
<polygon fill="none" stroke="black" points="46.2,-892.2 46.2,-923 1155.76,-923 1155.76,-892.2 46.2,-892.2"/>
<text text-anchor="start" x="53.2" y="-904.4" font-family="Arial" font-size="14.00">UPDATE_COUNT </text>
<text text-anchor="start" x="171.43" y="-904.4" font-family="Arial" font-size="14.00" fill="#666666">[int]</text>
<text text-anchor="start" x="194" y="-904.4" font-family="Arial" font-size="14.00"> Indicates how many update was executed since its creation</text>
<polygon fill="none" stroke="black" points="46.2,-861.4 46.2,-892.2 1155.76,-892.2 1155.76,-861.4 46.2,-861.4"/>
<text text-anchor="start" x="53.2" y="-873.6" font-family="Arial" font-size="14.00">INSERT_USER </text>
<text text-anchor="start" x="155.11" y="-873.6" font-family="Arial" font-size="14.00" fill="#666666">[nvarchar(100)]</text>
<text text-anchor="start" x="250.04" y="-873.6" font-family="Arial" font-size="14.00"> Indicates the user who has created it</text>
<polygon fill="none" stroke="black" points="46.2,-830.6 46.2,-861.4 1155.76,-861.4 1155.76,-830.6 46.2,-830.6"/>
<text text-anchor="start" x="53.2" y="-842.8" font-family="Arial" font-size="14.00">WORKFLOW_ID </text>
<text text-anchor="start" x="162.87" y="-842.8" font-family="Arial" font-size="14.00" fill="#666666">[bigint]</text>
<text text-anchor="start" x="204.12" y="-842.8" font-family="Arial" font-size="14.00"> Indicates the workflow unique identifier</text>
<polygon fill="none" stroke="black" stroke-width="3" points="44.7,-829.1 44.7,-1401.7 1157.26,-1401.7 1157.26,-829.1 44.7,-829.1"/>
</g>
<!-- HR_Z_IMPORTHEADER -->
<g id="node2" class="node">
<title>HR_Z_IMPORTHEADER</title>
<polygon fill="#efefef" stroke="none" points="89.72,-659.2 89.72,-705.2 1112.24,-705.2 1112.24,-659.2 89.72,-659.2"/>
<polygon fill="none" stroke="black" points="89.72,-659.2 89.72,-705.2 1112.24,-705.2 1112.24,-659.2 89.72,-659.2"/>
<text text-anchor="start" x="438.9" y="-683" font-family="Arial Bold" font-size="18.00">HR_Z_IMPORTHEADER</text>
<text text-anchor="start" x="633.91" y="-683" font-family="Arial" font-size="14.00">    </text>
<text text-anchor="start" x="665.02" y="-683" font-family="Arial" font-size="14.00" fill="#666666">[BASIC TABLE]</text>
<text text-anchor="start" x="144.16" y="-668.6" font-family="Arial" font-size="14.00" fill="#333333">Staging Table &#45; Header staging table: it contains the inbound flow definitions, along with the web service definitions and the statistics for executions.</text>
<polygon fill="none" stroke="black" points="89.72,-628.4 89.72,-659.2 1112.24,-659.2 1112.24,-628.4 89.72,-628.4"/>
<text text-anchor="start" x="96.72" y="-640.6" font-family="Arial" font-size="14.00">ID </text>
<text text-anchor="start" x="114.61" y="-640.6" font-family="Arial" font-size="14.00" fill="#666666">[bigint]</text>
<text text-anchor="start" x="155.86" y="-640.6" font-family="Arial" font-size="14.00"> Indicates the unique identifier</text>
<polygon fill="none" stroke="black" points="89.72,-597.6 89.72,-628.4 1112.24,-628.4 1112.24,-597.6 89.72,-597.6"/>
<text text-anchor="start" x="96.72" y="-609.8" font-family="Arial" font-size="14.00">FLOWCODE </text>
<text text-anchor="start" x="181.5" y="-609.8" font-family="Arial" font-size="14.00" fill="#666666">[nvarchar(50)]</text>
<text text-anchor="start" x="268.64" y="-609.8" font-family="Arial" font-size="14.00"> Code identifying the entities to be imported.</text>
<polygon fill="none" stroke="black" points="89.72,-566.8 89.72,-597.6 1112.24,-597.6 1112.24,-566.8 89.72,-566.8"/>
<text text-anchor="start" x="96.72" y="-579" font-family="Arial" font-size="14.00">WSRESOURCE </text>
<text text-anchor="start" x="202.5" y="-579" font-family="Arial" font-size="14.00" fill="#666666">[nvarchar(255)]</text>
<text text-anchor="start" x="297.43" y="-579" font-family="Arial" font-size="14.00"> Web Service to be invoked.</text>
<polygon fill="none" stroke="black" points="89.72,-536 89.72,-566.8 1112.24,-566.8 1112.24,-536 89.72,-536"/>
<text text-anchor="start" x="96.72" y="-548.2" font-family="Arial" font-size="14.00">WSREQBODY </text>
<text text-anchor="start" x="193.17" y="-548.2" font-family="Arial" font-size="14.00" fill="#666666">[nvarchar(2000)]</text>
<text text-anchor="start" x="295.89" y="-548.2" font-family="Arial" font-size="14.00"> Request body for the Web Service. It is a SOAP envelope containing placeholders to be replaced before invoking the web service.</text>
<polygon fill="none" stroke="black" points="89.72,-505.2 89.72,-536 1112.24,-536 1112.24,-505.2 89.72,-505.2"/>
<text text-anchor="start" x="96.72" y="-517.4" font-family="Arial" font-size="14.00">PITENABLED </text>
<text text-anchor="start" x="187.74" y="-517.4" font-family="Arial" font-size="14.00" fill="#666666">[smallint]</text>
<text text-anchor="start" x="242.98" y="-517.4" font-family="Arial" font-size="14.00"> Indicates that the flow is enabled to process data starting from a specific date.</text>
<polygon fill="none" stroke="black" points="89.72,-474.4 89.72,-505.2 1112.24,-505.2 1112.24,-474.4 89.72,-474.4"/>
<text text-anchor="start" x="96.72" y="-486.6" font-family="Arial" font-size="14.00">CHUNKENABLED </text>
<text text-anchor="start" x="215.74" y="-486.6" font-family="Arial" font-size="14.00" fill="#666666">[smallint]</text>
<text text-anchor="start" x="270.98" y="-486.6" font-family="Arial" font-size="14.00"> Indicates that the flow is enabled to process a range of entities (chunk).</text>
<polygon fill="none" stroke="black" points="89.72,-443.6 89.72,-474.4 1112.24,-474.4 1112.24,-443.6 89.72,-443.6"/>
<text text-anchor="start" x="96.72" y="-455.8" font-family="Arial" font-size="14.00">SORTORDER </text>
<text text-anchor="start" x="190.06" y="-455.8" font-family="Arial" font-size="14.00" fill="#666666">[int]</text>
<text text-anchor="start" x="212.62" y="-455.8" font-family="Arial" font-size="14.00"> Sort order</text>
<polygon fill="none" stroke="black" points="89.72,-412.8 89.72,-443.6 1112.24,-443.6 1112.24,-412.8 89.72,-412.8"/>
<text text-anchor="start" x="96.72" y="-425" font-family="Arial" font-size="14.00">QUERYDATE </text>
<text text-anchor="start" x="187.73" y="-425" font-family="Arial" font-size="14.00" fill="#666666">[datetime]</text>
<text text-anchor="start" x="249.21" y="-425" font-family="Arial" font-size="14.00"> Date when the data source was last queried.</text>
<polygon fill="none" stroke="black" points="89.72,-382 89.72,-412.8 1112.24,-412.8 1112.24,-382 89.72,-382"/>
<text text-anchor="start" x="96.72" y="-394.2" font-family="Arial" font-size="14.00">LASTCALLDATE </text>
<text text-anchor="start" x="207.98" y="-394.2" font-family="Arial" font-size="14.00" fill="#666666">[datetime]</text>
<text text-anchor="start" x="269.45" y="-394.2" font-family="Arial" font-size="14.00"> Date when the web service was last called.</text>
<polygon fill="none" stroke="black" points="89.72,-351.2 89.72,-382 1112.24,-382 1112.24,-351.2 89.72,-351.2"/>
<text text-anchor="start" x="96.72" y="-363.4" font-family="Arial" font-size="14.00">STATUS </text>
<text text-anchor="start" x="155.83" y="-363.4" font-family="Arial" font-size="14.00" fill="#666666">[char]</text>
<text text-anchor="start" x="190.85" y="-363.4" font-family="Arial" font-size="14.00"> Flow processing status. Possible values: R &#45; Running; X &#45; Executed.</text>
<polygon fill="none" stroke="black" points="89.72,-320.4 89.72,-351.2 1112.24,-351.2 1112.24,-320.4 89.72,-320.4"/>
<text text-anchor="start" x="96.72" y="-332.6" font-family="Arial" font-size="14.00">EXECDATE </text>
<text text-anchor="start" x="176.07" y="-332.6" font-family="Arial" font-size="14.00" fill="#666666">[datetime]</text>
<text text-anchor="start" x="237.54" y="-332.6" font-family="Arial" font-size="14.00"> Running process timestamp (NULL in quiet mode).</text>
<polygon fill="none" stroke="black" points="89.72,-289.6 89.72,-320.4 1112.24,-320.4 1112.24,-289.6 89.72,-289.6"/>
<text text-anchor="start" x="96.72" y="-301.8" font-family="Arial" font-size="14.00">PROCESS_ID </text>
<text text-anchor="start" x="190.86" y="-301.8" font-family="Arial" font-size="14.00" fill="#666666">[nvarchar(36)]</text>
<text text-anchor="start" x="278" y="-301.8" font-family="Arial" font-size="14.00"> Running process GUID (NULL in quiet mode).</text>
<polygon fill="none" stroke="black" points="89.72,-258.8 89.72,-289.6 1112.24,-289.6 1112.24,-258.8 89.72,-258.8"/>
<text text-anchor="start" x="96.72" y="-271" font-family="Arial" font-size="14.00">WORKFLOW_ID </text>
<text text-anchor="start" x="206.39" y="-271" font-family="Arial" font-size="14.00" fill="#666666">[bigint]</text>
<text text-anchor="start" x="247.63" y="-271" font-family="Arial" font-size="14.00"> Indicates the workflow unique identifier</text>
<polygon fill="none" stroke="black" points="89.72,-228 89.72,-258.8 1112.24,-258.8 1112.24,-228 89.72,-228"/>
<text text-anchor="start" x="96.72" y="-240.2" font-family="Arial" font-size="14.00">INSERT_TIME </text>
<text text-anchor="start" x="193.17" y="-240.2" font-family="Arial" font-size="14.00" fill="#666666">[datetime2]</text>
<text text-anchor="start" x="262.43" y="-240.2" font-family="Arial" font-size="14.00"> Indicates the date and time of creation</text>
<polygon fill="none" stroke="black" points="89.72,-197.2 89.72,-228 1112.24,-228 1112.24,-197.2 89.72,-197.2"/>
<text text-anchor="start" x="96.72" y="-209.4" font-family="Arial" font-size="14.00">INSERT_USER </text>
<text text-anchor="start" x="198.63" y="-209.4" font-family="Arial" font-size="14.00" fill="#666666">[nvarchar(100)]</text>
<text text-anchor="start" x="293.56" y="-209.4" font-family="Arial" font-size="14.00"> Indicates the user who has created it</text>
<polygon fill="none" stroke="black" points="89.72,-166.4 89.72,-197.2 1112.24,-197.2 1112.24,-166.4 89.72,-166.4"/>
<text text-anchor="start" x="96.72" y="-178.6" font-family="Arial" font-size="14.00">INSERT_CLIENT </text>
<text text-anchor="start" x="209.52" y="-178.6" font-family="Arial" font-size="14.00" fill="#666666">[nvarchar(50)]</text>
<text text-anchor="start" x="296.66" y="-178.6" font-family="Arial" font-size="14.00"> Indicates the IP address from which it was created</text>
<polygon fill="none" stroke="black" points="89.72,-135.6 89.72,-166.4 1112.24,-166.4 1112.24,-135.6 89.72,-135.6"/>
<text text-anchor="start" x="96.72" y="-147.8" font-family="Arial" font-size="14.00">UPDATE_TIME </text>
<text text-anchor="start" x="198.62" y="-147.8" font-family="Arial" font-size="14.00" fill="#666666">[datetime2]</text>
<text text-anchor="start" x="267.88" y="-147.8" font-family="Arial" font-size="14.00"> Indicates the date and time of last update operation</text>
<polygon fill="none" stroke="black" points="89.72,-104.8 89.72,-135.6 1112.24,-135.6 1112.24,-104.8 89.72,-104.8"/>
<text text-anchor="start" x="96.72" y="-117" font-family="Arial" font-size="14.00">UPDATE_USER </text>
<text text-anchor="start" x="204.08" y="-117" font-family="Arial" font-size="14.00" fill="#666666">[nvarchar(100)]</text>
<text text-anchor="start" x="299.01" y="-117" font-family="Arial" font-size="14.00"> Indicates the user who has executed last update</text>
<polygon fill="none" stroke="black" points="89.72,-74 89.72,-104.8 1112.24,-104.8 1112.24,-74 89.72,-74"/>
<text text-anchor="start" x="96.72" y="-86.2" font-family="Arial" font-size="14.00">UPDATE_CLIENT </text>
<text text-anchor="start" x="214.97" y="-86.2" font-family="Arial" font-size="14.00" fill="#666666">[nvarchar(50)]</text>
<text text-anchor="start" x="302.11" y="-86.2" font-family="Arial" font-size="14.00"> Indicates the IP address from which was executed last update</text>
<polygon fill="none" stroke="black" points="89.72,-43.2 89.72,-74 1112.24,-74 1112.24,-43.2 89.72,-43.2"/>
<text text-anchor="start" x="96.72" y="-55.4" font-family="Arial" font-size="14.00">UPDATE_COUNT </text>
<text text-anchor="start" x="214.95" y="-55.4" font-family="Arial" font-size="14.00" fill="#666666">[int]</text>
<text text-anchor="start" x="237.52" y="-55.4" font-family="Arial" font-size="14.00"> Indicates how many update was executed since its creation</text>
</g>
<!-- HR_Z_IMPORTPAYLOADS&#45;&gt;HR_Z_IMPORTHEADER -->
<g id="edge1" class="edge">
<title>HR_Z_IMPORTPAYLOADS:FLOW_ID&#45;&gt;HR_Z_IMPORTHEADER:ID</title>
<path fill="none" stroke="black" d="M1166.03,-1304.1C1226.75,-1249.67 1183.88,-643.8 1113.24,-643.8"/>
<polygon fill="black" stroke="black" points="1166.29,-1303.99 1155.32,-1303.72 1161.37,-1306.06 1157.38,-1307.74 1157.38,-1307.74 1157.38,-1307.74 1161.37,-1306.06 1158.82,-1312.02 1166.29,-1303.99"/>
</g>
</g>
</svg>
