<?xml version="1.0" encoding="UTF-8" standalone="no"?>
<!DOCTYPE svg PUBLIC "-//W3C//DTD SVG 1.1//EN"
 "http://www.w3.org/Graphics/SVG/1.1/DTD/svg11.dtd">
<!-- Generated by graphviz version 12.1.2 (20240928.0832)
 -->
<!-- Title: TF_MCP_TOOLS Pages: 1 -->
<svg width="707pt" height="701pt"
 viewBox="0.00 0.00 707.34 700.80" xmlns="http://www.w3.org/2000/svg" xmlns:xlink="http://www.w3.org/1999/xlink">
<g id="graph0" class="graph" transform="scale(1 1) rotate(0) translate(4 696.8)">
<title>TF_MCP_TOOLS</title>
<polygon fill="white" stroke="none" points="-4,4 -4,-696.8 703.34,-696.8 703.34,4 -4,4"/>
<!-- TF_MCP_TOOLS -->
<g id="node1" class="node">
<title>TF_MCP_TOOLS</title>
<polygon fill="#efefef" stroke="none" points="46.2,-600.6 46.2,-646.6 653.14,-646.6 653.14,-600.6 46.2,-600.6"/>
<polygon fill="none" stroke="black" points="46.2,-600.6 46.2,-646.6 653.14,-646.6 653.14,-600.6 46.2,-600.6"/>
<text text-anchor="start" x="217.58" y="-624.4" font-family="Arial Bold" font-size="18.00">TF_MCP_TOOLS</text>
<text text-anchor="start" x="352.61" y="-624.4" font-family="Arial" font-size="14.00">    </text>
<text text-anchor="start" x="383.72" y="-624.4" font-family="Arial" font-size="14.00" fill="#666666">[BASIC TABLE]</text>
<text text-anchor="start" x="221.69" y="-610" font-family="Arial" font-size="14.00" fill="#333333">MCP Tools &#45; MCP tools available in HCM</text>
<polygon fill="none" stroke="black" points="46.2,-569.8 46.2,-600.6 653.14,-600.6 653.14,-569.8 46.2,-569.8"/>
<text text-anchor="start" x="53.2" y="-582" font-family="Arial" font-size="14.00">ID </text>
<text text-anchor="start" x="71.09" y="-582" font-family="Arial" font-size="14.00" fill="#666666">[bigint]</text>
<text text-anchor="start" x="112.34" y="-582" font-family="Arial" font-size="14.00"> Indicates the unique identifier</text>
<polygon fill="none" stroke="black" points="46.2,-539 46.2,-569.8 653.14,-569.8 653.14,-539 46.2,-539"/>
<text text-anchor="start" x="53.2" y="-551.2" font-family="Arial" font-size="14.00">ALIAS </text>
<text text-anchor="start" x="96.78" y="-551.2" font-family="Arial" font-size="14.00" fill="#666666">[nvarchar(100)]</text>
<text text-anchor="start" x="191.71" y="-551.2" font-family="Arial" font-size="14.00"> Alias</text>
<polygon fill="none" stroke="black" points="46.2,-508.2 46.2,-539 653.14,-539 653.14,-508.2 46.2,-508.2"/>
<text text-anchor="start" x="53.2" y="-520.4" font-family="Arial" font-size="14.00">MCP_CODE </text>
<text text-anchor="start" x="136.43" y="-520.4" font-family="Arial" font-size="14.00" fill="#666666">[nvarchar(100)]</text>
<text text-anchor="start" x="231.37" y="-520.4" font-family="Arial" font-size="14.00"> Tool Code</text>
<polygon fill="none" stroke="black" points="46.2,-477.4 46.2,-508.2 653.14,-508.2 653.14,-477.4 46.2,-477.4"/>
<text text-anchor="start" x="53.2" y="-489.6" font-family="Arial" font-size="14.00">TYPE </text>
<text text-anchor="start" x="93.66" y="-489.6" font-family="Arial" font-size="14.00" fill="#666666">[bigint]</text>
<text text-anchor="start" x="134.9" y="-489.6" font-family="Arial" font-size="14.00"> Type</text>
<polygon fill="none" stroke="black" points="46.2,-446.6 46.2,-477.4 653.14,-477.4 653.14,-446.6 46.2,-446.6"/>
<text text-anchor="start" x="53.2" y="-458.8" font-family="Arial" font-size="14.00">CODE </text>
<text text-anchor="start" x="97.54" y="-458.8" font-family="Arial" font-size="14.00" fill="#666666">[nvarchar(100)]</text>
<text text-anchor="start" x="192.47" y="-458.8" font-family="Arial" font-size="14.00"> Code</text>
<polygon fill="none" stroke="black" points="46.2,-415.8 46.2,-446.6 653.14,-446.6 653.14,-415.8 46.2,-415.8"/>
<text text-anchor="start" x="53.2" y="-428" font-family="Arial" font-size="14.00">VERSION_CODE </text>
<text text-anchor="start" x="168.34" y="-428" font-family="Arial" font-size="14.00" fill="#666666">[nvarchar(10)]</text>
<text text-anchor="start" x="255.48" y="-428" font-family="Arial" font-size="14.00"> Version</text>
<polygon fill="none" stroke="black" points="46.2,-385 46.2,-415.8 653.14,-415.8 653.14,-385 46.2,-385"/>
<text text-anchor="start" x="53.2" y="-397.2" font-family="Arial" font-size="14.00">DESCRIPTION </text>
<text text-anchor="start" x="152.77" y="-397.2" font-family="Arial" font-size="14.00" fill="#666666">[nvarchar(MAX)]</text>
<text text-anchor="start" x="254.68" y="-397.2" font-family="Arial" font-size="14.00"> Plain text description</text>
<polygon fill="none" stroke="black" points="46.2,-354.2 46.2,-385 653.14,-385 653.14,-354.2 46.2,-354.2"/>
<text text-anchor="start" x="53.2" y="-366.4" font-family="Arial" font-size="14.00">IS_ENABLED </text>
<text text-anchor="start" x="143.46" y="-366.4" font-family="Arial" font-size="14.00" fill="#666666">[smallint]</text>
<text text-anchor="start" x="198.7" y="-366.4" font-family="Arial" font-size="14.00"> Enabled</text>
<polygon fill="none" stroke="black" points="46.2,-323.4 46.2,-354.2 653.14,-354.2 653.14,-323.4 46.2,-323.4"/>
<text text-anchor="start" x="53.2" y="-335.6" font-family="Arial" font-size="14.00">IS_CUSTOM </text>
<text text-anchor="start" x="138.77" y="-335.6" font-family="Arial" font-size="14.00" fill="#666666">[smallint]</text>
<text text-anchor="start" x="194" y="-335.6" font-family="Arial" font-size="14.00"> Is custom</text>
<polygon fill="none" stroke="black" points="46.2,-292.6 46.2,-323.4 653.14,-323.4 653.14,-292.6 46.2,-292.6"/>
<text text-anchor="start" x="53.2" y="-304.8" font-family="Arial" font-size="14.00">ORIGINAL_ID </text>
<text text-anchor="start" x="145.78" y="-304.8" font-family="Arial" font-size="14.00" fill="#666666">[bigint]</text>
<polygon fill="none" stroke="black" points="46.2,-261.8 46.2,-292.6 653.14,-292.6 653.14,-261.8 46.2,-261.8"/>
<text text-anchor="start" x="53.2" y="-274" font-family="Arial" font-size="14.00">CUSTOM_PARAMETERS </text>
<text text-anchor="start" x="222" y="-274" font-family="Arial" font-size="14.00" fill="#666666">[nvarchar(MAX)]</text>
<text text-anchor="start" x="323.91" y="-274" font-family="Arial" font-size="14.00"> Custom input parameters for an MCP tool</text>
<polygon fill="none" stroke="black" points="46.2,-231 46.2,-261.8 653.14,-261.8 653.14,-231 46.2,-231"/>
<text text-anchor="start" x="53.2" y="-243.2" font-family="Arial" font-size="14.00">INSERT_TIME </text>
<text text-anchor="start" x="149.66" y="-243.2" font-family="Arial" font-size="14.00" fill="#666666">[datetime2]</text>
<text text-anchor="start" x="218.92" y="-243.2" font-family="Arial" font-size="14.00"> Indicates the date and time of creation</text>
<polygon fill="none" stroke="black" points="46.2,-200.2 46.2,-231 653.14,-231 653.14,-200.2 46.2,-200.2"/>
<text text-anchor="start" x="53.2" y="-212.4" font-family="Arial" font-size="14.00">INSERT_USER </text>
<text text-anchor="start" x="155.11" y="-212.4" font-family="Arial" font-size="14.00" fill="#666666">[nvarchar(100)]</text>
<text text-anchor="start" x="250.04" y="-212.4" font-family="Arial" font-size="14.00"> Indicates the user who has created it</text>
<polygon fill="none" stroke="black" points="46.2,-169.4 46.2,-200.2 653.14,-200.2 653.14,-169.4 46.2,-169.4"/>
<text text-anchor="start" x="53.2" y="-181.6" font-family="Arial" font-size="14.00">INSERT_CLIENT </text>
<text text-anchor="start" x="166" y="-181.6" font-family="Arial" font-size="14.00" fill="#666666">[nvarchar(50)]</text>
<text text-anchor="start" x="253.14" y="-181.6" font-family="Arial" font-size="14.00"> Indicates the IP address from which it was created</text>
<polygon fill="none" stroke="black" points="46.2,-138.6 46.2,-169.4 653.14,-169.4 653.14,-138.6 46.2,-138.6"/>
<text text-anchor="start" x="53.2" y="-150.8" font-family="Arial" font-size="14.00">UPDATE_TIME </text>
<text text-anchor="start" x="155.1" y="-150.8" font-family="Arial" font-size="14.00" fill="#666666">[datetime2]</text>
<text text-anchor="start" x="224.37" y="-150.8" font-family="Arial" font-size="14.00"> Indicates the date and time of last update operation</text>
<polygon fill="none" stroke="black" points="46.2,-107.8 46.2,-138.6 653.14,-138.6 653.14,-107.8 46.2,-107.8"/>
<text text-anchor="start" x="53.2" y="-120" font-family="Arial" font-size="14.00">UPDATE_CLIENT </text>
<text text-anchor="start" x="171.45" y="-120" font-family="Arial" font-size="14.00" fill="#666666">[nvarchar(50)]</text>
<text text-anchor="start" x="258.59" y="-120" font-family="Arial" font-size="14.00"> Indicates the IP address from which was executed last update</text>
<polygon fill="none" stroke="black" points="46.2,-77 46.2,-107.8 653.14,-107.8 653.14,-77 46.2,-77"/>
<text text-anchor="start" x="53.2" y="-89.2" font-family="Arial" font-size="14.00">UPDATE_USER </text>
<text text-anchor="start" x="160.56" y="-89.2" font-family="Arial" font-size="14.00" fill="#666666">[nvarchar(100)]</text>
<text text-anchor="start" x="255.49" y="-89.2" font-family="Arial" font-size="14.00"> Indicates the user who has executed last update</text>
<polygon fill="none" stroke="black" points="46.2,-46.2 46.2,-77 653.14,-77 653.14,-46.2 46.2,-46.2"/>
<text text-anchor="start" x="53.2" y="-58.4" font-family="Arial" font-size="14.00">UPDATE_COUNT </text>
<text text-anchor="start" x="171.43" y="-58.4" font-family="Arial" font-size="14.00" fill="#666666">[int]</text>
<text text-anchor="start" x="194" y="-58.4" font-family="Arial" font-size="14.00"> Indicates how many update was executed since its creation</text>
<polygon fill="none" stroke="black" stroke-width="3" points="44.7,-44.7 44.7,-648.1 654.64,-648.1 654.64,-44.7 44.7,-44.7"/>
</g>
</g>
</svg>
