<?xml version="1.0" encoding="UTF-8" standalone="no"?>
<!DOCTYPE svg PUBLIC "-//W3C//DTD SVG 1.1//EN"
 "http://www.w3.org/Graphics/SVG/1.1/DTD/svg11.dtd">
<!-- Generated by graphviz version 12.1.2 (20240928.0832)
 -->
<!-- Title: TF_NAV_PROFILE_CFGS_VIEW Pages: 1 -->
<svg width="549pt" height="824pt"
 viewBox="0.00 0.00 548.62 824.00" xmlns="http://www.w3.org/2000/svg" xmlns:xlink="http://www.w3.org/1999/xlink">
<g id="graph0" class="graph" transform="scale(1 1) rotate(0) translate(4 820)">
<title>TF_NAV_PROFILE_CFGS_VIEW</title>
<polygon fill="white" stroke="none" points="-4,4 -4,-820 544.62,-820 544.62,4 -4,4"/>
<!-- TF_NAV_PROFILE_CFGS_VIEW -->
<g id="node1" class="node">
<title>TF_NAV_PROFILE_CFGS_VIEW</title>
<polygon fill="#efefef" stroke="none" points="46.2,-723.8 46.2,-769.8 494.42,-769.8 494.42,-723.8 46.2,-723.8"/>
<polygon fill="none" stroke="black" points="46.2,-723.8 46.2,-769.8 494.42,-769.8 494.42,-723.8 46.2,-723.8"/>
<text text-anchor="start" x="102.46" y="-747.6" font-family="Arial Bold" font-size="18.00">TF_NAV_PROFILE_CFGS_VIEW</text>
<text text-anchor="start" x="363.48" y="-747.6" font-family="Arial" font-size="14.00">    </text>
<text text-anchor="start" x="394.6" y="-747.6" font-family="Arial" font-size="14.00" fill="#666666">[VIEW]</text>
<text text-anchor="start" x="53.2" y="-733.2" font-family="Arial" font-size="14.00" fill="#333333">Navigation Profiles Configurations &#45; Navigation Profiles Configurations</text>
<polygon fill="none" stroke="black" points="46.2,-693 46.2,-723.8 494.42,-723.8 494.42,-693 46.2,-693"/>
<text text-anchor="start" x="53.2" y="-705.2" font-family="Arial" font-size="14.00">FACTORY_ID </text>
<text text-anchor="start" x="145.77" y="-705.2" font-family="Arial" font-size="14.00" fill="#666666">[char]</text>
<polygon fill="none" stroke="black" points="46.2,-662.2 46.2,-693 494.42,-693 494.42,-662.2 46.2,-662.2"/>
<text text-anchor="start" x="53.2" y="-674.4" font-family="Arial" font-size="14.00">ID </text>
<text text-anchor="start" x="71.09" y="-674.4" font-family="Arial" font-size="14.00" fill="#666666">[char]</text>
<text text-anchor="start" x="106.1" y="-674.4" font-family="Arial" font-size="14.00"> Indicates the unique identifier</text>
<polygon fill="none" stroke="black" points="46.2,-631.4 46.2,-662.2 494.42,-662.2 494.42,-631.4 46.2,-631.4"/>
<text text-anchor="start" x="53.2" y="-643.6" font-family="Arial" font-size="14.00">NAVIGATION_PROFILE_ID </text>
<text text-anchor="start" x="232.91" y="-643.6" font-family="Arial" font-size="14.00" fill="#666666">[char]</text>
<polygon fill="none" stroke="black" points="46.2,-600.6 46.2,-631.4 494.42,-631.4 494.42,-600.6 46.2,-600.6"/>
<text text-anchor="start" x="53.2" y="-612.8" font-family="Arial" font-size="14.00">TITLE_ID </text>
<text text-anchor="start" x="116.99" y="-612.8" font-family="Arial" font-size="14.00" fill="#666666">[bigint]</text>
<polygon fill="none" stroke="black" points="46.2,-569.8 46.2,-600.6 494.42,-600.6 494.42,-569.8 46.2,-569.8"/>
<text text-anchor="start" x="53.2" y="-582" font-family="Arial" font-size="14.00">HOME_PAGE_ID </text>
<text text-anchor="start" x="167.57" y="-582" font-family="Arial" font-size="14.00" fill="#666666">[bigint]</text>
<text text-anchor="start" x="208.81" y="-582" font-family="Arial" font-size="14.00"> Home page</text>
<polygon fill="none" stroke="black" points="46.2,-539 46.2,-569.8 494.42,-569.8 494.42,-539 46.2,-539"/>
<text text-anchor="start" x="53.2" y="-551.2" font-family="Arial" font-size="14.00">SETTINGS_PAGE_ID </text>
<text text-anchor="start" x="195.57" y="-551.2" font-family="Arial" font-size="14.00" fill="#666666">[bigint]</text>
<text text-anchor="start" x="236.82" y="-551.2" font-family="Arial" font-size="14.00"> Setting page</text>
<polygon fill="none" stroke="black" points="46.2,-508.2 46.2,-539 494.42,-539 494.42,-508.2 46.2,-508.2"/>
<text text-anchor="start" x="53.2" y="-520.4" font-family="Arial" font-size="14.00">MENU_ID </text>
<text text-anchor="start" x="120.1" y="-520.4" font-family="Arial" font-size="14.00" fill="#666666">[char]</text>
<text text-anchor="start" x="155.11" y="-520.4" font-family="Arial" font-size="14.00"> Menu linked to current navigation profile</text>
<polygon fill="none" stroke="black" points="46.2,-477.4 46.2,-508.2 494.42,-508.2 494.42,-477.4 46.2,-477.4"/>
<text text-anchor="start" x="53.2" y="-489.6" font-family="Arial" font-size="14.00">IS_ENABLED </text>
<text text-anchor="start" x="143.46" y="-489.6" font-family="Arial" font-size="14.00" fill="#666666">[smallint]</text>
<text text-anchor="start" x="198.7" y="-489.6" font-family="Arial" font-size="14.00"> Navigation Profile Config is default</text>
<polygon fill="none" stroke="black" points="46.2,-446.6 46.2,-477.4 494.42,-477.4 494.42,-446.6 46.2,-446.6"/>
<text text-anchor="start" x="53.2" y="-458.8" font-family="Arial" font-size="14.00">IS_DEFAULT </text>
<text text-anchor="start" x="141.89" y="-458.8" font-family="Arial" font-size="14.00" fill="#666666">[smallint]</text>
<text text-anchor="start" x="197.12" y="-458.8" font-family="Arial" font-size="14.00"> Navigation Profile Configuration is custom</text>
<polygon fill="none" stroke="black" points="46.2,-415.8 46.2,-446.6 494.42,-446.6 494.42,-415.8 46.2,-415.8"/>
<text text-anchor="start" x="53.2" y="-428" font-family="Arial" font-size="14.00">PLATFORM_ID </text>
<text text-anchor="start" x="155.1" y="-428" font-family="Arial" font-size="14.00" fill="#666666">[bigint]</text>
<text text-anchor="start" x="196.35" y="-428" font-family="Arial" font-size="14.00"> Page Platform</text>
<polygon fill="none" stroke="black" points="46.2,-385 46.2,-415.8 494.42,-415.8 494.42,-385 46.2,-385"/>
<text text-anchor="start" x="53.2" y="-397.2" font-family="Arial" font-size="14.00">IS_CUSTOM </text>
<text text-anchor="start" x="138.77" y="-397.2" font-family="Arial" font-size="14.00" fill="#666666">[smallint]</text>
<text text-anchor="start" x="194" y="-397.2" font-family="Arial" font-size="14.00"> Custom</text>
<polygon fill="none" stroke="black" points="46.2,-354.2 46.2,-385 494.42,-385 494.42,-354.2 46.2,-354.2"/>
<text text-anchor="start" x="53.2" y="-366.4" font-family="Arial" font-size="14.00">INSERT_TIME </text>
<text text-anchor="start" x="149.66" y="-366.4" font-family="Arial" font-size="14.00" fill="#666666">[datetime2]</text>
<polygon fill="none" stroke="black" points="46.2,-323.4 46.2,-354.2 494.42,-354.2 494.42,-323.4 46.2,-323.4"/>
<text text-anchor="start" x="53.2" y="-335.6" font-family="Arial" font-size="14.00">INSERT_USER </text>
<text text-anchor="start" x="155.11" y="-335.6" font-family="Arial" font-size="14.00" fill="#666666">[nvarchar(100)]</text>
<polygon fill="none" stroke="black" points="46.2,-292.6 46.2,-323.4 494.42,-323.4 494.42,-292.6 46.2,-292.6"/>
<text text-anchor="start" x="53.2" y="-304.8" font-family="Arial" font-size="14.00">INSERT_CLIENT </text>
<text text-anchor="start" x="166" y="-304.8" font-family="Arial" font-size="14.00" fill="#666666">[nvarchar(50)]</text>
<polygon fill="none" stroke="black" points="46.2,-261.8 46.2,-292.6 494.42,-292.6 494.42,-261.8 46.2,-261.8"/>
<text text-anchor="start" x="53.2" y="-274" font-family="Arial" font-size="14.00">UPDATE_TIME </text>
<text text-anchor="start" x="155.1" y="-274" font-family="Arial" font-size="14.00" fill="#666666">[datetime2]</text>
<polygon fill="none" stroke="black" points="46.2,-231 46.2,-261.8 494.42,-261.8 494.42,-231 46.2,-231"/>
<text text-anchor="start" x="53.2" y="-243.2" font-family="Arial" font-size="14.00">UPDATE_USER </text>
<text text-anchor="start" x="160.56" y="-243.2" font-family="Arial" font-size="14.00" fill="#666666">[nvarchar(100)]</text>
<polygon fill="none" stroke="black" points="46.2,-200.2 46.2,-231 494.42,-231 494.42,-200.2 46.2,-200.2"/>
<text text-anchor="start" x="53.2" y="-212.4" font-family="Arial" font-size="14.00">UPDATE_CLIENT </text>
<text text-anchor="start" x="171.45" y="-212.4" font-family="Arial" font-size="14.00" fill="#666666">[nvarchar(50)]</text>
<polygon fill="none" stroke="black" points="46.2,-169.4 46.2,-200.2 494.42,-200.2 494.42,-169.4 46.2,-169.4"/>
<text text-anchor="start" x="53.2" y="-181.6" font-family="Arial" font-size="14.00">UPDATE_COUNT </text>
<text text-anchor="start" x="171.43" y="-181.6" font-family="Arial" font-size="14.00" fill="#666666">[int]</text>
<polygon fill="none" stroke="black" points="46.2,-138.6 46.2,-169.4 494.42,-169.4 494.42,-138.6 46.2,-138.6"/>
<text text-anchor="start" x="53.2" y="-150.8" font-family="Arial" font-size="14.00">IS_MENU_COLLAPSED </text>
<text text-anchor="start" x="211.14" y="-150.8" font-family="Arial" font-size="14.00" fill="#666666">[smallint]</text>
<text text-anchor="start" x="266.38" y="-150.8" font-family="Arial" font-size="14.00"> Is menu collapsed</text>
<polygon fill="none" stroke="black" points="46.2,-107.8 46.2,-138.6 494.42,-138.6 494.42,-107.8 46.2,-107.8"/>
<text text-anchor="start" x="53.2" y="-120" font-family="Arial" font-size="14.00">IS_SIMPLIFIED_SHELL </text>
<text text-anchor="start" x="208.04" y="-120" font-family="Arial" font-size="14.00" fill="#666666">[smallint]</text>
<text text-anchor="start" x="263.28" y="-120" font-family="Arial" font-size="14.00"> Is simplified shell</text>
<polygon fill="none" stroke="black" points="46.2,-77 46.2,-107.8 494.42,-107.8 494.42,-77 46.2,-77"/>
<text text-anchor="start" x="53.2" y="-89.2" font-family="Arial" font-size="14.00">PROFILE_INFO_EXTRA_PAGE_ID </text>
<text text-anchor="start" x="281.16" y="-89.2" font-family="Arial" font-size="14.00" fill="#666666">[bigint]</text>
<text text-anchor="start" x="322.41" y="-89.2" font-family="Arial" font-size="14.00"> Profile Info Extra Page</text>
<polygon fill="none" stroke="black" points="46.2,-46.2 46.2,-77 494.42,-77 494.42,-46.2 46.2,-46.2"/>
<text text-anchor="start" x="53.2" y="-58.4" font-family="Arial" font-size="14.00">PROFILE_INFO_EXTRA_PAGE_KEYS </text>
<text text-anchor="start" x="304.51" y="-58.4" font-family="Arial" font-size="14.00" fill="#666666">[nvarchar(MAX)]</text>
<polygon fill="none" stroke="black" stroke-width="3" points="44.7,-44.7 44.7,-771.3 495.92,-771.3 495.92,-44.7 44.7,-44.7"/>
</g>
</g>
</svg>
