<?xml version="1.0" encoding="UTF-8" standalone="no"?>
<!DOCTYPE svg PUBLIC "-//W3C//DTD SVG 1.1//EN"
 "http://www.w3.org/Graphics/SVG/1.1/DTD/svg11.dtd">
<!-- Generated by graphviz version 12.1.2 (20240928.0832)
 -->
<!-- Title: TF_QSTRT_ANSWERS Pages: 1 -->
<svg width="1412pt" height="2639pt"
 viewBox="0.00 0.00 1412.34 2639.20" xmlns="http://www.w3.org/2000/svg" xmlns:xlink="http://www.w3.org/1999/xlink">
<g id="graph0" class="graph" transform="scale(1 1) rotate(0) translate(4 2635.2)">
<title>TF_QSTRT_ANSWERS</title>
<polygon fill="white" stroke="none" points="-4,4 -4,-2635.2 1408.34,-2635.2 1408.34,4 -4,4"/>
<!-- TF_QSTRT_ANSWERS -->
<g id="node1" class="node">
<title>TF_QSTRT_ANSWERS</title>
<polygon fill="#efefef" stroke="none" points="373.71,-1908.6 373.71,-1954.6 1029.63,-1954.6 1029.63,-1908.6 373.71,-1908.6"/>
<polygon fill="none" stroke="black" points="373.71,-1908.6 373.71,-1954.6 1029.63,-1954.6 1029.63,-1908.6 373.71,-1908.6"/>
<text text-anchor="start" x="546.08" y="-1932.4" font-family="Arial Bold" font-size="18.00">TF_QSTRT_ANSWERS</text>
<text text-anchor="start" x="728.1" y="-1932.4" font-family="Arial" font-size="14.00">    </text>
<text text-anchor="start" x="759.22" y="-1932.4" font-family="Arial" font-size="14.00" fill="#666666">[BASIC TABLE]</text>
<text text-anchor="start" x="632.41" y="-1918" font-family="Arial" font-size="14.00" fill="#333333">Questions &#45; Questions</text>
<polygon fill="none" stroke="black" points="373.71,-1877.8 373.71,-1908.6 1029.63,-1908.6 1029.63,-1877.8 373.71,-1877.8"/>
<text text-anchor="start" x="380.71" y="-1890" font-family="Arial" font-size="14.00">ID </text>
<text text-anchor="start" x="398.6" y="-1890" font-family="Arial" font-size="14.00" fill="#666666">[bigint]</text>
<text text-anchor="start" x="439.85" y="-1890" font-family="Arial" font-size="14.00"> Indicates the unique identifier</text>
<polygon fill="none" stroke="black" points="373.71,-1847 373.71,-1877.8 1029.63,-1877.8 1029.63,-1847 373.71,-1847"/>
<text text-anchor="start" x="380.71" y="-1859.2" font-family="Arial" font-size="14.00">QSTRT_ID </text>
<text text-anchor="start" x="453.83" y="-1859.2" font-family="Arial" font-size="14.00" fill="#666666">[bigint]</text>
<text text-anchor="start" x="495.08" y="-1859.2" font-family="Arial" font-size="14.00"> Runtime questionnaire</text>
<polygon fill="none" stroke="black" points="373.71,-1816.2 373.71,-1847 1029.63,-1847 1029.63,-1816.2 373.71,-1816.2"/>
<text text-anchor="start" x="380.71" y="-1828.4" font-family="Arial" font-size="14.00">QUESTION_ID </text>
<text text-anchor="start" x="479.5" y="-1828.4" font-family="Arial" font-size="14.00" fill="#666666">[bigint]</text>
<text text-anchor="start" x="520.75" y="-1828.4" font-family="Arial" font-size="14.00"> Question identifier</text>
<polygon fill="none" stroke="black" points="373.71,-1785.4 373.71,-1816.2 1029.63,-1816.2 1029.63,-1785.4 373.71,-1785.4"/>
<text text-anchor="start" x="380.71" y="-1797.6" font-family="Arial" font-size="14.00">SCORE </text>
<text text-anchor="start" x="434.39" y="-1797.6" font-family="Arial" font-size="14.00" fill="#666666">[decimal]</text>
<text text-anchor="start" x="490.41" y="-1797.6" font-family="Arial" font-size="14.00"> Score</text>
<polygon fill="none" stroke="black" points="373.71,-1754.6 373.71,-1785.4 1029.63,-1785.4 1029.63,-1754.6 373.71,-1754.6"/>
<text text-anchor="start" x="380.71" y="-1766.8" font-family="Arial" font-size="14.00">PERCENTAGE_SCORE </text>
<text text-anchor="start" x="538.63" y="-1766.8" font-family="Arial" font-size="14.00" fill="#666666">[int]</text>
<text text-anchor="start" x="561.2" y="-1766.8" font-family="Arial" font-size="14.00"> Percentage score</text>
<polygon fill="none" stroke="black" points="373.71,-1723.8 373.71,-1754.6 1029.63,-1754.6 1029.63,-1723.8 373.71,-1723.8"/>
<text text-anchor="start" x="380.71" y="-1736" font-family="Arial" font-size="14.00">SENTIMENT_SCORE </text>
<text text-anchor="start" x="523.06" y="-1736" font-family="Arial" font-size="14.00" fill="#666666">[decimal]</text>
<text text-anchor="start" x="579.08" y="-1736" font-family="Arial" font-size="14.00"> Sentiment score</text>
<polygon fill="none" stroke="black" points="373.71,-1693 373.71,-1723.8 1029.63,-1723.8 1029.63,-1693 373.71,-1693"/>
<text text-anchor="start" x="380.71" y="-1705.2" font-family="Arial" font-size="14.00">TEXT </text>
<text text-anchor="start" x="420.38" y="-1705.2" font-family="Arial" font-size="14.00" fill="#666666">[nvarchar(MAX)]</text>
<text text-anchor="start" x="522.29" y="-1705.2" font-family="Arial" font-size="14.00"> This field is used either to save free text answer or answer comment (if enabled)</text>
<polygon fill="none" stroke="black" points="373.71,-1662.2 373.71,-1693 1029.63,-1693 1029.63,-1662.2 373.71,-1662.2"/>
<text text-anchor="start" x="380.71" y="-1674.4" font-family="Arial" font-size="14.00">VALUE </text>
<text text-anchor="start" x="430.51" y="-1674.4" font-family="Arial" font-size="14.00" fill="#666666">[int]</text>
<text text-anchor="start" x="453.08" y="-1674.4" font-family="Arial" font-size="14.00"> Answer value</text>
<polygon fill="none" stroke="black" points="373.71,-1631.4 373.71,-1662.2 1029.63,-1662.2 1029.63,-1631.4 373.71,-1631.4"/>
<text text-anchor="start" x="380.71" y="-1643.6" font-family="Arial" font-size="14.00">DATE_VALUE </text>
<text text-anchor="start" x="475.63" y="-1643.6" font-family="Arial" font-size="14.00" fill="#666666">[datetime]</text>
<text text-anchor="start" x="537.11" y="-1643.6" font-family="Arial" font-size="14.00"> Date value</text>
<polygon fill="none" stroke="black" points="373.71,-1600.6 373.71,-1631.4 1029.63,-1631.4 1029.63,-1600.6 373.71,-1600.6"/>
<text text-anchor="start" x="380.71" y="-1612.8" font-family="Arial" font-size="14.00">DISPLAY_ORDER </text>
<text text-anchor="start" x="502.08" y="-1612.8" font-family="Arial" font-size="14.00" fill="#666666">[int]</text>
<text text-anchor="start" x="524.65" y="-1612.8" font-family="Arial" font-size="14.00"> Display order</text>
<polygon fill="none" stroke="black" points="373.71,-1569.8 373.71,-1600.6 1029.63,-1600.6 1029.63,-1569.8 373.71,-1569.8"/>
<text text-anchor="start" x="380.71" y="-1582" font-family="Arial" font-size="14.00">INSERT_TIME </text>
<text text-anchor="start" x="477.17" y="-1582" font-family="Arial" font-size="14.00" fill="#666666">[datetime2]</text>
<text text-anchor="start" x="546.43" y="-1582" font-family="Arial" font-size="14.00"> Indicates the date and time of creation</text>
<polygon fill="none" stroke="black" points="373.71,-1539 373.71,-1569.8 1029.63,-1569.8 1029.63,-1539 373.71,-1539"/>
<text text-anchor="start" x="380.71" y="-1551.2" font-family="Arial" font-size="14.00">INSERT_USER </text>
<text text-anchor="start" x="482.62" y="-1551.2" font-family="Arial" font-size="14.00" fill="#666666">[nvarchar(100)]</text>
<text text-anchor="start" x="577.55" y="-1551.2" font-family="Arial" font-size="14.00"> Indicates the user who has created it</text>
<polygon fill="none" stroke="black" points="373.71,-1508.2 373.71,-1539 1029.63,-1539 1029.63,-1508.2 373.71,-1508.2"/>
<text text-anchor="start" x="380.71" y="-1520.4" font-family="Arial" font-size="14.00">INSERT_CLIENT </text>
<text text-anchor="start" x="493.51" y="-1520.4" font-family="Arial" font-size="14.00" fill="#666666">[nvarchar(50)]</text>
<text text-anchor="start" x="580.65" y="-1520.4" font-family="Arial" font-size="14.00"> Indicates the IP address from which it was created</text>
<polygon fill="none" stroke="black" points="373.71,-1477.4 373.71,-1508.2 1029.63,-1508.2 1029.63,-1477.4 373.71,-1477.4"/>
<text text-anchor="start" x="380.71" y="-1489.6" font-family="Arial" font-size="14.00">UPDATE_TIME </text>
<text text-anchor="start" x="482.61" y="-1489.6" font-family="Arial" font-size="14.00" fill="#666666">[datetime2]</text>
<text text-anchor="start" x="551.88" y="-1489.6" font-family="Arial" font-size="14.00"> Indicates the date and time of last update operation</text>
<polygon fill="none" stroke="black" points="373.71,-1446.6 373.71,-1477.4 1029.63,-1477.4 1029.63,-1446.6 373.71,-1446.6"/>
<text text-anchor="start" x="380.71" y="-1458.8" font-family="Arial" font-size="14.00">UPDATE_USER </text>
<text text-anchor="start" x="488.07" y="-1458.8" font-family="Arial" font-size="14.00" fill="#666666">[nvarchar(100)]</text>
<text text-anchor="start" x="583" y="-1458.8" font-family="Arial" font-size="14.00"> Indicates the user who has executed last update</text>
<polygon fill="none" stroke="black" points="373.71,-1415.8 373.71,-1446.6 1029.63,-1446.6 1029.63,-1415.8 373.71,-1415.8"/>
<text text-anchor="start" x="380.71" y="-1428" font-family="Arial" font-size="14.00">UPDATE_CLIENT </text>
<text text-anchor="start" x="498.96" y="-1428" font-family="Arial" font-size="14.00" fill="#666666">[nvarchar(50)]</text>
<text text-anchor="start" x="586.1" y="-1428" font-family="Arial" font-size="14.00"> Indicates the IP address from which was executed last update</text>
<polygon fill="none" stroke="black" points="373.71,-1385 373.71,-1415.8 1029.63,-1415.8 1029.63,-1385 373.71,-1385"/>
<text text-anchor="start" x="380.71" y="-1397.2" font-family="Arial" font-size="14.00">UPDATE_COUNT </text>
<text text-anchor="start" x="498.94" y="-1397.2" font-family="Arial" font-size="14.00" fill="#666666">[int]</text>
<text text-anchor="start" x="521.51" y="-1397.2" font-family="Arial" font-size="14.00"> Indicates how many update was executed since its creation</text>
<polygon fill="none" stroke="black" points="373.71,-1354.2 373.71,-1385 1029.63,-1385 1029.63,-1354.2 373.71,-1354.2"/>
<text text-anchor="start" x="380.71" y="-1366.4" font-family="Arial" font-size="14.00">WORKFLOW_ID </text>
<text text-anchor="start" x="490.38" y="-1366.4" font-family="Arial" font-size="14.00" fill="#666666">[bigint]</text>
<text text-anchor="start" x="531.63" y="-1366.4" font-family="Arial" font-size="14.00"> Indicates the workflow unique identifier</text>
<polygon fill="none" stroke="black" stroke-width="3" points="372.21,-1352.7 372.21,-1956.1 1031.13,-1956.1 1031.13,-1352.7 372.21,-1352.7"/>
</g>
<!-- TF_QSTRT_QUESTIONNAIRES -->
<g id="node3" class="node">
<title>TF_QSTRT_QUESTIONNAIRES</title>
<polygon fill="#efefef" stroke="none" points="43.2,-905.6 43.2,-951.6 650.14,-951.6 650.14,-905.6 43.2,-905.6"/>
<polygon fill="none" stroke="black" points="43.2,-905.6 43.2,-951.6 650.14,-951.6 650.14,-905.6 43.2,-905.6"/>
<text text-anchor="start" x="156.59" y="-929.4" font-family="Arial Bold" font-size="18.00">TF_QSTRT_QUESTIONNAIRES</text>
<text text-anchor="start" x="407.6" y="-929.4" font-family="Arial" font-size="14.00">    </text>
<text text-anchor="start" x="438.71" y="-929.4" font-family="Arial" font-size="14.00" fill="#666666">[BASIC TABLE]</text>
<text text-anchor="start" x="246.28" y="-915" font-family="Arial" font-size="14.00" fill="#333333">Questionnaires &#45; Questionnaires</text>
<polygon fill="none" stroke="black" points="43.2,-874.8 43.2,-905.6 650.14,-905.6 650.14,-874.8 43.2,-874.8"/>
<text text-anchor="start" x="50.2" y="-887" font-family="Arial" font-size="14.00">ID </text>
<text text-anchor="start" x="68.09" y="-887" font-family="Arial" font-size="14.00" fill="#666666">[bigint]</text>
<text text-anchor="start" x="109.34" y="-887" font-family="Arial" font-size="14.00"> Indicates the unique identifier</text>
<polygon fill="none" stroke="black" points="43.2,-844 43.2,-874.8 650.14,-874.8 650.14,-844 43.2,-844"/>
<text text-anchor="start" x="50.2" y="-856.2" font-family="Arial" font-size="14.00">QSTRT_PARENT_ID </text>
<text text-anchor="start" x="187.89" y="-856.2" font-family="Arial" font-size="14.00" fill="#666666">[bigint]</text>
<text text-anchor="start" x="229.14" y="-856.2" font-family="Arial" font-size="14.00"> Indicates the parent unique identifier</text>
<polygon fill="none" stroke="black" points="43.2,-813.2 43.2,-844 650.14,-844 650.14,-813.2 43.2,-813.2"/>
<text text-anchor="start" x="50.2" y="-825.4" font-family="Arial" font-size="14.00">QSTRT_PARENT_ENTITY_ID </text>
<text text-anchor="start" x="245.45" y="-825.4" font-family="Arial" font-size="14.00" fill="#666666">[char]</text>
<text text-anchor="start" x="280.47" y="-825.4" font-family="Arial" font-size="14.00"> Indicates the parent entity unique identifier</text>
<polygon fill="none" stroke="black" points="43.2,-782.4 43.2,-813.2 650.14,-813.2 650.14,-782.4 43.2,-782.4"/>
<text text-anchor="start" x="50.2" y="-794.6" font-family="Arial" font-size="14.00">QUESTIONNAIRE_ID </text>
<text text-anchor="start" x="191.78" y="-794.6" font-family="Arial" font-size="14.00" fill="#666666">[bigint]</text>
<text text-anchor="start" x="233.03" y="-794.6" font-family="Arial" font-size="14.00"> Questionnaire schema</text>
<polygon fill="none" stroke="black" points="43.2,-751.6 43.2,-782.4 650.14,-782.4 650.14,-751.6 43.2,-751.6"/>
<text text-anchor="start" x="50.2" y="-763.8" font-family="Arial" font-size="14.00">CALCULATION_MODE_ID </text>
<text text-anchor="start" x="223.68" y="-763.8" font-family="Arial" font-size="14.00" fill="#666666">[bigint]</text>
<text text-anchor="start" x="264.93" y="-763.8" font-family="Arial" font-size="14.00"> Calculation mode identifier</text>
<polygon fill="none" stroke="black" points="43.2,-720.8 43.2,-751.6 650.14,-751.6 650.14,-720.8 43.2,-720.8"/>
<text text-anchor="start" x="50.2" y="-733" font-family="Arial" font-size="14.00">DECIMAL_PLACES </text>
<text text-anchor="start" x="179.36" y="-733" font-family="Arial" font-size="14.00" fill="#666666">[int]</text>
<text text-anchor="start" x="201.92" y="-733" font-family="Arial" font-size="14.00"> Decimal places</text>
<polygon fill="none" stroke="black" points="43.2,-690 43.2,-720.8 650.14,-720.8 650.14,-690 43.2,-690"/>
<text text-anchor="start" x="50.2" y="-702.2" font-family="Arial" font-size="14.00">SCORE </text>
<text text-anchor="start" x="103.88" y="-702.2" font-family="Arial" font-size="14.00" fill="#666666">[decimal]</text>
<text text-anchor="start" x="159.9" y="-702.2" font-family="Arial" font-size="14.00"> Score</text>
<polygon fill="none" stroke="black" points="43.2,-659.2 43.2,-690 650.14,-690 650.14,-659.2 43.2,-659.2"/>
<text text-anchor="start" x="50.2" y="-671.4" font-family="Arial" font-size="14.00">PERCENTAGE_SCORE </text>
<text text-anchor="start" x="208.12" y="-671.4" font-family="Arial" font-size="14.00" fill="#666666">[decimal]</text>
<text text-anchor="start" x="264.14" y="-671.4" font-family="Arial" font-size="14.00"> Percentage score</text>
<polygon fill="none" stroke="black" points="43.2,-628.4 43.2,-659.2 650.14,-659.2 650.14,-628.4 43.2,-628.4"/>
<text text-anchor="start" x="50.2" y="-640.6" font-family="Arial" font-size="14.00">SENTIMENT_SCORE </text>
<text text-anchor="start" x="192.55" y="-640.6" font-family="Arial" font-size="14.00" fill="#666666">[decimal]</text>
<text text-anchor="start" x="248.57" y="-640.6" font-family="Arial" font-size="14.00"> Sentiment score</text>
<polygon fill="none" stroke="black" points="43.2,-597.6 43.2,-628.4 650.14,-628.4 650.14,-597.6 43.2,-597.6"/>
<text text-anchor="start" x="50.2" y="-609.8" font-family="Arial" font-size="14.00">IS_COMPLETED </text>
<text text-anchor="start" x="162.23" y="-609.8" font-family="Arial" font-size="14.00" fill="#666666">[smallint]</text>
<polygon fill="none" stroke="black" points="43.2,-566.8 43.2,-597.6 650.14,-597.6 650.14,-566.8 43.2,-566.8"/>
<text text-anchor="start" x="50.2" y="-579" font-family="Arial" font-size="14.00">LATEST_QUESTION_ID </text>
<text text-anchor="start" x="209.68" y="-579" font-family="Arial" font-size="14.00" fill="#666666">[bigint]</text>
<text text-anchor="start" x="250.93" y="-579" font-family="Arial" font-size="14.00"> Latest Question identifier</text>
<polygon fill="none" stroke="black" points="43.2,-536 43.2,-566.8 650.14,-566.8 650.14,-536 43.2,-536"/>
<text text-anchor="start" x="50.2" y="-548.2" font-family="Arial" font-size="14.00">INSERT_TIME </text>
<text text-anchor="start" x="146.66" y="-548.2" font-family="Arial" font-size="14.00" fill="#666666">[datetime2]</text>
<text text-anchor="start" x="215.92" y="-548.2" font-family="Arial" font-size="14.00"> Indicates the date and time of creation</text>
<polygon fill="none" stroke="black" points="43.2,-505.2 43.2,-536 650.14,-536 650.14,-505.2 43.2,-505.2"/>
<text text-anchor="start" x="50.2" y="-517.4" font-family="Arial" font-size="14.00">INSERT_USER </text>
<text text-anchor="start" x="152.11" y="-517.4" font-family="Arial" font-size="14.00" fill="#666666">[nvarchar(100)]</text>
<text text-anchor="start" x="247.04" y="-517.4" font-family="Arial" font-size="14.00"> Indicates the user who has created it</text>
<polygon fill="none" stroke="black" points="43.2,-474.4 43.2,-505.2 650.14,-505.2 650.14,-474.4 43.2,-474.4"/>
<text text-anchor="start" x="50.2" y="-486.6" font-family="Arial" font-size="14.00">INSERT_CLIENT </text>
<text text-anchor="start" x="163" y="-486.6" font-family="Arial" font-size="14.00" fill="#666666">[nvarchar(50)]</text>
<text text-anchor="start" x="250.14" y="-486.6" font-family="Arial" font-size="14.00"> Indicates the IP address from which it was created</text>
<polygon fill="none" stroke="black" points="43.2,-443.6 43.2,-474.4 650.14,-474.4 650.14,-443.6 43.2,-443.6"/>
<text text-anchor="start" x="50.2" y="-455.8" font-family="Arial" font-size="14.00">UPDATE_TIME </text>
<text text-anchor="start" x="152.1" y="-455.8" font-family="Arial" font-size="14.00" fill="#666666">[datetime2]</text>
<text text-anchor="start" x="221.37" y="-455.8" font-family="Arial" font-size="14.00"> Indicates the date and time of last update operation</text>
<polygon fill="none" stroke="black" points="43.2,-412.8 43.2,-443.6 650.14,-443.6 650.14,-412.8 43.2,-412.8"/>
<text text-anchor="start" x="50.2" y="-425" font-family="Arial" font-size="14.00">UPDATE_USER </text>
<text text-anchor="start" x="157.56" y="-425" font-family="Arial" font-size="14.00" fill="#666666">[nvarchar(100)]</text>
<text text-anchor="start" x="252.49" y="-425" font-family="Arial" font-size="14.00"> Indicates the user who has executed last update</text>
<polygon fill="none" stroke="black" points="43.2,-382 43.2,-412.8 650.14,-412.8 650.14,-382 43.2,-382"/>
<text text-anchor="start" x="50.2" y="-394.2" font-family="Arial" font-size="14.00">UPDATE_CLIENT </text>
<text text-anchor="start" x="168.45" y="-394.2" font-family="Arial" font-size="14.00" fill="#666666">[nvarchar(50)]</text>
<text text-anchor="start" x="255.59" y="-394.2" font-family="Arial" font-size="14.00"> Indicates the IP address from which was executed last update</text>
<polygon fill="none" stroke="black" points="43.2,-351.2 43.2,-382 650.14,-382 650.14,-351.2 43.2,-351.2"/>
<text text-anchor="start" x="50.2" y="-363.4" font-family="Arial" font-size="14.00">UPDATE_COUNT </text>
<text text-anchor="start" x="168.43" y="-363.4" font-family="Arial" font-size="14.00" fill="#666666">[int]</text>
<text text-anchor="start" x="191" y="-363.4" font-family="Arial" font-size="14.00"> Indicates how many update was executed since its creation</text>
<polygon fill="none" stroke="black" points="43.2,-320.4 43.2,-351.2 650.14,-351.2 650.14,-320.4 43.2,-320.4"/>
<text text-anchor="start" x="50.2" y="-332.6" font-family="Arial" font-size="14.00">WORKFLOW_ID </text>
<text text-anchor="start" x="159.87" y="-332.6" font-family="Arial" font-size="14.00" fill="#666666">[bigint]</text>
<text text-anchor="start" x="201.12" y="-332.6" font-family="Arial" font-size="14.00"> Indicates the workflow unique identifier</text>
</g>
<!-- TF_QSTRT_ANSWERS&#45;&gt;TF_QSTRT_QUESTIONNAIRES -->
<g id="edge2" class="edge">
<title>TF_QSTRT_ANSWERS:QSTRT_ID&#45;&gt;TF_QSTRT_QUESTIONNAIRES:ID</title>
<path fill="none" stroke="black" d="M362.49,-1862.21C130.83,-1853.24 287.58,-1535.13 373.71,-1308 439.54,-1134.4 583.63,-1168.14 650.14,-994.8 666.79,-951.39 697.63,-890.2 651.14,-890.2"/>
<polygon fill="black" stroke="black" points="362.38,-1862.2 372.29,-1866.89 367.71,-1862.31 372.04,-1862.39 372.04,-1862.39 372.04,-1862.39 367.71,-1862.31 372.46,-1857.89 362.38,-1862.2"/>
</g>
<!-- TF_QST_QUESTIONS -->
<g id="node4" class="node">
<title>TF_QST_QUESTIONS</title>
<polygon fill="#efefef" stroke="none" points="754.2,-1182.8 754.2,-1228.8 1361.14,-1228.8 1361.14,-1182.8 754.2,-1182.8"/>
<polygon fill="none" stroke="black" points="754.2,-1182.8 754.2,-1228.8 1361.14,-1228.8 1361.14,-1182.8 754.2,-1182.8"/>
<text text-anchor="start" x="906.59" y="-1206.6" font-family="Arial Bold" font-size="18.00">TF_QST_QUESTIONS</text>
<text text-anchor="start" x="1079.6" y="-1206.6" font-family="Arial" font-size="14.00">    </text>
<text text-anchor="start" x="1110.72" y="-1206.6" font-family="Arial" font-size="14.00" fill="#666666">[BASIC TABLE]</text>
<text text-anchor="start" x="919.16" y="-1192.2" font-family="Arial" font-size="14.00" fill="#333333">Questions Definitions &#45; Questions Definitions</text>
<polygon fill="none" stroke="black" points="754.2,-1152 754.2,-1182.8 1361.14,-1182.8 1361.14,-1152 754.2,-1152"/>
<text text-anchor="start" x="761.2" y="-1164.2" font-family="Arial" font-size="14.00">ID </text>
<text text-anchor="start" x="779.09" y="-1164.2" font-family="Arial" font-size="14.00" fill="#666666">[bigint]</text>
<text text-anchor="start" x="820.34" y="-1164.2" font-family="Arial" font-size="14.00"> Indicates the unique identifier</text>
<polygon fill="none" stroke="black" points="754.2,-1121.2 754.2,-1152 1361.14,-1152 1361.14,-1121.2 754.2,-1121.2"/>
<text text-anchor="start" x="761.2" y="-1133.4" font-family="Arial" font-size="14.00">TYPE_ID </text>
<text text-anchor="start" x="823.44" y="-1133.4" font-family="Arial" font-size="14.00" fill="#666666">[bigint]</text>
<text text-anchor="start" x="864.69" y="-1133.4" font-family="Arial" font-size="14.00"> Question type.</text>
<polygon fill="none" stroke="black" points="754.2,-1090.4 754.2,-1121.2 1361.14,-1121.2 1361.14,-1090.4 754.2,-1090.4"/>
<text text-anchor="start" x="761.2" y="-1102.6" font-family="Arial" font-size="14.00">QUESTIONNAIRE_ID </text>
<text text-anchor="start" x="902.78" y="-1102.6" font-family="Arial" font-size="14.00" fill="#666666">[bigint]</text>
<text text-anchor="start" x="944.03" y="-1102.6" font-family="Arial" font-size="14.00"> Questionnaire.</text>
<polygon fill="none" stroke="black" points="754.2,-1059.6 754.2,-1090.4 1361.14,-1090.4 1361.14,-1059.6 754.2,-1059.6"/>
<text text-anchor="start" x="761.2" y="-1071.8" font-family="Arial" font-size="14.00">IS_TEMPLATE </text>
<text text-anchor="start" x="860.01" y="-1071.8" font-family="Arial" font-size="14.00" fill="#666666">[smallint]</text>
<text text-anchor="start" x="915.24" y="-1071.8" font-family="Arial" font-size="14.00"> Is a question template.</text>
<polygon fill="none" stroke="black" points="754.2,-1028.8 754.2,-1059.6 1361.14,-1059.6 1361.14,-1028.8 754.2,-1028.8"/>
<text text-anchor="start" x="761.2" y="-1041" font-family="Arial" font-size="14.00">CODE </text>
<text text-anchor="start" x="805.54" y="-1041" font-family="Arial" font-size="14.00" fill="#666666">[nvarchar(50)]</text>
<text text-anchor="start" x="892.68" y="-1041" font-family="Arial" font-size="14.00"> Question code.</text>
<polygon fill="none" stroke="black" points="754.2,-998 754.2,-1028.8 1361.14,-1028.8 1361.14,-998 754.2,-998"/>
<text text-anchor="start" x="761.2" y="-1010.2" font-family="Arial" font-size="14.00">NAME </text>
<text text-anchor="start" x="805.54" y="-1010.2" font-family="Arial" font-size="14.00" fill="#666666">[nvarchar(2000)]</text>
<text text-anchor="start" x="908.25" y="-1010.2" font-family="Arial" font-size="14.00"> Question Name.</text>
<polygon fill="none" stroke="black" points="754.2,-967.2 754.2,-998 1361.14,-998 1361.14,-967.2 754.2,-967.2"/>
<text text-anchor="start" x="761.2" y="-979.4" font-family="Arial" font-size="14.00">FOOTER </text>
<text text-anchor="start" x="823.42" y="-979.4" font-family="Arial" font-size="14.00" fill="#666666">[nvarchar(500)]</text>
<text text-anchor="start" x="918.35" y="-979.4" font-family="Arial" font-size="14.00"> Footer.</text>
<polygon fill="none" stroke="black" points="754.2,-936.4 754.2,-967.2 1361.14,-967.2 1361.14,-936.4 754.2,-936.4"/>
<text text-anchor="start" x="761.2" y="-948.6" font-family="Arial" font-size="14.00">SUBJECT_ID </text>
<text text-anchor="start" x="850.66" y="-948.6" font-family="Arial" font-size="14.00" fill="#666666">[bigint]</text>
<text text-anchor="start" x="891.91" y="-948.6" font-family="Arial" font-size="14.00"> Subject.</text>
<polygon fill="none" stroke="black" points="754.2,-905.6 754.2,-936.4 1361.14,-936.4 1361.14,-905.6 754.2,-905.6"/>
<text text-anchor="start" x="761.2" y="-917.8" font-family="Arial" font-size="14.00">CATEGORY_ID </text>
<text text-anchor="start" x="865.44" y="-917.8" font-family="Arial" font-size="14.00" fill="#666666">[bigint]</text>
<text text-anchor="start" x="906.69" y="-917.8" font-family="Arial" font-size="14.00"> Category.</text>
<polygon fill="none" stroke="black" points="754.2,-874.8 754.2,-905.6 1361.14,-905.6 1361.14,-874.8 754.2,-874.8"/>
<text text-anchor="start" x="761.2" y="-887" font-family="Arial" font-size="14.00">ENTITYSET_ID </text>
<text text-anchor="start" x="863.88" y="-887" font-family="Arial" font-size="14.00" fill="#666666">[bigint]</text>
<text text-anchor="start" x="905.13" y="-887" font-family="Arial" font-size="14.00"> Entity set.</text>
<polygon fill="none" stroke="black" points="754.2,-844 754.2,-874.8 1361.14,-874.8 1361.14,-844 754.2,-844"/>
<text text-anchor="start" x="761.2" y="-856.2" font-family="Arial" font-size="14.00">ANSWER_TEMPLATE_ID </text>
<text text-anchor="start" x="930.01" y="-856.2" font-family="Arial" font-size="14.00" fill="#666666">[bigint]</text>
<text text-anchor="start" x="971.26" y="-856.2" font-family="Arial" font-size="14.00"> Answer template.</text>
<polygon fill="none" stroke="black" points="754.2,-813.2 754.2,-844 1361.14,-844 1361.14,-813.2 754.2,-813.2"/>
<text text-anchor="start" x="761.2" y="-825.4" font-family="Arial" font-size="14.00">LAYOUT_ID </text>
<text text-anchor="start" x="842.89" y="-825.4" font-family="Arial" font-size="14.00" fill="#666666">[bigint]</text>
<text text-anchor="start" x="884.14" y="-825.4" font-family="Arial" font-size="14.00"> Layout</text>
<polygon fill="none" stroke="black" points="754.2,-782.4 754.2,-813.2 1361.14,-813.2 1361.14,-782.4 754.2,-782.4"/>
<text text-anchor="start" x="761.2" y="-794.6" font-family="Arial" font-size="14.00">CODIFICATION_ID </text>
<text text-anchor="start" x="887.21" y="-794.6" font-family="Arial" font-size="14.00" fill="#666666">[bigint]</text>
<text text-anchor="start" x="928.45" y="-794.6" font-family="Arial" font-size="14.00"> Codification identifier</text>
<polygon fill="none" stroke="black" points="754.2,-751.6 754.2,-782.4 1361.14,-782.4 1361.14,-751.6 754.2,-751.6"/>
<text text-anchor="start" x="761.2" y="-763.8" font-family="Arial" font-size="14.00">DISPLAY_ORDER </text>
<text text-anchor="start" x="882.57" y="-763.8" font-family="Arial" font-size="14.00" fill="#666666">[int]</text>
<text text-anchor="start" x="905.14" y="-763.8" font-family="Arial" font-size="14.00"> Display order.</text>
<polygon fill="none" stroke="black" points="754.2,-720.8 754.2,-751.6 1361.14,-751.6 1361.14,-720.8 754.2,-720.8"/>
<text text-anchor="start" x="761.2" y="-733" font-family="Arial" font-size="14.00">WEIGHT_LEVEL </text>
<text text-anchor="start" x="872.45" y="-733" font-family="Arial" font-size="14.00" fill="#666666">[int]</text>
<text text-anchor="start" x="895.02" y="-733" font-family="Arial" font-size="14.00"> Weight level</text>
<polygon fill="none" stroke="black" points="754.2,-690 754.2,-720.8 1361.14,-720.8 1361.14,-690 754.2,-690"/>
<text text-anchor="start" x="761.2" y="-702.2" font-family="Arial" font-size="14.00">SHOW_CORRECT_ANSWERS </text>
<text text-anchor="start" x="964.22" y="-702.2" font-family="Arial" font-size="14.00" fill="#666666">[smallint]</text>
<text text-anchor="start" x="1019.45" y="-702.2" font-family="Arial" font-size="14.00"> Show correct answer.</text>
<polygon fill="none" stroke="black" points="754.2,-659.2 754.2,-690 1361.14,-690 1361.14,-659.2 754.2,-659.2"/>
<text text-anchor="start" x="761.2" y="-671.4" font-family="Arial" font-size="14.00">INCLUDE_COMMENT </text>
<text text-anchor="start" x="906.66" y="-671.4" font-family="Arial" font-size="14.00" fill="#666666">[smallint]</text>
<text text-anchor="start" x="961.89" y="-671.4" font-family="Arial" font-size="14.00"> Include command.</text>
<polygon fill="none" stroke="black" points="754.2,-628.4 754.2,-659.2 1361.14,-659.2 1361.14,-628.4 754.2,-628.4"/>
<text text-anchor="start" x="761.2" y="-640.6" font-family="Arial" font-size="14.00">IS_MANDATORY </text>
<text text-anchor="start" x="875.55" y="-640.6" font-family="Arial" font-size="14.00" fill="#666666">[smallint]</text>
<text text-anchor="start" x="930.79" y="-640.6" font-family="Arial" font-size="14.00"> Is mandatory.</text>
<polygon fill="none" stroke="black" points="754.2,-597.6 754.2,-628.4 1361.14,-628.4 1361.14,-597.6 754.2,-597.6"/>
<text text-anchor="start" x="761.2" y="-609.8" font-family="Arial" font-size="14.00">IS_SCORED </text>
<text text-anchor="start" x="846" y="-609.8" font-family="Arial" font-size="14.00" fill="#666666">[smallint]</text>
<text text-anchor="start" x="901.23" y="-609.8" font-family="Arial" font-size="14.00"> Is scored.</text>
<polygon fill="none" stroke="black" points="754.2,-566.8 754.2,-597.6 1361.14,-597.6 1361.14,-566.8 754.2,-566.8"/>
<text text-anchor="start" x="761.2" y="-579" font-family="Arial" font-size="14.00">IS_RANDOMIZATION_ENABLED </text>
<text text-anchor="start" x="976.69" y="-579" font-family="Arial" font-size="14.00" fill="#666666">[smallint]</text>
<text text-anchor="start" x="1031.92" y="-579" font-family="Arial" font-size="14.00"> Is randomization enabled.</text>
<polygon fill="none" stroke="black" points="754.2,-536 754.2,-566.8 1361.14,-566.8 1361.14,-536 754.2,-536"/>
<text text-anchor="start" x="761.2" y="-548.2" font-family="Arial" font-size="14.00">IS_RANDOM_ANSWORDER_ENABLED </text>
<text text-anchor="start" x="1021.81" y="-548.2" font-family="Arial" font-size="14.00" fill="#666666">[smallint]</text>
<text text-anchor="start" x="1077.05" y="-548.2" font-family="Arial" font-size="14.00"> Is random answer order enabled.</text>
<polygon fill="none" stroke="black" points="754.2,-505.2 754.2,-536 1361.14,-536 1361.14,-505.2 754.2,-505.2"/>
<text text-anchor="start" x="761.2" y="-517.4" font-family="Arial" font-size="14.00">IS_SCORE_SENTIMENT_ENABLED </text>
<text text-anchor="start" x="997.71" y="-517.4" font-family="Arial" font-size="14.00" fill="#666666">[smallint]</text>
<text text-anchor="start" x="1052.94" y="-517.4" font-family="Arial" font-size="14.00"> Is score sentiment enabled.</text>
<polygon fill="none" stroke="black" points="754.2,-474.4 754.2,-505.2 1361.14,-505.2 1361.14,-474.4 754.2,-474.4"/>
<text text-anchor="start" x="761.2" y="-486.6" font-family="Arial" font-size="14.00">IS_SPEECH_TO_TEXT_ENABLED </text>
<text text-anchor="start" x="987.61" y="-486.6" font-family="Arial" font-size="14.00" fill="#666666">[smallint]</text>
<text text-anchor="start" x="1042.85" y="-486.6" font-family="Arial" font-size="14.00"> Is speech to text enabled.</text>
<polygon fill="none" stroke="black" points="754.2,-443.6 754.2,-474.4 1361.14,-474.4 1361.14,-443.6 754.2,-443.6"/>
<text text-anchor="start" x="761.2" y="-455.8" font-family="Arial" font-size="14.00">IS_IMPORT_ANSWERS_ENABLED </text>
<text text-anchor="start" x="992.26" y="-455.8" font-family="Arial" font-size="14.00" fill="#666666">[smallint]</text>
<text text-anchor="start" x="1047.5" y="-455.8" font-family="Arial" font-size="14.00"> Is import answers enabled.</text>
<polygon fill="none" stroke="black" points="754.2,-412.8 754.2,-443.6 1361.14,-443.6 1361.14,-412.8 754.2,-412.8"/>
<text text-anchor="start" x="761.2" y="-425" font-family="Arial" font-size="14.00">ANSWER_TYPE </text>
<text text-anchor="start" x="870.89" y="-425" font-family="Arial" font-size="14.00" fill="#666666">[bigint]</text>
<text text-anchor="start" x="912.14" y="-425" font-family="Arial" font-size="14.00"> Answer Type</text>
<polygon fill="none" stroke="black" points="754.2,-382 754.2,-412.8 1361.14,-412.8 1361.14,-382 754.2,-382"/>
<text text-anchor="start" x="761.2" y="-394.2" font-family="Arial" font-size="14.00">WIDTH </text>
<text text-anchor="start" x="810.97" y="-394.2" font-family="Arial" font-size="14.00" fill="#666666">[nvarchar(10)]</text>
<text text-anchor="start" x="898.11" y="-394.2" font-family="Arial" font-size="14.00"> Width</text>
<polygon fill="none" stroke="black" points="754.2,-351.2 754.2,-382 1361.14,-382 1361.14,-351.2 754.2,-351.2"/>
<text text-anchor="start" x="761.2" y="-363.4" font-family="Arial" font-size="14.00">SHAREDIDENTIFIER </text>
<text text-anchor="start" x="901.21" y="-363.4" font-family="Arial" font-size="14.00" fill="#666666">[nvarchar(255)]</text>
<text text-anchor="start" x="996.14" y="-363.4" font-family="Arial" font-size="14.00"> Shared Identifier</text>
<polygon fill="none" stroke="black" points="754.2,-320.4 754.2,-351.2 1361.14,-351.2 1361.14,-320.4 754.2,-320.4"/>
<text text-anchor="start" x="761.2" y="-332.6" font-family="Arial" font-size="14.00">LISTAGENCY_ID </text>
<text text-anchor="start" x="875.57" y="-332.6" font-family="Arial" font-size="14.00" fill="#666666">[bigint]</text>
<text text-anchor="start" x="916.81" y="-332.6" font-family="Arial" font-size="14.00"> The Identifier of List Agency</text>
<polygon fill="none" stroke="black" points="754.2,-289.6 754.2,-320.4 1361.14,-320.4 1361.14,-289.6 754.2,-289.6"/>
<text text-anchor="start" x="761.2" y="-301.8" font-family="Arial" font-size="14.00">IS_SCORE_FOR_NPS_ENABLED </text>
<text text-anchor="start" x="982.94" y="-301.8" font-family="Arial" font-size="14.00" fill="#666666">[smallint]</text>
<text text-anchor="start" x="1038.18" y="-301.8" font-family="Arial" font-size="14.00"> Score for NPS enabled</text>
<polygon fill="none" stroke="black" points="754.2,-258.8 754.2,-289.6 1361.14,-289.6 1361.14,-258.8 754.2,-258.8"/>
<text text-anchor="start" x="761.2" y="-271" font-family="Arial" font-size="14.00">INSERT_TIME </text>
<text text-anchor="start" x="857.66" y="-271" font-family="Arial" font-size="14.00" fill="#666666">[datetime2]</text>
<text text-anchor="start" x="926.92" y="-271" font-family="Arial" font-size="14.00"> Indicates the date and time of creation</text>
<polygon fill="none" stroke="black" points="754.2,-228 754.2,-258.8 1361.14,-258.8 1361.14,-228 754.2,-228"/>
<text text-anchor="start" x="761.2" y="-240.2" font-family="Arial" font-size="14.00">INSERT_USER </text>
<text text-anchor="start" x="863.11" y="-240.2" font-family="Arial" font-size="14.00" fill="#666666">[nvarchar(100)]</text>
<text text-anchor="start" x="958.04" y="-240.2" font-family="Arial" font-size="14.00"> Indicates the user who has created it</text>
<polygon fill="none" stroke="black" points="754.2,-197.2 754.2,-228 1361.14,-228 1361.14,-197.2 754.2,-197.2"/>
<text text-anchor="start" x="761.2" y="-209.4" font-family="Arial" font-size="14.00">INSERT_CLIENT </text>
<text text-anchor="start" x="874" y="-209.4" font-family="Arial" font-size="14.00" fill="#666666">[nvarchar(50)]</text>
<text text-anchor="start" x="961.14" y="-209.4" font-family="Arial" font-size="14.00"> Indicates the IP address from which it was created</text>
<polygon fill="none" stroke="black" points="754.2,-166.4 754.2,-197.2 1361.14,-197.2 1361.14,-166.4 754.2,-166.4"/>
<text text-anchor="start" x="761.2" y="-178.6" font-family="Arial" font-size="14.00">UPDATE_TIME </text>
<text text-anchor="start" x="863.1" y="-178.6" font-family="Arial" font-size="14.00" fill="#666666">[datetime2]</text>
<text text-anchor="start" x="932.37" y="-178.6" font-family="Arial" font-size="14.00"> Indicates the date and time of last update operation</text>
<polygon fill="none" stroke="black" points="754.2,-135.6 754.2,-166.4 1361.14,-166.4 1361.14,-135.6 754.2,-135.6"/>
<text text-anchor="start" x="761.2" y="-147.8" font-family="Arial" font-size="14.00">UPDATE_USER </text>
<text text-anchor="start" x="868.56" y="-147.8" font-family="Arial" font-size="14.00" fill="#666666">[nvarchar(100)]</text>
<text text-anchor="start" x="963.49" y="-147.8" font-family="Arial" font-size="14.00"> Indicates the user who has executed last update</text>
<polygon fill="none" stroke="black" points="754.2,-104.8 754.2,-135.6 1361.14,-135.6 1361.14,-104.8 754.2,-104.8"/>
<text text-anchor="start" x="761.2" y="-117" font-family="Arial" font-size="14.00">UPDATE_CLIENT </text>
<text text-anchor="start" x="879.45" y="-117" font-family="Arial" font-size="14.00" fill="#666666">[nvarchar(50)]</text>
<text text-anchor="start" x="966.59" y="-117" font-family="Arial" font-size="14.00"> Indicates the IP address from which was executed last update</text>
<polygon fill="none" stroke="black" points="754.2,-74 754.2,-104.8 1361.14,-104.8 1361.14,-74 754.2,-74"/>
<text text-anchor="start" x="761.2" y="-86.2" font-family="Arial" font-size="14.00">UPDATE_COUNT </text>
<text text-anchor="start" x="879.43" y="-86.2" font-family="Arial" font-size="14.00" fill="#666666">[int]</text>
<text text-anchor="start" x="902" y="-86.2" font-family="Arial" font-size="14.00"> Indicates how many update was executed since its creation</text>
<polygon fill="none" stroke="black" points="754.2,-43.2 754.2,-74 1361.14,-74 1361.14,-43.2 754.2,-43.2"/>
<text text-anchor="start" x="761.2" y="-55.4" font-family="Arial" font-size="14.00">WORKFLOW_ID </text>
<text text-anchor="start" x="870.87" y="-55.4" font-family="Arial" font-size="14.00" fill="#666666">[bigint]</text>
<text text-anchor="start" x="912.12" y="-55.4" font-family="Arial" font-size="14.00"> Indicates the workflow unique identifier</text>
</g>
<!-- TF_QSTRT_ANSWERS&#45;&gt;TF_QST_QUESTIONS -->
<g id="edge3" class="edge">
<title>TF_QSTRT_ANSWERS:QUESTION_ID&#45;&gt;TF_QST_QUESTIONS:ID</title>
<path fill="none" stroke="black" d="M1040.98,-1831.36C1260.9,-1821.08 1180.98,-1480.1 1029.63,-1308 948.1,-1215.3 836.08,-1364.39 754.2,-1272 723.36,-1237.21 706.71,-1167.4 753.2,-1167.4"/>
<polygon fill="black" stroke="black" points="1040.96,-1831.36 1030.86,-1827.09 1035.62,-1831.49 1031.29,-1831.58 1031.29,-1831.58 1031.29,-1831.58 1035.62,-1831.49 1031.06,-1836.09 1040.96,-1831.36"/>
</g>
<!-- TF_QSTRT_CHOICES -->
<g id="node2" class="node">
<title>TF_QSTRT_CHOICES</title>
<polygon fill="#efefef" stroke="none" points="398.2,-2542 398.2,-2588 1005.14,-2588 1005.14,-2542 398.2,-2542"/>
<polygon fill="none" stroke="black" points="398.2,-2542 398.2,-2588 1005.14,-2588 1005.14,-2542 398.2,-2542"/>
<text text-anchor="start" x="550.58" y="-2565.8" font-family="Arial Bold" font-size="18.00">TF_QSTRT_CHOICES</text>
<text text-anchor="start" x="723.6" y="-2565.8" font-family="Arial" font-size="14.00">    </text>
<text text-anchor="start" x="754.72" y="-2565.8" font-family="Arial" font-size="14.00" fill="#666666">[BASIC TABLE]</text>
<text text-anchor="start" x="641.76" y="-2551.4" font-family="Arial" font-size="14.00" fill="#333333">Answers &#45; Answers</text>
<polygon fill="none" stroke="black" points="398.2,-2511.2 398.2,-2542 1005.14,-2542 1005.14,-2511.2 398.2,-2511.2"/>
<text text-anchor="start" x="405.2" y="-2523.4" font-family="Arial" font-size="14.00">ID </text>
<text text-anchor="start" x="423.09" y="-2523.4" font-family="Arial" font-size="14.00" fill="#666666">[bigint]</text>
<text text-anchor="start" x="464.34" y="-2523.4" font-family="Arial" font-size="14.00"> Indicates the unique identifier</text>
<polygon fill="none" stroke="black" points="398.2,-2480.4 398.2,-2511.2 1005.14,-2511.2 1005.14,-2480.4 398.2,-2480.4"/>
<text text-anchor="start" x="405.2" y="-2492.6" font-family="Arial" font-size="14.00">QSTRT_ANSWER_ID </text>
<text text-anchor="start" x="547.55" y="-2492.6" font-family="Arial" font-size="14.00" fill="#666666">[bigint]</text>
<text text-anchor="start" x="588.8" y="-2492.6" font-family="Arial" font-size="14.00"> Answer Identifier</text>
<polygon fill="none" stroke="black" points="398.2,-2449.6 398.2,-2480.4 1005.14,-2480.4 1005.14,-2449.6 398.2,-2449.6"/>
<text text-anchor="start" x="405.2" y="-2461.8" font-family="Arial" font-size="14.00">ANSWER_ID </text>
<text text-anchor="start" x="492.32" y="-2461.8" font-family="Arial" font-size="14.00" fill="#666666">[bigint]</text>
<text text-anchor="start" x="533.57" y="-2461.8" font-family="Arial" font-size="14.00"> Choise Identifier</text>
<polygon fill="none" stroke="black" points="398.2,-2418.8 398.2,-2449.6 1005.14,-2449.6 1005.14,-2418.8 398.2,-2418.8"/>
<text text-anchor="start" x="405.2" y="-2431" font-family="Arial" font-size="14.00">RANKING </text>
<text text-anchor="start" x="472.88" y="-2431" font-family="Arial" font-size="14.00" fill="#666666">[int]</text>
<text text-anchor="start" x="495.44" y="-2431" font-family="Arial" font-size="14.00"> Ranking</text>
<polygon fill="none" stroke="black" points="398.2,-2388 398.2,-2418.8 1005.14,-2418.8 1005.14,-2388 398.2,-2388"/>
<text text-anchor="start" x="405.2" y="-2400.2" font-family="Arial" font-size="14.00">WEIGHT </text>
<text text-anchor="start" x="465.08" y="-2400.2" font-family="Arial" font-size="14.00" fill="#666666">[int]</text>
<text text-anchor="start" x="487.65" y="-2400.2" font-family="Arial" font-size="14.00"> Weight</text>
<polygon fill="none" stroke="black" points="398.2,-2357.2 398.2,-2388 1005.14,-2388 1005.14,-2357.2 398.2,-2357.2"/>
<text text-anchor="start" x="405.2" y="-2369.4" font-family="Arial" font-size="14.00">DATE </text>
<text text-anchor="start" x="446.43" y="-2369.4" font-family="Arial" font-size="14.00" fill="#666666">[date]</text>
<text text-anchor="start" x="481.45" y="-2369.4" font-family="Arial" font-size="14.00"> Date</text>
<polygon fill="none" stroke="black" points="398.2,-2326.4 398.2,-2357.2 1005.14,-2357.2 1005.14,-2326.4 398.2,-2326.4"/>
<text text-anchor="start" x="405.2" y="-2338.6" font-family="Arial" font-size="14.00">DISPLAY_ORDER </text>
<text text-anchor="start" x="526.57" y="-2338.6" font-family="Arial" font-size="14.00" fill="#666666">[int]</text>
<text text-anchor="start" x="549.14" y="-2338.6" font-family="Arial" font-size="14.00"> Display order</text>
<polygon fill="none" stroke="black" points="398.2,-2295.6 398.2,-2326.4 1005.14,-2326.4 1005.14,-2295.6 398.2,-2295.6"/>
<text text-anchor="start" x="405.2" y="-2307.8" font-family="Arial" font-size="14.00">INSERT_TIME </text>
<text text-anchor="start" x="501.66" y="-2307.8" font-family="Arial" font-size="14.00" fill="#666666">[datetime2]</text>
<text text-anchor="start" x="570.92" y="-2307.8" font-family="Arial" font-size="14.00"> Indicates the date and time of creation</text>
<polygon fill="none" stroke="black" points="398.2,-2264.8 398.2,-2295.6 1005.14,-2295.6 1005.14,-2264.8 398.2,-2264.8"/>
<text text-anchor="start" x="405.2" y="-2277" font-family="Arial" font-size="14.00">INSERT_USER </text>
<text text-anchor="start" x="507.11" y="-2277" font-family="Arial" font-size="14.00" fill="#666666">[nvarchar(100)]</text>
<text text-anchor="start" x="602.04" y="-2277" font-family="Arial" font-size="14.00"> Indicates the user who has created it</text>
<polygon fill="none" stroke="black" points="398.2,-2234 398.2,-2264.8 1005.14,-2264.8 1005.14,-2234 398.2,-2234"/>
<text text-anchor="start" x="405.2" y="-2246.2" font-family="Arial" font-size="14.00">INSERT_CLIENT </text>
<text text-anchor="start" x="518" y="-2246.2" font-family="Arial" font-size="14.00" fill="#666666">[nvarchar(50)]</text>
<text text-anchor="start" x="605.14" y="-2246.2" font-family="Arial" font-size="14.00"> Indicates the IP address from which it was created</text>
<polygon fill="none" stroke="black" points="398.2,-2203.2 398.2,-2234 1005.14,-2234 1005.14,-2203.2 398.2,-2203.2"/>
<text text-anchor="start" x="405.2" y="-2215.4" font-family="Arial" font-size="14.00">UPDATE_TIME </text>
<text text-anchor="start" x="507.1" y="-2215.4" font-family="Arial" font-size="14.00" fill="#666666">[datetime2]</text>
<text text-anchor="start" x="576.37" y="-2215.4" font-family="Arial" font-size="14.00"> Indicates the date and time of last update operation</text>
<polygon fill="none" stroke="black" points="398.2,-2172.4 398.2,-2203.2 1005.14,-2203.2 1005.14,-2172.4 398.2,-2172.4"/>
<text text-anchor="start" x="405.2" y="-2184.6" font-family="Arial" font-size="14.00">UPDATE_USER </text>
<text text-anchor="start" x="512.56" y="-2184.6" font-family="Arial" font-size="14.00" fill="#666666">[nvarchar(100)]</text>
<text text-anchor="start" x="607.49" y="-2184.6" font-family="Arial" font-size="14.00"> Indicates the user who has executed last update</text>
<polygon fill="none" stroke="black" points="398.2,-2141.6 398.2,-2172.4 1005.14,-2172.4 1005.14,-2141.6 398.2,-2141.6"/>
<text text-anchor="start" x="405.2" y="-2153.8" font-family="Arial" font-size="14.00">UPDATE_CLIENT </text>
<text text-anchor="start" x="523.45" y="-2153.8" font-family="Arial" font-size="14.00" fill="#666666">[nvarchar(50)]</text>
<text text-anchor="start" x="610.59" y="-2153.8" font-family="Arial" font-size="14.00"> Indicates the IP address from which was executed last update</text>
<polygon fill="none" stroke="black" points="398.2,-2110.8 398.2,-2141.6 1005.14,-2141.6 1005.14,-2110.8 398.2,-2110.8"/>
<text text-anchor="start" x="405.2" y="-2123" font-family="Arial" font-size="14.00">UPDATE_COUNT </text>
<text text-anchor="start" x="523.43" y="-2123" font-family="Arial" font-size="14.00" fill="#666666">[int]</text>
<text text-anchor="start" x="546" y="-2123" font-family="Arial" font-size="14.00"> Indicates how many update was executed since its creation</text>
<polygon fill="none" stroke="black" points="398.2,-2080 398.2,-2110.8 1005.14,-2110.8 1005.14,-2080 398.2,-2080"/>
<text text-anchor="start" x="405.2" y="-2092.2" font-family="Arial" font-size="14.00">WORKFLOW_ID </text>
<text text-anchor="start" x="514.87" y="-2092.2" font-family="Arial" font-size="14.00" fill="#666666">[bigint]</text>
<text text-anchor="start" x="556.12" y="-2092.2" font-family="Arial" font-size="14.00"> Indicates the workflow unique identifier</text>
</g>
<!-- TF_QSTRT_CHOICES&#45;&gt;TF_QSTRT_ANSWERS -->
<g id="edge1" class="edge">
<title>TF_QSTRT_CHOICES:QSTRT_ANSWER_ID&#45;&gt;TF_QSTRT_ANSWERS:ID</title>
<path fill="none" stroke="black" d="M1016.23,-2495.51C1274.75,-2480.6 1295.27,-1893.2 1030.63,-1893.2"/>
<polygon fill="black" stroke="black" points="1016.47,-2495.5 1006.34,-2491.29 1011.13,-2495.66 1006.8,-2495.78 1006.8,-2495.78 1006.8,-2495.78 1011.13,-2495.66 1006.6,-2500.29 1016.47,-2495.5"/>
</g>
</g>
</svg>
