<?xml version="1.0" encoding="UTF-8" standalone="no"?>
<!DOCTYPE svg PUBLIC "-//W3C//DTD SVG 1.1//EN"
 "http://www.w3.org/Graphics/SVG/1.1/DTD/svg11.dtd">
<!-- Generated by graphviz version 12.1.2 (20240928.0832)
 -->
<!-- Title: TF_WIDGETS_GALLERY_VIEW Pages: 1 -->
<svg width="579pt" height="578pt"
 viewBox="0.00 0.00 578.88 577.60" xmlns="http://www.w3.org/2000/svg" xmlns:xlink="http://www.w3.org/1999/xlink">
<g id="graph0" class="graph" transform="scale(1 1) rotate(0) translate(4 573.6)">
<title>TF_WIDGETS_GALLERY_VIEW</title>
<polygon fill="white" stroke="none" points="-4,4 -4,-573.6 574.88,-573.6 574.88,4 -4,4"/>
<!-- TF_WIDGETS_GALLERY_VIEW -->
<g id="node1" class="node">
<title>TF_WIDGETS_GALLERY_VIEW</title>
<polygon fill="#efefef" stroke="none" points="46.2,-477.4 46.2,-523.4 524.68,-523.4 524.68,-477.4 46.2,-477.4"/>
<polygon fill="none" stroke="black" points="46.2,-477.4 46.2,-523.4 524.68,-523.4 524.68,-477.4 46.2,-477.4"/>
<text text-anchor="start" x="118.13" y="-501.2" font-family="Arial Bold" font-size="18.00">TF_WIDGETS_GALLERY_VIEW</text>
<text text-anchor="start" x="378.08" y="-501.2" font-family="Arial" font-size="14.00">    </text>
<text text-anchor="start" x="409.2" y="-501.2" font-family="Arial" font-size="14.00" fill="#666666">[VIEW]</text>
<text text-anchor="start" x="180.41" y="-486.8" font-family="Arial" font-size="14.00" fill="#333333">Widgets Gallery &#45; Widgets Gallery</text>
<polygon fill="none" stroke="black" points="46.2,-446.6 46.2,-477.4 524.68,-477.4 524.68,-446.6 46.2,-446.6"/>
<text text-anchor="start" x="53.2" y="-458.8" font-family="Arial" font-size="14.00">FACTORY_ID </text>
<text text-anchor="start" x="145.77" y="-458.8" font-family="Arial" font-size="14.00" fill="#666666">[char]</text>
<polygon fill="none" stroke="black" points="46.2,-415.8 46.2,-446.6 524.68,-446.6 524.68,-415.8 46.2,-415.8"/>
<text text-anchor="start" x="53.2" y="-428" font-family="Arial" font-size="14.00">ID </text>
<text text-anchor="start" x="71.09" y="-428" font-family="Arial" font-size="14.00" fill="#666666">[char]</text>
<text text-anchor="start" x="106.1" y="-428" font-family="Arial" font-size="14.00"> Indicates the unique identifier</text>
<polygon fill="none" stroke="black" points="46.2,-385 46.2,-415.8 524.68,-415.8 524.68,-385 46.2,-385"/>
<text text-anchor="start" x="53.2" y="-397.2" font-family="Arial" font-size="14.00">NAME </text>
<text text-anchor="start" x="97.54" y="-397.2" font-family="Arial" font-size="14.00" fill="#666666">[nvarchar(100)]</text>
<text text-anchor="start" x="192.47" y="-397.2" font-family="Arial" font-size="14.00"> Name</text>
<polygon fill="none" stroke="black" points="46.2,-354.2 46.2,-385 524.68,-385 524.68,-354.2 46.2,-354.2"/>
<text text-anchor="start" x="53.2" y="-366.4" font-family="Arial" font-size="14.00">NAME_TEXT_ID </text>
<text text-anchor="start" x="162.89" y="-366.4" font-family="Arial" font-size="14.00" fill="#666666">[bigint]</text>
<text text-anchor="start" x="204.14" y="-366.4" font-family="Arial" font-size="14.00"> Widget Gallery Name Text Identifier</text>
<polygon fill="none" stroke="black" points="46.2,-323.4 46.2,-354.2 524.68,-354.2 524.68,-323.4 46.2,-323.4"/>
<text text-anchor="start" x="53.2" y="-335.6" font-family="Arial" font-size="14.00">DESCRIPTION_TEXT_ID </text>
<text text-anchor="start" x="218.12" y="-335.6" font-family="Arial" font-size="14.00" fill="#666666">[bigint]</text>
<text text-anchor="start" x="259.37" y="-335.6" font-family="Arial" font-size="14.00"> Widget Gallery Description Text Identifier</text>
<polygon fill="none" stroke="black" points="46.2,-292.6 46.2,-323.4 524.68,-323.4 524.68,-292.6 46.2,-292.6"/>
<text text-anchor="start" x="53.2" y="-304.8" font-family="Arial" font-size="14.00">ALLOW_ANY_ITEM_TYPE </text>
<text text-anchor="start" x="228.25" y="-304.8" font-family="Arial" font-size="14.00" fill="#666666">[smallint]</text>
<text text-anchor="start" x="283.49" y="-304.8" font-family="Arial" font-size="14.00"> Allow Any Item Type</text>
<polygon fill="none" stroke="black" points="46.2,-261.8 46.2,-292.6 524.68,-292.6 524.68,-261.8 46.2,-261.8"/>
<text text-anchor="start" x="53.2" y="-274" font-family="Arial" font-size="14.00">IS_CUSTOM </text>
<text text-anchor="start" x="138.77" y="-274" font-family="Arial" font-size="14.00" fill="#666666">[smallint]</text>
<text text-anchor="start" x="194" y="-274" font-family="Arial" font-size="14.00"> Widget Gallery Is Custom Flag</text>
<polygon fill="none" stroke="black" points="46.2,-231 46.2,-261.8 524.68,-261.8 524.68,-231 46.2,-231"/>
<text text-anchor="start" x="53.2" y="-243.2" font-family="Arial" font-size="14.00">INSERT_TIME </text>
<text text-anchor="start" x="149.66" y="-243.2" font-family="Arial" font-size="14.00" fill="#666666">[datetime2]</text>
<polygon fill="none" stroke="black" points="46.2,-200.2 46.2,-231 524.68,-231 524.68,-200.2 46.2,-200.2"/>
<text text-anchor="start" x="53.2" y="-212.4" font-family="Arial" font-size="14.00">INSERT_USER </text>
<text text-anchor="start" x="155.11" y="-212.4" font-family="Arial" font-size="14.00" fill="#666666">[nvarchar(100)]</text>
<polygon fill="none" stroke="black" points="46.2,-169.4 46.2,-200.2 524.68,-200.2 524.68,-169.4 46.2,-169.4"/>
<text text-anchor="start" x="53.2" y="-181.6" font-family="Arial" font-size="14.00">INSERT_CLIENT </text>
<text text-anchor="start" x="166" y="-181.6" font-family="Arial" font-size="14.00" fill="#666666">[nvarchar(50)]</text>
<polygon fill="none" stroke="black" points="46.2,-138.6 46.2,-169.4 524.68,-169.4 524.68,-138.6 46.2,-138.6"/>
<text text-anchor="start" x="53.2" y="-150.8" font-family="Arial" font-size="14.00">UPDATE_TIME </text>
<text text-anchor="start" x="155.1" y="-150.8" font-family="Arial" font-size="14.00" fill="#666666">[datetime2]</text>
<polygon fill="none" stroke="black" points="46.2,-107.8 46.2,-138.6 524.68,-138.6 524.68,-107.8 46.2,-107.8"/>
<text text-anchor="start" x="53.2" y="-120" font-family="Arial" font-size="14.00">UPDATE_USER </text>
<text text-anchor="start" x="160.56" y="-120" font-family="Arial" font-size="14.00" fill="#666666">[nvarchar(100)]</text>
<polygon fill="none" stroke="black" points="46.2,-77 46.2,-107.8 524.68,-107.8 524.68,-77 46.2,-77"/>
<text text-anchor="start" x="53.2" y="-89.2" font-family="Arial" font-size="14.00">UPDATE_CLIENT </text>
<text text-anchor="start" x="171.45" y="-89.2" font-family="Arial" font-size="14.00" fill="#666666">[nvarchar(50)]</text>
<polygon fill="none" stroke="black" points="46.2,-46.2 46.2,-77 524.68,-77 524.68,-46.2 46.2,-46.2"/>
<text text-anchor="start" x="53.2" y="-58.4" font-family="Arial" font-size="14.00">UPDATE_COUNT </text>
<text text-anchor="start" x="171.43" y="-58.4" font-family="Arial" font-size="14.00" fill="#666666">[int]</text>
<polygon fill="none" stroke="black" stroke-width="3" points="44.7,-44.7 44.7,-524.9 526.18,-524.9 526.18,-44.7 44.7,-44.7"/>
</g>
</g>
</svg>
